<svg width="409" height="294" xmlns="http://www.w3.org/2000/svg" xmlns:xlink="http://www.w3.org/1999/xlink" overflow="hidden"><defs><clipPath id="clip0"><rect x="437" y="141" width="409" height="294"/></clipPath></defs><g clip-path="url(#clip0)" transform="translate(-437 -141)"><path d="M540.557 160.726 180.186 160.726C172.721 160.726 166.672 166.775 166.672 174.24 166.672 181.7 172.721 187.754 180.186 187.754L540.557 187.754C548.022 187.754 554.071 181.7 554.071 174.24 554.071 166.775 548.022 160.726 540.557 160.726Z" fill="#FFFFFF" transform="matrix(1 0 0 1.00109 279.849 -0.613812)"/><path d="M450.464 274.788 180.186 274.788C172.721 274.788 166.672 280.837 166.672 288.302 166.672 295.767 172.721 301.816 180.186 301.816L450.464 301.816C457.929 301.816 463.978 295.767 463.978 288.302 463.978 280.837 457.929 274.788 450.464 274.788Z" fill="#FFFFFF" transform="matrix(1 0 0 1.00109 279.849 -0.613812)"/><path d="M360.371 388.841 180.186 388.841C172.721 388.841 166.672 394.894 166.672 402.355 166.672 409.82 172.721 415.869 180.186 415.869L360.371 415.869C367.836 415.869 373.885 409.82 373.885 402.355 373.885 394.894 367.836 388.841 360.371 388.841Z" fill="#FFFFFF" transform="matrix(1 0 0 1.00109 279.849 -0.613812)"/><path d="M30.1806-1.80186C28.6241-0.997457 26.9992-0.390128 25.3059 0.0160623 23.6207 0.434351 21.8671 0.6435 20.0451 0.6435 14.5752 0.6435 10.2355-0.884887 7.02951-3.94156 3.83198-6.99833 2.23533-11.149 2.23533-16.3939 2.23533-21.6389 3.83209-25.7893 7.02951-28.8463 10.2351-31.9031 14.5748-33.4314 20.0451-33.4314 21.867-33.4314 23.6207-33.2262 25.3059-32.82 26.9991-32.4098 28.6241-31.7984 30.1806-30.986L30.1806-24.1969C28.604-25.2667 27.0514-26.051 25.5312-26.5457 24.0068-27.0484 22.402-27.3018 20.7208-27.3018 17.6963-27.3018 15.3193-26.3285 13.5938-24.3899 11.8644-22.4593 11.0037-19.7928 11.0037-16.3942 11.0037-13.0036 11.8644-10.337 13.5938-8.39846 15.3193-6.4679 17.6963-5.50262 20.7208-5.50262 22.402-5.50262 24.0068-5.74796 25.5312-6.24266 27.0515-6.74541 28.604-7.53372 30.1806-8.60763Z" fill="#FFFFFF" transform="matrix(1 0 0 1.00109 351.923 711.893)"/><path d="M22.0887-17.9218C21.3889-18.2435 20.6971-18.4768 20.0134-18.6297 19.3377-18.7905 18.654-18.871 17.9702-18.871 15.943-18.871 14.3825-18.2194 13.2885-16.9244 12.2026-15.6253 11.6637-13.7631 11.6637-11.3418L11.6637 0.000638372 3.78061 0.000638372 3.78061-24.6302 11.6637-24.6302 11.6637-20.5921C12.6692-22.2009 13.8276-23.3753 15.1387-24.1154 16.4579-24.8555 18.0345-25.2255 19.8686-25.2255 20.126-25.2255 20.4076-25.2134 20.7213-25.1933 21.031-25.1692 21.4774-25.1209 22.0566-25.0485Z" fill="#FFFFFF" transform="matrix(1 0 0 1.00109 384.984 711.893)"/><path d="M28.3787-12.3875 28.3787-10.1352 9.95758-10.1352C10.1506-8.28906 10.8143-6.90554 11.9525-5.98453 13.0988-5.05947 14.7036-4.60091 16.7628-4.60091 18.4119-4.60091 20.1091-4.84224 21.8466-5.32487 23.5842-5.81555 25.3699-6.56362 27.2039-7.56113L27.2039-1.49597C25.3458-0.788102 23.4876-0.257223 21.6214 0.0967649 19.7552 0.458743 17.893 0.643757 16.0388 0.643757 11.5744 0.643757 8.10743-0.486471 5.63024-2.75084 3.16077-5.02324 1.92994-8.2047 1.92994-12.291 1.92994-16.313 3.14059-19.4703 5.56578-21.7668 7.99911-24.0714 11.3414-25.2258 15.5886-25.2258 19.4578-25.2258 22.5587-24.0554 24.8875-21.7186 27.2122-19.3899 28.3785-16.2809 28.3785-12.3876ZM20.2864-14.9937C20.2864-16.4939 19.844-17.7005 18.9673-18.6135 18.0985-19.5345 16.9603-19.9971 15.5566-19.9971 14.0202-19.9971 12.7774-19.5668 11.8242-18.7101 10.879-17.8494 10.2878-16.6106 10.0545-14.9937Z" fill="#FFFFFF" transform="matrix(1 0 0 1.00109 407.198 711.893)"/><path d="M14.8174-11.085C13.1764-11.085 11.9417-10.8035 11.1172-10.2485 10.2886-9.68939 9.8784-8.86895 9.8784-7.78701 9.8784-6.78955 10.2082-6.00523 10.8759-5.43821 11.5395-4.87915 12.4686-4.60163 13.6591-4.60163 15.1392-4.60163 16.3819-5.13253 17.3915-6.19437 18.409-7.25613 18.9199-8.58343 18.9199-10.1842L18.9199-11.0851ZM26.8518-14.0613 26.8518-0.00061778 18.9204-0.00061778 18.9204-3.65262C17.8587-2.16048 16.6681-1.07051 15.3488-0.38673 14.0296 0.297049 12.4249 0.642903 10.5385 0.642903 7.98449 0.642903 5.90917-0.101172 4.31241-1.59336 2.72369-3.08149 1.93139-5.01205 1.93139-7.38504 1.93139-10.2809 2.9208-12.3965 4.90764-13.7398 6.90256-15.0912 10.0237-15.767 14.2709-15.767L18.9203-15.767 18.9203-16.3944C18.9203-17.6372 18.4256-18.5503 17.4402-19.1293 16.4629-19.7085 14.9305-19.9981 12.839-19.9981 11.1538-19.9981 9.58928-19.8251 8.14131-19.4833 6.69344-19.1494 5.34194-18.6467 4.08713-17.9709L4.08713-23.9717C5.78036-24.39 7.47369-24.6997 9.17094-24.9048 10.8762-25.118 12.5736-25.2266 14.2708-25.2266 18.7191-25.2266 21.9287-24.3458 23.8915-22.5882 25.8623-20.8386 26.8517-17.9951 26.8517-14.0616Z" fill="#FFFFFF" transform="matrix(1 0 0 1.00109 437.749 711.893)"/><path d="M12.3875-31.6293 12.3875-24.631 20.4959-24.631 20.4959-19.0001 12.3875-19.0001 12.3875-8.55862C12.3875-7.40831 12.6127-6.63207 13.0632-6.22588 13.5137-5.8277 14.4146-5.63063 15.766-5.63063L19.8202-5.63063 19.8202 0.000226519 13.0632 0.000226519C9.95022 0.000226519 7.74608-0.64732 6.45101-1.9464 5.15192-3.24147 4.50439-5.4455 4.50439-8.5586L4.50439-19.0001 0.594973-19.0001 0.594973-24.631 4.50439-24.631 4.50439-31.6293Z" fill="#FFFFFF" transform="matrix(1 0 0 1.00109 468.147 711.893)"/><path d="M28.3787-12.3875 28.3787-10.1352 9.95758-10.1352C10.1506-8.28906 10.8143-6.90554 11.9525-5.98453 13.0988-5.05947 14.7036-4.60091 16.7628-4.60091 18.4119-4.60091 20.1091-4.84224 21.8466-5.32487 23.5842-5.81555 25.3699-6.56362 27.2039-7.56113L27.2039-1.49597C25.3458-0.788102 23.4876-0.257223 21.6214 0.0967649 19.7552 0.458743 17.893 0.643757 16.0388 0.643757 11.5744 0.643757 8.10743-0.486471 5.63024-2.75084 3.16077-5.02324 1.92994-8.2047 1.92994-12.291 1.92994-16.313 3.14059-19.4703 5.56578-21.7668 7.99911-24.0714 11.3414-25.2258 15.5886-25.2258 19.4578-25.2258 22.5587-24.0554 24.8875-21.7186 27.2122-19.3899 28.3785-16.2809 28.3785-12.3876ZM20.2864-14.9937C20.2864-16.4939 19.844-17.7005 18.9673-18.6135 18.0985-19.5345 16.9603-19.9971 15.5566-19.9971 14.0202-19.9971 12.7774-19.5668 11.8242-18.7101 10.879-17.8494 10.2878-16.6106 10.0545-14.9937Z" fill="#FFFFFF" transform="matrix(1 0 0 1.00109 489.681 711.893)"/><path d="M20.5443-21.0272 20.5443-34.2188 28.4596-34.2188 28.4596 0 20.5443 0 20.5443-3.55542C19.4583-2.10756 18.2638-1.0457 16.9566-0.369947 15.6455 0.305749 14.1332 0.643603 12.4198 0.643603 9.38325 0.643603 6.88958-0.563024 4.93894-2.97617 2.99633-5.38943 2.02704-8.49439 2.02704-12.2912 2.02704-16.0879 2.99634-19.1929 4.93894-21.6061 6.88958-24.0194 9.38325-25.2259 12.4198-25.2259 14.1251-25.2259 15.6294-24.88 16.9405-24.1963 18.2597-23.5206 19.4583-22.4628 20.5443-21.027ZM15.3478-5.08433C17.041-5.08433 18.3281-5.6997 19.2089-6.93447 20.0978-8.16519 20.5443-9.95099 20.5443-12.2918 20.5443-14.6406 20.0978-16.4304 19.2089-17.6652 18.3281-18.8959 17.041-19.5154 15.3478-19.5154 13.6747-19.5154 12.3916-18.896 11.5027-17.6652 10.6219-16.4305 10.1836-14.6407 10.1836-12.2918 10.1836-9.95099 10.622-8.16519 11.5027-6.93447 12.3916-5.69974 13.6747-5.08433 15.3478-5.08433Z" fill="#FFFFFF" transform="matrix(1 0 0 1.00109 520.232 711.893)"/><path d="M16.8922-5.08381C18.5733-5.08381 19.8604-5.69918 20.7533-6.93396 21.6421-8.16468 22.0886-9.95047 22.0886-12.2912 22.0886-14.64 21.6422-16.4298 20.7533-17.6647 19.8604-18.8954 18.5733-19.5148 16.8922-19.5148 15.207-19.5148 13.9159-18.8914 13.015-17.6486 12.114-16.4139 11.6636-14.6281 11.6636-12.2913 11.6636-9.96262 12.114-8.17683 13.015-6.93406 13.9159-5.69933 15.207-5.08392 16.8922-5.08392ZM11.6636-21.0266C12.7455-22.4625 13.9481-23.5203 15.2673-24.196 16.5865-24.8797 18.1028-25.2256 19.8202-25.2256 22.8528-25.2256 25.3465-24.019 27.3011-21.6058 29.2518-19.1926 30.2292-16.0876 30.2292-12.2908 30.2292-8.49406 29.2518-5.3891 27.3011-2.97584 25.3465-0.562591 22.8528 0.643932 19.8202 0.643932 18.1028 0.643932 16.5866 0.298038 15.2673-0.3857 13.948-1.06944 12.7455-2.12722 11.6636-3.55501L11.6636 0.000411853 3.7805 0.000411853 3.7805-34.2184 11.6636-34.2184Z" fill="#FFFFFF" transform="matrix(1 0 0 1.00109 568.158 711.893)"/><path d="M0.546992-24.6309 8.43007-24.6309 15.0423-7.91582 20.6731-24.6309 28.5562-24.6309 18.196 2.33315C17.1544 5.07619 15.9357 6.99059 14.544 8.07654 13.1604 9.17053 11.3304 9.71757 9.05804 9.71757L4.50511 9.71757 4.50511 4.55335 6.96655 4.55335C8.30589 4.55335 9.27519 4.33615 9.87845 3.90982 10.4898 3.49154 10.9644 2.72739 11.3103 1.62528L11.5194 0.949579Z" fill="#FFFFFF" transform="matrix(1 0 0 1.00109 600.403 711.893)"/><path d="M30.1806-1.80186C28.6241-0.997457 26.9992-0.390128 25.3059 0.0160623 23.6207 0.434351 21.8671 0.6435 20.0451 0.6435 14.5752 0.6435 10.2355-0.884887 7.02951-3.94156 3.83198-6.99833 2.23533-11.149 2.23533-16.3939 2.23533-21.6389 3.83209-25.7893 7.02951-28.8463 10.2351-31.9031 14.5748-33.4314 20.0451-33.4314 21.867-33.4314 23.6207-33.2262 25.3059-32.82 26.9991-32.4098 28.6241-31.7984 30.1806-30.986L30.1806-24.1969C28.604-25.2667 27.0514-26.051 25.5312-26.5457 24.0068-27.0484 22.402-27.3018 20.7208-27.3018 17.6963-27.3018 15.3193-26.3285 13.5938-24.3899 11.8644-22.4593 11.0037-19.7928 11.0037-16.3942 11.0037-13.0036 11.8644-10.337 13.5938-8.39846 15.3193-6.4679 17.6963-5.50262 20.7208-5.50262 22.402-5.50262 24.0068-5.74796 25.5312-6.24266 27.0515-6.74541 28.604-7.53372 30.1806-8.60763Z" fill="#FFFFFF" transform="matrix(1 0 0 1.00109 645.449 711.893)"/><path d="M15.5083-19.5949C13.7588-19.5949 12.4234-18.9675 11.5024-17.7127 10.5894-16.4578 10.135-14.6479 10.135-12.291 10.135-9.93009 10.5895-8.12421 11.5024-6.8694 12.4235-5.61448 13.7588-4.98713 15.5083-4.98713 17.2217-4.98713 18.5329-5.61457 19.4338-6.8694 20.3428-8.12432 20.8013-9.93019 20.8013-12.291 20.8013-14.648 20.3428-16.4579 19.4338-17.7127 18.5329-18.9676 17.2217-19.5949 15.5083-19.5949ZM15.5083-25.2258C19.7435-25.2258 23.0536-24.0835 25.4346-21.7991 27.8156-19.5146 29.0062-16.3452 29.0062-12.291 29.0062-8.24489 27.8157-5.07557 25.4346-2.78299 23.0536-0.498445 19.7435 0.643726 15.5083 0.643726 11.249 0.643726 7.9188-0.498548 5.5177-2.78299 3.12463-5.07557 1.93005-8.24489 1.93005-12.291 1.93005-16.3452 3.12463-19.5145 5.5177-21.7991 7.9188-24.0836 11.249-25.2258 15.5083-25.2258Z" fill="#FFFFFF" transform="matrix(1 0 0 1.00109 678.51 711.893)"/><path d="M3.78071-34.2188 11.6638-34.2188 11.6638 0 3.78071 0Z" fill="#FFFFFF" transform="matrix(1 0 0 1.00109 709.459 711.893)"/><path d="M15.5083-19.5949C13.7588-19.5949 12.4234-18.9675 11.5024-17.7127 10.5894-16.4578 10.135-14.6479 10.135-12.291 10.135-9.93009 10.5895-8.12421 11.5024-6.8694 12.4235-5.61448 13.7588-4.98713 15.5083-4.98713 17.2217-4.98713 18.5329-5.61457 19.4338-6.8694 20.3428-8.12432 20.8013-9.93019 20.8013-12.291 20.8013-14.648 20.3428-16.4579 19.4338-17.7127 18.5329-18.9676 17.2217-19.5949 15.5083-19.5949ZM15.5083-25.2258C19.7435-25.2258 23.0536-24.0835 25.4346-21.7991 27.8156-19.5146 29.0062-16.3452 29.0062-12.291 29.0062-8.24489 27.8157-5.07557 25.4346-2.78299 23.0536-0.498445 19.7435 0.643726 15.5083 0.643726 11.249 0.643726 7.9188-0.498548 5.5177-2.78299 3.12463-5.07557 1.93005-8.24489 1.93005-12.291 1.93005-16.3452 3.12463-19.5145 5.5177-21.7991 7.9188-24.0836 11.249-25.2258 15.5083-25.2258Z" fill="#FFFFFF" transform="matrix(1 0 0 1.00109 724.9 711.893)"/><path d="M3.5233-9.58846 3.5233-24.6304 11.4386-24.6304 11.4386-22.1689C11.4386-20.8376 11.4265-19.1645 11.4064-17.1495 11.3944-15.1305 11.3903-13.7871 11.3903-13.1113 11.3903-11.1245 11.4386-9.70069 11.5351-8.83198 11.6397-7.96323 11.8247-7.32779 12.0821-6.93355 12.4039-6.41873 12.8222-6.02055 13.337-5.74309 13.8599-5.46154 14.4632-5.3248 15.1389-5.3248 16.7799-5.3248 18.067-5.95224 19-7.20707 19.9412-8.47002 20.4158-10.2236 20.4158-12.4679L20.4158-24.6299 28.2828-24.6299 28.2828 0.000978151 20.4158 0.000978151 20.4158-3.55445C19.2253-2.12666 17.9624-1.06881 16.6351-0.385134 15.3159 0.298604 13.8559 0.644499 12.2591 0.644499 9.40353 0.644499 7.23162-0.22828 5.74349-1.97787 4.2634-3.72341 3.5234-6.26135 3.5234-9.58748Z" fill="#FFFFFF" transform="matrix(1 0 0 1.00109 755.845 711.893)"/><path d="M22.0887-17.9218C21.3889-18.2435 20.6971-18.4768 20.0134-18.6297 19.3377-18.7905 18.654-18.871 17.9702-18.871 15.943-18.871 14.3825-18.2194 13.2885-16.9244 12.2026-15.6253 11.6637-13.7631 11.6637-11.3418L11.6637 0.000638372 3.78061 0.000638372 3.78061-24.6302 11.6637-24.6302 11.6637-20.5921C12.6692-22.2009 13.8276-23.3753 15.1387-24.1154 16.4579-24.8555 18.0345-25.2255 19.8686-25.2255 20.126-25.2255 20.4076-25.2134 20.7213-25.1933 21.031-25.1692 21.4774-25.1209 22.0566-25.0485Z" fill="#FFFFFF" transform="matrix(1 0 0 1.00109 787.917 711.893)"/><path d="M23.6816-23.8587 23.6816-17.4395C22.6198-18.1796 21.5459-18.7185 20.464-19.0644 19.39-19.4183 18.276-19.5953 17.1176-19.5953 14.9176-19.5953 13.2002-18.9518 11.9695-17.6647 10.7468-16.3857 10.1355-14.5959 10.1355-12.2913 10.1355-9.99467 10.7468-8.20486 11.9695-6.91781 13.2002-5.63077 14.9176-4.98725 17.1176-4.98725 18.3484-4.98725 19.5187-5.16824 20.6248-5.53425 21.7268-5.90829 22.7484-6.45528 23.6816-7.17527L23.6816-0.724007C22.4589-0.273543 21.2081 0.0643006 19.9331 0.289543 18.6661 0.522817 17.3952 0.643479 16.1202 0.643479 11.6799 0.643479 8.20494-0.498795 5.69521-2.78324 3.18548-5.06769 1.93066-8.2371 1.93066-12.2913 1.93066-16.3535 3.18558-19.5228 5.69521-21.7993 8.20494-24.0839 11.6799-25.226 16.1202-25.226 17.4073-25.226 18.6783-25.1134 19.9331-24.8882 21.1879-24.663 22.4348-24.3171 23.6816-23.8586Z" fill="#FFFFFF" transform="matrix(1 0 0 1.00109 810.13 711.893)"/><path d="M22.0887-17.9218C21.3889-18.2435 20.6971-18.4768 20.0134-18.6297 19.3377-18.7905 18.654-18.871 17.9702-18.871 15.943-18.871 14.3825-18.2194 13.2885-16.9244 12.2026-15.6253 11.6637-13.7631 11.6637-11.3418L11.6637 0.000638372 3.78061 0.000638372 3.78061-24.6302 11.6637-24.6302 11.6637-20.5921C12.6692-22.2009 13.8276-23.3753 15.1387-24.1154 16.4579-24.8555 18.0345-25.2255 19.8686-25.2255 20.126-25.2255 20.4076-25.2134 20.7213-25.1933 21.031-25.1692 21.4774-25.1209 22.0566-25.0485Z" fill="#FFFFFF" transform="matrix(1 0 0 1.00109 836.832 711.893)"/><path d="M28.3787-12.3875 28.3787-10.1352 9.95758-10.1352C10.1506-8.28906 10.8143-6.90554 11.9525-5.98453 13.0988-5.05947 14.7036-4.60091 16.7628-4.60091 18.4119-4.60091 20.1091-4.84224 21.8466-5.32487 23.5842-5.81555 25.3699-6.56362 27.2039-7.56113L27.2039-1.49597C25.3458-0.788102 23.4876-0.257223 21.6214 0.0967649 19.7552 0.458743 17.893 0.643757 16.0388 0.643757 11.5744 0.643757 8.10743-0.486471 5.63024-2.75084 3.16077-5.02324 1.92994-8.2047 1.92994-12.291 1.92994-16.313 3.14059-19.4703 5.56578-21.7668 7.99911-24.0714 11.3414-25.2258 15.5886-25.2258 19.4578-25.2258 22.5587-24.0554 24.8875-21.7186 27.2122-19.3899 28.3785-16.2809 28.3785-12.3876ZM20.2864-14.9937C20.2864-16.4939 19.844-17.7005 18.9673-18.6135 18.0985-19.5345 16.9603-19.9971 15.5566-19.9971 14.0202-19.9971 12.7774-19.5668 11.8242-18.7101 10.879-17.8494 10.2878-16.6106 10.0545-14.9937Z" fill="#FFFFFF" transform="matrix(1 0 0 1.00109 859.05 711.893)"/><path d="M14.8174-11.085C13.1764-11.085 11.9417-10.8035 11.1172-10.2485 10.2886-9.68939 9.8784-8.86895 9.8784-7.78701 9.8784-6.78955 10.2082-6.00523 10.8759-5.43821 11.5395-4.87915 12.4686-4.60163 13.6591-4.60163 15.1392-4.60163 16.3819-5.13253 17.3915-6.19437 18.409-7.25613 18.9199-8.58343 18.9199-10.1842L18.9199-11.0851ZM26.8518-14.0613 26.8518-0.00061778 18.9204-0.00061778 18.9204-3.65262C17.8587-2.16048 16.6681-1.07051 15.3488-0.38673 14.0296 0.297049 12.4249 0.642903 10.5385 0.642903 7.98449 0.642903 5.90917-0.101172 4.31241-1.59336 2.72369-3.08149 1.93139-5.01205 1.93139-7.38504 1.93139-10.2809 2.9208-12.3965 4.90764-13.7398 6.90256-15.0912 10.0237-15.767 14.2709-15.767L18.9203-15.767 18.9203-16.3944C18.9203-17.6372 18.4256-18.5503 17.4402-19.1293 16.4629-19.7085 14.9305-19.9981 12.839-19.9981 11.1538-19.9981 9.58928-19.8251 8.14131-19.4833 6.69344-19.1494 5.34194-18.6467 4.08713-17.9709L4.08713-23.9717C5.78036-24.39 7.47369-24.6997 9.17094-24.9048 10.8762-25.118 12.5736-25.2266 14.2708-25.2266 18.7191-25.2266 21.9287-24.3458 23.8915-22.5882 25.8623-20.8386 26.8517-17.9951 26.8517-14.0616Z" fill="#FFFFFF" transform="matrix(1 0 0 1.00109 889.601 711.893)"/><path d="M12.3875-31.6293 12.3875-24.631 20.4959-24.631 20.4959-19.0001 12.3875-19.0001 12.3875-8.55862C12.3875-7.40831 12.6127-6.63207 13.0632-6.22588 13.5137-5.8277 14.4146-5.63063 15.766-5.63063L19.8202-5.63063 19.8202 0.000226519 13.0632 0.000226519C9.95022 0.000226519 7.74608-0.64732 6.45101-1.9464 5.15192-3.24147 4.50439-5.4455 4.50439-8.5586L4.50439-19.0001 0.594973-19.0001 0.594973-24.631 4.50439-24.631 4.50439-31.6293Z" fill="#FFFFFF" transform="matrix(1 0 0 1.00109 919.995 711.893)"/><path d="M0.546992-24.6309 8.43007-24.6309 15.0423-7.91582 20.6731-24.6309 28.5562-24.6309 18.196 2.33315C17.1544 5.07619 15.9357 6.99059 14.544 8.07654 13.1604 9.17053 11.3304 9.71757 9.05804 9.71757L4.50511 9.71757 4.50511 4.55335 6.96655 4.55335C8.30589 4.55335 9.27519 4.33615 9.87845 3.90982 10.4898 3.49154 10.9644 2.72739 11.3103 1.62528L11.5194 0.949579Z" fill="#FFFFFF" transform="matrix(1 0 0 1.00109 941.529 711.893)"/><path d="M11.6637-3.55542 11.6637 9.36338 3.78061 9.36338 3.78061-24.631 11.6637-24.631 11.6637-21.0273C12.7456-22.4631 13.9482-23.5209 15.2674-24.1966 16.5866-24.8803 18.1029-25.2262 19.8203-25.2262 22.8529-25.2262 25.3466-24.0196 27.3012-21.6064 29.2519-19.1932 30.2293-16.0882 30.2293-12.2914 30.2293-8.49468 29.252-5.38972 27.3012-2.97646 25.3466-0.563209 22.8529 0.643315 19.8203 0.643315 18.1029 0.643315 16.5867 0.29742 15.2674-0.386318 13.9481-1.07006 12.7456-2.12784 11.6637-3.55563ZM16.8923-19.5147C15.2071-19.5147 13.916-18.8913 13.0151-17.6485 12.1141-16.4138 11.6637-14.628 11.6637-12.2912 11.6637-9.96252 12.1141-8.17673 13.0151-6.93396 13.916-5.69922 15.2071-5.08381 16.8923-5.08381 18.5734-5.08381 19.8605-5.69918 20.7534-6.93396 21.6422-8.16468 22.0887-9.95047 22.0887-12.2912 22.0887-14.64 21.6423-16.4298 20.7534-17.6647 19.8605-18.8954 18.5734-19.5148 16.8923-19.5148Z" fill="#FFFFFF" transform="matrix(1 0 0 1.00109 970.894 711.893)"/></g></svg>