<svg width="587" height="591" xmlns="http://www.w3.org/2000/svg" xmlns:xlink="http://www.w3.org/1999/xlink" overflow="hidden"><defs><clipPath id="clip0"><rect x="348" y="0" width="587" height="591"/></clipPath></defs><g clip-path="url(#clip0)" transform="translate(-348 0)"><path d="M359.681 276.235C404.18 276.235 440.248 240.162 440.248 195.665 440.248 151.17 404.179 115.098 359.681 115.098 315.184 115.098 279.115 151.171 279.115 195.665 279.115 240.163 315.184 276.235 359.681 276.235ZM359.681 299.253C302.469 299.253 256.093 252.876 256.093 195.665 256.093 138.457 302.47 92.0764 359.681 92.0764 416.892 92.0764 463.27 138.454 463.27 195.665 463.27 252.877 416.892 299.253 359.681 299.253Z" fill="#FFFFFF" transform="matrix(1 0 0 1.00028 280.15 -4.38398e-14)"/><path d="M181.279 478.572C181.279 484.926 176.129 490.08 169.771 490.08 163.416 490.08 158.262 484.926 158.262 478.572 158.262 395.95 224.911 328.944 307.16 328.944L412.217 328.944C494.462 328.944 561.115 395.951 561.115 478.572 561.115 484.926 555.961 490.08 549.607 490.08 543.248 490.08 538.098 484.926 538.098 478.572 538.098 408.634 481.728 351.964 412.22 351.964L307.162 351.964C237.654 351.964 181.284 408.634 181.284 478.572Z" fill="#FFFFFF" transform="matrix(1 0 0 1.00028 280.15 -4.38398e-14)"/><path d="M359.681 546.716C502.711 546.716 618.652 430.775 618.652 287.745 618.652 144.715 502.711 28.7745 359.681 28.7745 216.652 28.7745 100.711 144.715 100.711 287.745 100.711 430.775 216.652 546.716 359.681 546.716ZM359.681 569.733C203.939 569.733 77.6912 443.485 77.6912 287.743 77.6912 132.001 203.939 5.75285 359.681 5.75285 515.423 5.75285 641.672 132.001 641.672 287.743 641.672 443.485 515.423 569.733 359.681 569.733Z" fill="#FFFFFF" transform="matrix(1 0 0 1.00028 280.15 -4.38398e-14)"/><path d="M19.2851-1.15612C18.2895-0.642288 17.2498-0.256915 16.17 0 15.0982 0.264941 13.9742 0.401425 12.7981 0.401425 9.30568 0.401425 6.53983-0.570033 4.49653-2.52104 2.44922-4.47996 1.42958-7.12948 1.42958-10.4694 1.42958-13.8173 2.44921-16.4667 4.49653-18.4177 6.53983-20.3766 9.30568-21.3562 12.7981-21.3562 13.9742-21.3562 15.0983-21.2197 16.17-20.9548 17.2499-20.6979 18.2896-20.3125 19.2851-19.7987L19.2851-15.4632C18.2775-16.1376 17.286-16.6353 16.3145-16.9565 15.3391-17.2776 14.3114-17.4382 13.2315-17.4382 11.3047-17.4382 9.78724-16.816 8.68733-15.5756 7.58342-14.3432 7.03342-12.6411 7.03342-10.4693 7.03342-8.30557 7.58338-6.60355 8.68733-5.36307 9.78724-4.13069 11.3047-3.51646 13.2315-3.51646 14.3114-3.51646 15.3391-3.66901 16.3145-3.98211 17.286-4.30326 18.2776-4.80505 19.2851-5.49154Z" fill="#FFFFFF" transform="matrix(1 0 0 1.00028 352.086 661.999)"/><path d="M14.1139-11.4492C13.6643-11.6499 13.2187-11.8024 12.7811-11.8988 12.3516-12.0031 11.9181-12.0593 11.4805-12.0593 10.1839-12.0593 9.18832-11.6419 8.49393-10.8068 7.79544-9.97988 7.45023-8.79971 7.45023-7.25822L7.45023-0.000359681 2.42436-0.000359681 2.42436-15.7359 7.45023-15.7359 7.45023-13.1507C8.09252-14.1784 8.83121-14.9251 9.66608-15.3987 10.5091-15.8804 11.5167-16.1213 12.6848-16.1213 12.8534-16.1213 13.0381-16.1093 13.2308-16.0892 13.4315-16.0771 13.7205-16.049 14.0979-16.0089Z" fill="#FFFFFF" transform="matrix(1 0 0 1.00028 373.205 661.999)"/><path d="M18.129-7.91618 18.129-6.47108 6.35917-6.47108C6.48762-5.29091 6.91314-4.40774 7.64374-3.82167 8.37033-3.23156 9.39395-2.93851 10.7107-2.93851 11.7704-2.93851 12.8503-3.09106 13.9542-3.40417 15.0661-3.72531 16.2062-4.199 17.3744-4.83323L17.3744-0.963473C16.1862-0.513872 14.9979-0.176675 13.8096 0.0481356 12.6214 0.280963 11.4331 0.401394 10.2449 0.401394 7.39474 0.401394 5.1788-0.321175 3.59712-1.76635 2.02357-3.21145 1.23669-5.23872 1.23669-7.85206 1.23669-10.4212 2.01145-12.4364 3.56496-13.9056 5.11446-15.3829 7.24604-16.1214 9.95578-16.1214 12.4285-16.1214 14.4076-15.3708 15.8969-13.8734 17.3822-12.3841 18.1289-10.3971 18.1289-7.91619ZM12.9586-9.58613C12.9586-10.5375 12.6776-11.3043 12.1236-11.8823 11.5656-12.4684 10.8391-12.7655 9.93985-12.7655 8.96437-12.7655 8.1735-12.4925 7.56338-11.9466 6.95326-11.4006 6.57185-10.6138 6.42329-9.58613Z" fill="#FFFFFF" transform="matrix(1 0 0 1.00028 387.396 661.999)"/><path d="M9.4738-7.0812C8.42209-7.0812 7.63121-6.90457 7.09734-6.55132 6.57146-6.19806 6.31054-5.67219 6.31054-4.97776 6.31054-4.33548 6.52329-3.82966 6.95283-3.46834 7.37834-3.11508 7.96844-2.93845 8.71917-2.93845 9.67056-2.93845 10.4694-3.27565 11.1117-3.95006 11.762-4.63249 12.0912-5.48354 12.0912-6.50318L12.0912-7.08124ZM17.1492-8.976 17.1492 0 12.0912 0 12.0912-2.32827C11.4167-1.37286 10.6541-0.678359 9.81098-0.240884 8.96396 0.18463 7.93632 0.401404 6.72799 0.401404 5.09823 0.401404 3.77748-0.0682675 2.76184-1.01163 1.7422-1.96302 1.23638-3.19942 1.23638-4.72087 1.23638-6.55946 1.86662-7.90826 3.13118-8.76728 4.40373-9.63437 6.39883-10.0679 9.12049-10.0679L12.091-10.0679 12.091-10.4693C12.091-11.2601 11.7739-11.8382 11.1437-12.2035 10.5094-12.5768 9.52993-12.7655 8.20518-12.7655 7.1213-12.7655 6.11779-12.6571 5.18642-12.4444 4.26313-12.2276 3.40805-11.9064 2.61727-11.4809L2.61727-15.3186C3.68511-15.5755 4.76087-15.7722 5.84474-15.9127 6.93663-16.0492 8.02852-16.1215 9.12041-16.1215 11.9545-16.1215 14.0018-15.5595 15.2543-14.4355 16.5148-13.3196 17.1491-11.501 17.1491-8.97604Z" fill="#FFFFFF" transform="matrix(1 0 0 1.00028 406.909 661.999)"/><path d="M7.91618-20.1997 7.91618-15.7358 13.1027-15.7358 13.1027-12.1389 7.91618-12.1389 7.91618-5.45914C7.91618-4.72854 8.06069-4.23879 8.34973-3.98188 8.63877-3.72496 9.20879-3.59651 10.0679-3.59651L12.6531-3.59651 12.6531 0.000308298 8.34973 0.000308298C6.35863 0.000308298 4.9456-0.409153 4.11062-1.23607 3.28368-2.07105 2.87424-3.47606 2.87424-5.45914L2.87424-12.1389 0.385352-12.1389 0.385352-15.7358 2.87424-15.7358 2.87424-20.1997Z" fill="#FFFFFF" transform="matrix(1 0 0 1.00028 426.326 661.999)"/><path d="M18.129-7.91618 18.129-6.47108 6.35917-6.47108C6.48762-5.29091 6.91314-4.40774 7.64374-3.82167 8.37033-3.23156 9.39395-2.93851 10.7107-2.93851 11.7704-2.93851 12.8503-3.09106 13.9542-3.40417 15.0661-3.72531 16.2062-4.199 17.3744-4.83323L17.3744-0.963473C16.1862-0.513872 14.9979-0.176675 13.8096 0.0481356 12.6214 0.280963 11.4331 0.401394 10.2449 0.401394 7.39474 0.401394 5.1788-0.321175 3.59712-1.76635 2.02357-3.21145 1.23669-5.23872 1.23669-7.85206 1.23669-10.4212 2.01145-12.4364 3.56496-13.9056 5.11446-15.3829 7.24604-16.1214 9.95578-16.1214 12.4285-16.1214 14.4076-15.3708 15.8969-13.8734 17.3822-12.3841 18.1289-10.3971 18.1289-7.91619ZM12.9586-9.58613C12.9586-10.5375 12.6776-11.3043 12.1236-11.8823 11.5656-12.4684 10.8391-12.7655 9.93985-12.7655 8.96437-12.7655 8.1735-12.4925 7.56338-11.9466 6.95326-11.4006 6.57185-10.6138 6.42329-9.58613Z" fill="#FFFFFF" transform="matrix(1 0 0 1.00028 440.083 661.999)"/><path d="M13.1191-13.4398 13.1191-21.8698 18.1772-21.8698 18.1772-0.000102766 13.1191-0.000102766 13.1191-2.28028C12.4327-1.34896 11.674-0.666541 10.8389-0.240987 10.0039 0.184568 9.03252 0.401302 7.93262 0.401302 5.99373 0.401302 4.40404-0.369444 3.16365-1.91094 1.91926-3.45243 1.30102-5.4315 1.30102-7.85205 1.30102-10.2807 1.91922-12.2678 3.16365-13.8093 4.40404-15.3508 5.99373-16.1215 7.93262-16.1215 9.02451-16.1215 9.98794-15.9008 10.8229-15.4632 11.6659-15.0216 12.4326-14.3473 13.1191-13.4399ZM9.81129-3.2434C10.8791-3.2434 11.698-3.63279 12.268-4.41555 12.834-5.20637 13.119-6.35043 13.119-7.85184 13.119-9.34915 12.834-10.4892 12.268-11.272 11.698-12.0628 10.879-12.4602 9.81129-12.4602 8.73944-12.4602 7.92059-12.0628 7.35456-11.272 6.78453-10.4892 6.50353-9.34915 6.50353-7.85184 6.50353-6.35053 6.78454-5.20644 7.35456-4.41555 7.92057-3.63276 8.73954-3.2434 9.81129-3.2434Z" fill="#FFFFFF" transform="matrix(1 0 0 1.00028 459.597 661.999)"/><path d="M10.7904-3.2435C11.8703-3.2435 12.6933-3.63289 13.2632-4.41565 13.8292-5.20647 14.1142-6.35053 14.1142-7.85195 14.1142-9.34925 13.8292-10.4893 13.2632-11.2721 12.6932-12.0629 11.8702-12.4603 10.7904-12.4603 9.70657-12.4603 8.87961-12.0629 8.30155-11.2721 7.73152-10.4773 7.45052-9.33723 7.45052-7.85195 7.45052-6.36266 7.73153-5.22257 8.30155-4.43179 8.87961-3.63695 9.70657-3.24361 10.7904-3.24361ZM7.45054-13.4399C8.14502-14.3471 8.91177-15.0215 9.74675-15.4631 10.5898-15.9007 11.5612-16.1215 12.6531-16.1215 14.6-16.1215 16.1937-15.3507 17.4381-13.8092 18.6785-12.2677 19.3007-10.2806 19.3007-7.85197 19.3007-5.43131 18.6785-3.45235 17.4381-1.91085 16.1937-0.369362 14.6 0.401384 12.6531 0.401384 11.5612 0.401384 10.5897 0.184609 9.74675-0.240904 8.91177-0.678462 8.14504-1.35684 7.45054-2.28019L7.45054-2.05532e-05 2.42466-2.05532e-05 2.42466-21.8697 7.45054-21.8697Z" fill="#FFFFFF" transform="matrix(1 0 0 1.00028 490.214 661.999)"/><path d="M0.353258-15.7355 5.37914-15.7355 9.61824-5.05712 13.2151-15.7355 18.2409-15.7355 11.6254 1.49422C10.959 3.23641 10.1843 4.45676 9.2971 5.15526 8.40592 5.86178 7.24177 6.21499 5.79668 6.21499L2.87421 6.21499 2.87421 2.90715 4.44777 2.90715C5.30281 2.90715 5.92503 2.76665 6.3104 2.48966 6.7038 2.2207 7.0089 1.73899 7.22566 1.04457L7.37017 0.611016Z" fill="#FFFFFF" transform="matrix(1 0 0 1.00028 510.811 661.999)"/><path d="M0.14451-20.9705 19.4769-20.9705 19.4769-16.8919 12.5241-16.8919 12.5241 0.000822129 7.11287 0.000822129 7.11287-16.8919 0.144099-16.8919Z" fill="#FFFFFF" transform="matrix(1 0 0 1.00028 539.586 661.999)"/><path d="M9.4738-7.0812C8.42209-7.0812 7.63121-6.90457 7.09734-6.55132 6.57146-6.19806 6.31054-5.67219 6.31054-4.97776 6.31054-4.33548 6.52329-3.82966 6.95283-3.46834 7.37834-3.11508 7.96844-2.93845 8.71917-2.93845 9.67056-2.93845 10.4694-3.27565 11.1117-3.95006 11.762-4.63249 12.0912-5.48354 12.0912-6.50318L12.0912-7.08124ZM17.1492-8.976 17.1492 0 12.0912 0 12.0912-2.32827C11.4167-1.37286 10.6541-0.678359 9.81098-0.240884 8.96396 0.18463 7.93632 0.401404 6.72799 0.401404 5.09823 0.401404 3.77748-0.0682675 2.76184-1.01163 1.7422-1.96302 1.23638-3.19942 1.23638-4.72087 1.23638-6.55946 1.86662-7.90826 3.13118-8.76728 4.40373-9.63437 6.39883-10.0679 9.12049-10.0679L12.091-10.0679 12.091-10.4693C12.091-11.2601 11.7739-11.8382 11.1437-12.2035 10.5094-12.5768 9.52993-12.7655 8.20518-12.7655 7.1213-12.7655 6.11779-12.6571 5.18642-12.4444 4.26313-12.2276 3.40805-11.9064 2.61727-11.4809L2.61727-15.3186C3.68511-15.5755 4.76087-15.7722 5.84474-15.9127 6.93663-16.0492 8.02852-16.1215 9.12041-16.1215 11.9545-16.1215 14.0018-15.5595 15.2543-14.4355 16.5148-13.3196 17.1491-11.501 17.1491-8.97604Z" fill="#FFFFFF" transform="matrix(1 0 0 1.00028 559.212 661.999)"/><path d="M7.91618-20.1997 7.91618-15.7358 13.1027-15.7358 13.1027-12.1389 7.91618-12.1389 7.91618-5.45914C7.91618-4.72854 8.06069-4.23879 8.34973-3.98188 8.63877-3.72496 9.20879-3.59651 10.0679-3.59651L12.6531-3.59651 12.6531 0.000308298 8.34973 0.000308298C6.35863 0.000308298 4.9456-0.409153 4.11062-1.23607 3.28368-2.07105 2.87424-3.47606 2.87424-5.45914L2.87424-12.1389 0.385352-12.1389 0.385352-15.7358 2.87424-15.7358 2.87424-20.1997Z" fill="#FFFFFF" transform="matrix(1 0 0 1.00028 578.629 661.999)"/><path d="M0.353258-15.7355 5.37914-15.7355 9.61824-5.05712 13.2151-15.7355 18.2409-15.7355 11.6254 1.49422C10.959 3.23641 10.1843 4.45676 9.2971 5.15526 8.40592 5.86178 7.24177 6.21499 5.79668 6.21499L2.87421 6.21499 2.87421 2.90715 4.44777 2.90715C5.30281 2.90715 5.92503 2.76665 6.3104 2.48966 6.7038 2.2207 7.0089 1.73899 7.22566 1.04457L7.37017 0.611016Z" fill="#FFFFFF" transform="matrix(1 0 0 1.00028 592.382 661.999)"/><path d="M9.4738-7.0812C8.42209-7.0812 7.63121-6.90457 7.09734-6.55132 6.57146-6.19806 6.31054-5.67219 6.31054-4.97776 6.31054-4.33548 6.52329-3.82966 6.95283-3.46834 7.37834-3.11508 7.96844-2.93845 8.71917-2.93845 9.67056-2.93845 10.4694-3.27565 11.1117-3.95006 11.762-4.63249 12.0912-5.48354 12.0912-6.50318L12.0912-7.08124ZM17.1492-8.976 17.1492 0 12.0912 0 12.0912-2.32827C11.4167-1.37286 10.6541-0.678359 9.81098-0.240884 8.96396 0.18463 7.93632 0.401404 6.72799 0.401404 5.09823 0.401404 3.77748-0.0682675 2.76184-1.01163 1.7422-1.96302 1.23638-3.19942 1.23638-4.72087 1.23638-6.55946 1.86662-7.90826 3.13118-8.76728 4.40373-9.63437 6.39883-10.0679 9.12049-10.0679L12.091-10.0679 12.091-10.4693C12.091-11.2601 11.7739-11.8382 11.1437-12.2035 10.5094-12.5768 9.52993-12.7655 8.20518-12.7655 7.1213-12.7655 6.11779-12.6571 5.18642-12.4444 4.26313-12.2276 3.40805-11.9064 2.61727-11.4809L2.61727-15.3186C3.68511-15.5755 4.76087-15.7722 5.84474-15.9127 6.93663-16.0492 8.02852-16.1215 9.12041-16.1215 11.9545-16.1215 14.0018-15.5595 15.2543-14.4355 16.5148-13.3196 17.1491-11.501 17.1491-8.97604Z" fill="#FFFFFF" transform="matrix(1 0 0 1.00028 611.141 661.999)"/><path d="M18.241-9.58613 18.241 0 13.1829 0 13.1829-7.33812C13.1829-8.69494 13.1508-9.63432 13.0866-10.1482 13.0224-10.662 12.914-11.0393 12.7655-11.2882 12.5728-11.6094 12.3038-11.8583 11.9626-12.0429 11.6294-12.2236 11.248-12.3159 10.8225-12.3159 9.7708-12.3159 8.94784-11.9064 8.34975-11.0956 7.7476-10.2927 7.45054-9.1727 7.45054-7.73962L7.45054-0.000102766 2.42466-0.000102766 2.42466-15.7357 7.45054-15.7357 7.45054-13.4394C8.20924-14.3467 9.01207-15.0211 9.85917-15.4627 10.7142-15.9003 11.6576-16.121 12.6852-16.121 14.5037-16.121 15.8847-15.559 16.8279-14.4351 17.7673-13.3191 18.241-11.7054 18.241-9.58573Z" fill="#FFFFFF" transform="matrix(1 0 0 1.00028 630.558 661.999)"/><path d="M9.4738-7.0812C8.42209-7.0812 7.63121-6.90457 7.09734-6.55132 6.57146-6.19806 6.31054-5.67219 6.31054-4.97776 6.31054-4.33548 6.52329-3.82966 6.95283-3.46834 7.37834-3.11508 7.96844-2.93845 8.71917-2.93845 9.67056-2.93845 10.4694-3.27565 11.1117-3.95006 11.762-4.63249 12.0912-5.48354 12.0912-6.50318L12.0912-7.08124ZM17.1492-8.976 17.1492 0 12.0912 0 12.0912-2.32827C11.4167-1.37286 10.6541-0.678359 9.81098-0.240884 8.96396 0.18463 7.93632 0.401404 6.72799 0.401404 5.09823 0.401404 3.77748-0.0682675 2.76184-1.01163 1.7422-1.96302 1.23638-3.19942 1.23638-4.72087 1.23638-6.55946 1.86662-7.90826 3.13118-8.76728 4.40373-9.63437 6.39883-10.0679 9.12049-10.0679L12.091-10.0679 12.091-10.4693C12.091-11.2601 11.7739-11.8382 11.1437-12.2035 10.5094-12.5768 9.52993-12.7655 8.20518-12.7655 7.1213-12.7655 6.11779-12.6571 5.18642-12.4444 4.26313-12.2276 3.40805-11.9064 2.61727-11.4809L2.61727-15.3186C3.68511-15.5755 4.76087-15.7722 5.84474-15.9127 6.93663-16.0492 8.02852-16.1215 9.12041-16.1215 11.9545-16.1215 14.0018-15.5595 15.2543-14.4355 16.5148-13.3196 17.1491-11.501 17.1491-8.97604Z" fill="#FFFFFF" transform="matrix(1 0 0 1.00028 651.043 661.999)"/><path d="M2.64941-20.9705 8.04463-20.9705 8.04463-13.3272 15.8485-20.9705 22.1269-20.9705 12.0269-11.0472 23.1709 0.000205532 16.3947 0.000205532 8.04494-8.26928 8.04494 0.000205532 2.64972 0.000205532Z" fill="#FFFFFF" transform="matrix(1 0 0 1.00028 680.48 661.999)"/><path d="M0.353258-15.7355 5.37914-15.7355 9.61824-5.05712 13.2151-15.7355 18.2409-15.7355 11.6254 1.49422C10.959 3.23641 10.1843 4.45676 9.2971 5.15526 8.40592 5.86178 7.24177 6.21499 5.79668 6.21499L2.87421 6.21499 2.87421 2.90715 4.44777 2.90715C5.30281 2.90715 5.92503 2.76665 6.3104 2.48966 6.7038 2.2207 7.0089 1.73899 7.22566 1.04457L7.37017 0.611016Z" fill="#FFFFFF" transform="matrix(1 0 0 1.00028 702.775 661.999)"/><path d="M2.24801-6.1339 2.24801-15.7362 7.30605-15.7362 7.30605-14.1626C7.30605-13.3035 7.29802-12.2357 7.29-10.9512 7.27795-9.66659 7.27394-8.80757 7.27394-8.38201 7.27394-7.10545 7.30605-6.19022 7.37028-5.63621 7.44254-5.07822 7.55494-4.67679 7.70748-4.43189 7.92024-4.0987 8.19321-3.84179 8.5264-3.66115 8.85557-3.48853 9.23694-3.40423 9.66649-3.40423 10.7142-3.40423 11.5371-3.80566 12.1392-4.60855 12.7374-5.41141 13.0385-6.52739 13.0385-7.96448L13.0385-15.7362 18.0643-15.7362 18.0643-0.000616597 13.0385-0.000616597 13.0385-2.28079C12.2757-1.3575 11.4729-0.679078 10.6298-0.2415 9.7828 0.184013 8.84744 0.400788 7.81978 0.400788 6.00935 0.400788 4.62838-0.153183 3.67707-1.26916 2.72167-2.38109 2.24801-4.00295 2.24801-6.13452Z" fill="#FFFFFF" transform="matrix(1 0 0 1.00028 721.53 661.999)"/><path d="M2.42466-21.8697 7.45054-21.8697 7.45054 0 2.42466 0Z" fill="#FFFFFF" transform="matrix(1 0 0 1.00028 742.019 661.999)"/><path d="M12.7656-21.8697 12.7656-18.5618 9.98773-18.5618C9.28122-18.5618 8.78342-18.4334 8.49444-18.1764 8.21344-17.9195 8.07695-17.4699 8.07695-16.8276L8.07695-15.7358 12.3803-15.7358 12.3803-12.1389 8.07695-12.1389 8.07695-0.000205532 3.05107-0.000205532 3.05107-12.1389 0.54615-12.1389 0.54615-15.7358 3.05107-15.7358 3.05107-16.8276C3.05107-18.5378 3.52476-19.8062 4.48014-20.6332 5.43153-21.4561 6.91282-21.8696 8.92796-21.8696Z" fill="#FFFFFF" transform="matrix(1 0 0 1.00028 352.086 690.782)"/><path d="M14.1139-11.4492C13.6643-11.6499 13.2187-11.8024 12.7811-11.8988 12.3516-12.0031 11.9181-12.0593 11.4805-12.0593 10.1839-12.0593 9.18832-11.6419 8.49393-10.8068 7.79544-9.97988 7.45023-8.79971 7.45023-7.25822L7.45023-0.000359681 2.42436-0.000359681 2.42436-15.7359 7.45023-15.7359 7.45023-13.1507C8.09252-14.1784 8.83121-14.9251 9.66608-15.3987 10.5091-15.8804 11.5167-16.1213 12.6848-16.1213 12.8534-16.1213 13.0381-16.1093 13.2308-16.0892 13.4315-16.0771 13.7205-16.049 14.0979-16.0089Z" fill="#FFFFFF" transform="matrix(1 0 0 1.00028 364.607 690.782)"/><path d="M9.90727-12.5251C8.79133-12.5251 7.94022-12.1237 7.35415-11.3208 6.76404-10.518 6.471-9.36189 6.471-7.85246 6.471-6.34303 6.76404-5.18691 7.35415-4.3841 7.94023-3.58927 8.79123-3.19592 9.90727-3.19592 10.9992-3.19592 11.8341-3.58932 12.4122-4.3841 12.9983-5.18696 13.2953-6.34303 13.2953-7.85246 13.2953-9.36189 12.9983-10.518 12.4122-11.3208 11.8341-12.1237 10.9992-12.5251 9.90727-12.5251ZM9.90727-16.1219C12.6129-16.1219 14.7284-15.3873 16.2499-13.9221 17.7673-12.4649 18.5301-10.4418 18.5301-7.85256 18.5301-5.27139 17.7673-3.24813 16.2499-1.78299 14.7284-0.325769 12.6129 0.400788 9.90727 0.400788 7.18561 0.400788 5.06205-0.325799 3.53258-1.78299 1.99911-3.24823 1.23638-5.27139 1.23638-7.85256 1.23638-10.4418 1.9991-12.465 3.53258-13.9221 5.06205-15.3874 7.18561-16.1219 9.90727-16.1219Z" fill="#FFFFFF" transform="matrix(1 0 0 1.00028 378.797 690.782)"/><path d="M17.0047-13.1191C17.635-14.0906 18.3897-14.8373 19.2687-15.3511 20.1439-15.8649 21.1073-16.1218 22.159-16.1218 23.9655-16.1218 25.3424-15.5598 26.2857-14.4359 27.2371-13.3199 27.7148-11.7062 27.7148-9.58654L27.7148-0.000411064 22.6567-0.000411064 22.6567-8.20567 22.6567-8.57499C22.6648-8.71147 22.6728-8.90416 22.6728-9.15305 22.6728-10.265 22.5042-11.0679 22.175-11.5617 21.8539-12.0635 21.328-12.3164 20.6015-12.3164 19.6461-12.3164 18.9075-11.919 18.3856-11.1282 17.8597-10.3454 17.5908-9.20934 17.5828-7.72407L17.5828-0.00057549 12.5247-0.00057549 12.5247-8.20583C12.5247-9.94803 12.3722-11.0681 12.0751-11.5618 11.774-12.0635 11.2401-12.3165 10.4694-12.3165 9.50596-12.3165 8.75926-11.919 8.23742-11.1283 7.71154-10.3455 7.45062-9.21744 7.45062-7.74018L7.45062-0.000657703 2.39258-0.000657703 2.39258-15.7362 7.45062-15.7362 7.45062-13.44C8.06882-14.3272 8.77538-14.9975 9.57017-15.4471 10.373-15.8967 11.2562-16.1215 12.2196-16.1215 13.3115-16.1215 14.2749-15.8566 15.1099-15.3347 15.9449-14.8089 16.5751-14.0702 17.0047-13.1189Z" fill="#FFFFFF" transform="matrix(1 0 0 1.00028 398.564 690.782)"/><path d="M7.91618-20.1997 7.91618-15.7358 13.1027-15.7358 13.1027-12.1389 7.91618-12.1389 7.91618-5.45914C7.91618-4.72854 8.06069-4.23879 8.34973-3.98188 8.63877-3.72496 9.20879-3.59651 10.0679-3.59651L12.6531-3.59651 12.6531 0.000308298 8.34973 0.000308298C6.35863 0.000308298 4.9456-0.409153 4.11062-1.23607 3.28368-2.07105 2.87424-3.47606 2.87424-5.45914L2.87424-12.1389 0.385352-12.1389 0.385352-15.7358 2.87424-15.7358 2.87424-20.1997Z" fill="#FFFFFF" transform="matrix(1 0 0 1.00028 438.566 690.782)"/><path d="M18.241-9.58613 18.241 0 13.1829 0 13.1829-7.30605C13.1829-8.68703 13.1508-9.63432 13.0866-10.1482 13.0224-10.662 12.914-11.0393 12.7655-11.2882 12.5728-11.6094 12.3038-11.8583 11.9626-12.0429 11.6294-12.2236 11.248-12.3159 10.8225-12.3159 9.7708-12.3159 8.94784-11.9064 8.34975-11.0956 7.7476-10.2927 7.45054-9.1727 7.45054-7.73962L7.45054-0.000102766 2.42466-0.000102766 2.42466-21.8698 7.45054-21.8698 7.45054-13.4398C8.20924-14.347 9.01207-15.0214 9.85917-15.463 10.7142-15.9006 11.6576-16.1214 12.6852-16.1214 14.5037-16.1214 15.8847-15.5593 16.8279-14.4354 17.7673-13.3194 18.241-11.7057 18.241-9.58604Z" fill="#FFFFFF" transform="matrix(1 0 0 1.00028 452.319 690.782)"/><path d="M18.129-7.91618 18.129-6.47108 6.35917-6.47108C6.48762-5.29091 6.91314-4.40774 7.64374-3.82167 8.37033-3.23156 9.39395-2.93851 10.7107-2.93851 11.7704-2.93851 12.8503-3.09106 13.9542-3.40417 15.0661-3.72531 16.2062-4.199 17.3744-4.83323L17.3744-0.963473C16.1862-0.513872 14.9979-0.176675 13.8096 0.0481356 12.6214 0.280963 11.4331 0.401394 10.2449 0.401394 7.39474 0.401394 5.1788-0.321175 3.59712-1.76635 2.02357-3.21145 1.23669-5.23872 1.23669-7.85206 1.23669-10.4212 2.01145-12.4364 3.56496-13.9056 5.11446-15.3829 7.24604-16.1214 9.95578-16.1214 12.4285-16.1214 14.4076-15.3708 15.8969-13.8734 17.3822-12.3841 18.1289-10.3971 18.1289-7.91619ZM12.9586-9.58613C12.9586-10.5375 12.6776-11.3043 12.1236-11.8823 11.5656-12.4684 10.8391-12.7655 9.93985-12.7655 8.96437-12.7655 8.1735-12.4925 7.56338-11.9466 6.95326-11.4006 6.57185-10.6138 6.42329-9.58613Z" fill="#FFFFFF" transform="matrix(1 0 0 1.00028 472.804 690.782)"/><path d="M2.64941-20.9705 8.68692-20.9705 16.3141-6.5832 16.3141-20.9705 21.4364-20.9705 21.4364 0 15.3989 0 7.77169-14.3873 7.77169 0 2.64941 0Z" fill="#FFFFFF" transform="matrix(1 0 0 1.00028 502.337 690.782)"/><path d="M9.90727-12.5251C8.79133-12.5251 7.94022-12.1237 7.35415-11.3208 6.76404-10.518 6.471-9.36189 6.471-7.85246 6.471-6.34303 6.76404-5.18691 7.35415-4.3841 7.94023-3.58927 8.79123-3.19592 9.90727-3.19592 10.9992-3.19592 11.8341-3.58932 12.4122-4.3841 12.9983-5.18696 13.2953-6.34303 13.2953-7.85246 13.2953-9.36189 12.9983-10.518 12.4122-11.3208 11.8341-12.1237 10.9992-12.5251 9.90727-12.5251ZM9.90727-16.1219C12.6129-16.1219 14.7284-15.3873 16.2499-13.9221 17.7673-12.4649 18.5301-10.4418 18.5301-7.85256 18.5301-5.27139 17.7673-3.24813 16.2499-1.78299 14.7284-0.325769 12.6129 0.400788 9.90727 0.400788 7.18561 0.400788 5.06205-0.325799 3.53258-1.78299 1.99911-3.24823 1.23638-5.27139 1.23638-7.85256 1.23638-10.4418 1.9991-12.465 3.53258-13.9221 5.06205-15.3874 7.18561-16.1219 9.90727-16.1219Z" fill="#FFFFFF" transform="matrix(1 0 0 1.00028 526.419 690.782)"/><path d="M2.24801-6.1339 2.24801-15.7362 7.30605-15.7362 7.30605-14.1626C7.30605-13.3035 7.29802-12.2357 7.29-10.9512 7.27795-9.66659 7.27394-8.80757 7.27394-8.38201 7.27394-7.10545 7.30605-6.19022 7.37028-5.63621 7.44254-5.07822 7.55494-4.67679 7.70748-4.43189 7.92024-4.0987 8.19321-3.84179 8.5264-3.66115 8.85557-3.48853 9.23694-3.40423 9.66649-3.40423 10.7142-3.40423 11.5371-3.80566 12.1392-4.60855 12.7374-5.41141 13.0385-6.52739 13.0385-7.96448L13.0385-15.7362 18.0643-15.7362 18.0643-0.000616597 13.0385-0.000616597 13.0385-2.28079C12.2757-1.3575 11.4729-0.679078 10.6298-0.2415 9.7828 0.184013 8.84744 0.400788 7.81978 0.400788 6.00935 0.400788 4.62838-0.153183 3.67707-1.26916 2.72167-2.38109 2.24801-4.00295 2.24801-6.13452Z" fill="#FFFFFF" transform="matrix(1 0 0 1.00028 546.189 690.782)"/><path d="M18.241-9.58613 18.241 0 13.1829 0 13.1829-7.33812C13.1829-8.69494 13.1508-9.63432 13.0866-10.1482 13.0224-10.662 12.914-11.0393 12.7655-11.2882 12.5728-11.6094 12.3038-11.8583 11.9626-12.0429 11.6294-12.2236 11.248-12.3159 10.8225-12.3159 9.7708-12.3159 8.94784-11.9064 8.34975-11.0956 7.7476-10.2927 7.45054-9.1727 7.45054-7.73962L7.45054-0.000102766 2.42466-0.000102766 2.42466-15.7357 7.45054-15.7357 7.45054-13.4394C8.20924-14.3467 9.01207-15.0211 9.85917-15.4627 10.7142-15.9003 11.6576-16.121 12.6852-16.121 14.5037-16.121 15.8847-15.559 16.8279-14.4351 17.7673-13.3191 18.241-11.7054 18.241-9.58573Z" fill="#FFFFFF" transform="matrix(1 0 0 1.00028 566.674 690.782)"/><path d="M2.64941-20.9705 11.6254-20.9705C14.291-20.9705 16.3342-20.3763 17.7593-19.1881 19.1924-18.0079 19.911-16.3218 19.911-14.13 19.911-11.9342 19.1925-10.2442 17.7593-9.05595 16.3343-7.86777 14.291-7.27358 11.6254-7.27358L8.04463-7.27358 8.04463 0.000308298 2.64941 0.000308298ZM8.04463-17.0525 8.04463-11.1916 11.0474-11.1916C12.0951-11.1916 12.902-11.4486 13.472-11.9624 14.0501-12.4762 14.3391-13.1988 14.3391-14.1301 14.3391-15.0695 14.0501-15.7921 13.472-16.2979 12.902-16.7997 12.0952-17.0526 11.0474-17.0526Z" fill="#FFFFFF" transform="matrix(1 0 0 1.00028 597.175 690.782)"/><path d="M14.1139-11.4492C13.6643-11.6499 13.2187-11.8024 12.7811-11.8988 12.3516-12.0031 11.9181-12.0593 11.4805-12.0593 10.1839-12.0593 9.18832-11.6419 8.49393-10.8068 7.79544-9.97988 7.45023-8.79971 7.45023-7.25822L7.45023-0.000359681 2.42436-0.000359681 2.42436-15.7359 7.45023-15.7359 7.45023-13.1507C8.09252-14.1784 8.83121-14.9251 9.66608-15.3987 10.5091-15.8804 11.5167-16.1213 12.6848-16.1213 12.8534-16.1213 13.0381-16.1093 13.2308-16.0892 13.4315-16.0771 13.7205-16.049 14.0979-16.0089Z" fill="#FFFFFF" transform="matrix(1 0 0 1.00028 618.266 690.782)"/><path d="M9.90727-12.5251C8.79133-12.5251 7.94022-12.1237 7.35415-11.3208 6.76404-10.518 6.471-9.36189 6.471-7.85246 6.471-6.34303 6.76404-5.18691 7.35415-4.3841 7.94023-3.58927 8.79123-3.19592 9.90727-3.19592 10.9992-3.19592 11.8341-3.58932 12.4122-4.3841 12.9983-5.18696 13.2953-6.34303 13.2953-7.85246 13.2953-9.36189 12.9983-10.518 12.4122-11.3208 11.8341-12.1237 10.9992-12.5251 9.90727-12.5251ZM9.90727-16.1219C12.6129-16.1219 14.7284-15.3873 16.2499-13.9221 17.7673-12.4649 18.5301-10.4418 18.5301-7.85256 18.5301-5.27139 17.7673-3.24813 16.2499-1.78299 14.7284-0.325769 12.6129 0.400788 9.90727 0.400788 7.18561 0.400788 5.06205-0.325799 3.53258-1.78299 1.99911-3.24823 1.23638-5.27139 1.23638-7.85256 1.23638-10.4418 1.9991-12.465 3.53258-13.9221 5.06205-15.3874 7.18561-16.1219 9.90727-16.1219Z" fill="#FFFFFF" transform="matrix(1 0 0 1.00028 632.453 690.782)"/><path d="M2.42466-15.7355 7.45054-15.7355 7.45054-0.288773C7.45054 1.81875 6.94073 3.42848 5.92508 4.54442 4.91749 5.65635 3.45232 6.21437 1.52546 6.21437L-0.963432 6.21437-0.963432 2.90653-0.0802809 2.90653C0.871107 2.90653 1.52544 2.68976 1.87865 2.26425 2.23993 1.83471 2.42459 0.983677 2.42459-0.288876ZM2.42466-21.8694 7.45054-21.8694 7.45054-17.7588 2.42466-17.7588Z" fill="#FFFFFF" transform="matrix(1 0 0 1.00028 652.223 690.782)"/><path d="M18.129-7.91618 18.129-6.47108 6.35917-6.47108C6.48762-5.29091 6.91314-4.40774 7.64374-3.82167 8.37033-3.23156 9.39395-2.93851 10.7107-2.93851 11.7704-2.93851 12.8503-3.09106 13.9542-3.40417 15.0661-3.72531 16.2062-4.199 17.3744-4.83323L17.3744-0.963473C16.1862-0.513872 14.9979-0.176675 13.8096 0.0481356 12.6214 0.280963 11.4331 0.401394 10.2449 0.401394 7.39474 0.401394 5.1788-0.321175 3.59712-1.76635 2.02357-3.21145 1.23669-5.23872 1.23669-7.85206 1.23669-10.4212 2.01145-12.4364 3.56496-13.9056 5.11446-15.3829 7.24604-16.1214 9.95578-16.1214 12.4285-16.1214 14.4076-15.3708 15.8969-13.8734 17.3822-12.3841 18.1289-10.3971 18.1289-7.91619ZM12.9586-9.58613C12.9586-10.5375 12.6776-11.3043 12.1236-11.8823 11.5656-12.4684 10.8391-12.7655 9.93985-12.7655 8.96437-12.7655 8.1735-12.4925 7.56338-11.9466 6.95326-11.4006 6.57185-10.6138 6.42329-9.58613Z" fill="#FFFFFF" transform="matrix(1 0 0 1.00028 662.086 690.782)"/><path d="M15.1261-15.2382 15.1261-11.1435C14.4517-11.6132 13.7653-11.9625 13.0708-12.1872 12.3844-12.412 11.6738-12.5244 10.9352-12.5244 9.53022-12.5244 8.43432-12.111 7.64354-11.2881 6.86075-10.4732 6.47139-9.32913 6.47139-7.85176 6.47139-6.38252 6.86078-5.23842 7.64354-4.41547 8.43435-3.60056 9.53022-3.19512 10.9352-3.19512 11.714-3.19512 12.4607-3.30753 13.1672-3.53232 13.8737-3.76514 14.524-4.1144 15.1261-4.57601L15.1261-0.465366C14.3434-0.176336 13.5445 0.0364203 12.7336 0.176922 11.9308 0.32545 11.1159 0.401723 10.293 0.401723 7.45486 0.401723 5.23491-0.324864 3.62919-1.78206 2.03148-3.23527 1.23669-5.25843 1.23669-7.85163 1.23669-10.4528 2.03152-12.4801 3.62919-13.9373 5.23491-15.3906 7.45486-16.1211 10.293-16.1211 11.1159-16.1211 11.9308-16.0448 12.7336-15.8963 13.5365-15.7558 14.3314-15.535 15.1261-15.238Z" fill="#FFFFFF" transform="matrix(1 0 0 1.00028 681.604 690.782)"/><path d="M7.91618-20.1997 7.91618-15.7358 13.1027-15.7358 13.1027-12.1389 7.91618-12.1389 7.91618-5.45914C7.91618-4.72854 8.06069-4.23879 8.34973-3.98188 8.63877-3.72496 9.20879-3.59651 10.0679-3.59651L12.6531-3.59651 12.6531 0.000308298 8.34973 0.000308298C6.35863 0.000308298 4.9456-0.409153 4.11062-1.23607 3.28368-2.07105 2.87424-3.47606 2.87424-5.45914L2.87424-12.1389 0.385352-12.1389 0.385352-15.7358 2.87424-15.7358 2.87424-20.1997Z" fill="#FFFFFF" transform="matrix(1 0 0 1.00028 698.657 690.782)"/></g></svg>