<svg width="550" height="556" xmlns="http://www.w3.org/2000/svg" xmlns:xlink="http://www.w3.org/1999/xlink" overflow="hidden"><defs><clipPath id="clip0"><rect x="363" y="5" width="550" height="556"/></clipPath></defs><g clip-path="url(#clip0)" transform="translate(-363 -5)"><path d="M359.141 17.6566C508.53 17.6566 628.73 138.534 628.73 287.246 628.73 436.635 508.54 556.835 359.141 556.835 210.429 556.835 89.5515 436.646 89.5515 287.246 89.5515 138.534 210.429 17.6566 359.141 17.6566ZM418.901 319.157 501.067 401.324C505.822 405.4 505.822 412.189 501.067 416.943L488.843 429.167C484.089 433.922 477.301 433.922 473.224 429.167L391.057 347.001C346.916 378.238 285.802 373.484 247.101 334.776 203.643 290.635 203.643 219.332 247.101 175.198 291.242 131.74 362.545 131.74 406.679 175.198 445.388 213.907 450.137 275.021 418.904 319.154ZM269.511 197.602C237.596 229.517 237.596 280.447 269.511 312.358 301.427 344.274 352.356 344.274 384.267 312.358 416.183 280.442 416.183 229.513 384.267 197.602 352.352 165.686 301.423 165.686 269.511 197.602Z" fill="#FFFFFF" fill-rule="evenodd" transform="matrix(1.00163 0 0 1 279.731 0.391471)"/><path d="M2.2789-0.128386C2.15853-0.0722164 2.03817-0.0320964 1.90978 0 1.7814 0.0320964 1.64499 0.0481446 1.50858 0.0481446 1.09935 0.0481446 0.774381-0.0641979 0.529647-0.288862 0.292935-0.521559 0.176587-0.838517 0.176587-1.23571 0.176587-1.62889 0.292935-1.94183 0.529647-2.16651 0.774381-2.3992 1.09936-2.51957 1.50858-2.51957 1.64499-2.51957 1.7814-2.50352 1.90978-2.47142 2.03817-2.44735 2.15853-2.40723 2.2789-2.34304L2.2789-1.82949C2.15853-1.90171 2.04218-1.95788 1.92584-1.98998 1.80547-2.0301 1.68912-2.05417 1.57277-2.05417 1.33606-2.05417 1.15552-1.97794 1.02714-1.82949 0.89875-1.68907 0.834558-1.49249 0.834558-1.23572 0.834558-0.978945 0.89875-0.774329 1.02714-0.625885 1.15552-0.485462 1.33606-0.417263 1.57277-0.417263 1.68912-0.417263 1.80547-0.433312 1.92584-0.465408 2.04218-0.505529 2.15853-0.565709 2.2789-0.641943Z" fill="#FFFFFF" transform="matrix(1.00163 0 0 1 351.744 585.746)"/><path d="M1.66901-1.34805C1.61284-1.38015 1.56069-1.40021 1.50853-1.41224 1.45236-1.42027 1.40422-1.42829 1.3641-1.42829 1.20362-1.42829 1.07925-1.37212 0.994988-1.26781 0.918759-1.17152 0.882646-1.0311 0.882646-0.850555L0.882646-5.13542e-06 0.288868-5.13542e-06 0.288868-1.8616 0.882646-1.8616 0.882646-1.55668C0.954863-1.67302 1.04313-1.75728 1.13942-1.81345 1.24373-1.87764 1.36409-1.90974 1.49248-1.90974 1.51254-1.90974 1.5326-1.90171 1.55667-1.89369L1.66901-1.89369Z" fill="#FFFFFF" transform="matrix(1.00163 0 0 1 354.24 585.746)"/><path d="M2.15051-0.930795 2.15051-0.770314 0.754291-0.770314C0.762316-0.629891 0.810459-0.521564 0.89872-0.44935 0.982972-0.385157 1.10734-0.35306 1.26783-0.35306 1.39622-0.35306 1.5246-0.369109 1.65299-0.401205 1.78138-0.441326 1.91378-0.501506 2.05419-0.57774L2.05419-0.112348C1.91377-0.0561785 1.77334-0.0200703 1.63694-5.13542e-06 1.49651 0.0320913 1.35209 0.0481395 1.20363 0.0481395 0.870629 0.0481395 0.609852-0.0361133 0.417274-0.208632 0.232717-0.377135 0.144459-0.617863 0.144459-0.930795 0.144459-1.22768 0.232724-1.4644 0.417274-1.63692 0.597815-1.81746 0.85058-1.90973 1.17154-1.90973 1.46843-1.90973 1.70515-1.81745 1.87766-1.63692 2.05821-1.4644 2.15048-1.22768 2.15048-0.930795ZM1.52463-1.13942C1.52463-1.24373 1.49253-1.332 1.42834-1.39619 1.36414-1.46841 1.27588-1.50853 1.17156-1.50853 1.0512-1.50853 0.954911-1.47643 0.882697-1.41224 0.818504-1.34805 0.77437-1.25578 0.754312-1.13943Z" fill="#FFFFFF" transform="matrix(1.00163 0 0 1 355.916 585.746)"/><path d="M1.12343-0.834506C0.99504-0.834506 0.89875-0.810434 0.834558-0.770314 0.770365-0.726181 0.738268-0.666003 0.738268-0.593778 0.738268-0.517549 0.762341-0.457371 0.81851-0.417243 0.870666-0.37311 0.938874-0.35305 1.02713-0.35305 1.14348-0.35305 1.23977-0.389158 1.316-0.465393 1.38821-0.549645 1.42834-0.649949 1.42834-0.770314L1.42834-0.834506ZM2.02212-1.05918 2.02212-5.13542e-05 1.42835-5.13542e-05 1.42835-0.272866C1.35212-0.164539 1.25984-0.0843031 1.15553-0.0321375 1.05924 0.0200189 0.938879 0.0481035 0.802472 0.0481035 0.609893 0.0481035 0.449411-0.00405288 0.321026-0.112378 0.200662-0.228727 0.14449-0.377171 0.14449-0.561728 0.14449-0.774365 0.216708-0.930842 0.369165-1.02712 0.51761-1.13143 0.754322-1.1876 1.07529-1.1876L1.42835-1.1876 1.42835-1.23575C1.42835-1.33204 1.38823-1.40025 1.316-1.44437 1.23977-1.48449 1.12343-1.50856 0.962943-1.50856 0.842579-1.50856 0.726231-1.49251 0.609883-1.46042 0.501556-1.43635 0.401261-1.40425 0.304962-1.36413L0.304962-1.81348C0.433348-1.84557 0.561733-1.86563 0.690119-1.87767 0.818504-1.89773 0.94689-1.90977 1.07528-1.90977 1.4163-1.90977 1.65703-1.83755 1.79744-1.70115 1.94588-1.57276 2.02211-1.35611 2.02211-1.05922Z" fill="#FFFFFF" transform="matrix(1.00163 0 0 1 358.222 585.746)"/><path d="M0.930795-2.39116 0.930795-1.86157 1.54063-1.86157 1.54063-1.42826 0.930795-1.42826 0.930795-0.641907C0.930795-0.553642 0.946844-0.497479 0.97894-0.465372 1.01906-0.4413 1.09128-0.433276 1.18756-0.433276L1.49248-0.433276 1.49248 3.08125e-05 0.97894 3.08125e-05C0.754265 3.08125e-05 0.585762-0.0481138 0.481441-0.144398 0.385152-0.240687 0.337012-0.405185 0.337012-0.641897L0.337012-1.42825 0.0481446-1.42825 0.0481446-1.86156 0.337012-1.86156 0.337012-2.39115Z" fill="#FFFFFF" transform="matrix(1.00163 0 0 1 360.517 585.746)"/><path d="M2.15051-0.930795 2.15051-0.770314 0.754291-0.770314C0.762316-0.629891 0.810459-0.521564 0.89872-0.44935 0.982972-0.385157 1.10734-0.35306 1.26783-0.35306 1.39622-0.35306 1.5246-0.369109 1.65299-0.401205 1.78138-0.441326 1.91378-0.501506 2.05419-0.57774L2.05419-0.112348C1.91377-0.0561785 1.77334-0.0200703 1.63694-5.13542e-06 1.49651 0.0320913 1.35209 0.0481395 1.20363 0.0481395 0.870629 0.0481395 0.609852-0.0361133 0.417274-0.208632 0.232717-0.377135 0.144459-0.617863 0.144459-0.930795 0.144459-1.22768 0.232724-1.4644 0.417274-1.63692 0.597815-1.81746 0.85058-1.90973 1.17154-1.90973 1.46843-1.90973 1.70515-1.81745 1.87766-1.63692 2.05821-1.4644 2.15048-1.22768 2.15048-0.930795ZM1.52463-1.13942C1.52463-1.24373 1.49253-1.332 1.42834-1.39619 1.36414-1.46841 1.27588-1.50853 1.17156-1.50853 1.0512-1.50853 0.954911-1.47643 0.882697-1.41224 0.818504-1.34805 0.77437-1.25578 0.754312-1.13943Z" fill="#FFFFFF" transform="matrix(1.00163 0 0 1 362.144 585.746)"/><path d="M1.55665-1.5888 1.55665-2.58379 2.15043-2.58379 2.15043-5.13542e-05 1.55665-5.13542e-05 1.55665-0.272866C1.46838-0.164539 1.38011-0.0843031 1.28384-0.0321375 1.18756 0.0200282 1.06718 0.0481035 0.930775 0.0481035 0.7061 0.0481035 0.517538-0.0401621 0.369083-0.224711 0.22866-0.405252 0.160461-0.641964 0.160461-0.930831 0.160461-1.2197 0.228666-1.4524 0.369083-1.63695 0.517527-1.81749 0.70609-1.90977 0.930775-1.90977 1.05916-1.90977 1.1715-1.88168 1.26778-1.82953 1.37209-1.77336 1.46838-1.69312 1.55665-1.5888ZM1.15545-0.385157C1.28384-0.385157 1.38012-0.425277 1.44432-0.513542 1.51653-0.609832 1.55666-0.746239 1.55666-0.930795 1.55666-1.0993 1.51654-1.23572 1.44432-1.332 1.38012-1.42828 1.28384-1.47642 1.15545-1.47642 1.02706-1.47642 0.930775-1.42828 0.866582-1.332 0.802389-1.23571 0.770293-1.0993 0.770293-0.930795 0.770293-0.746239 0.802389-0.609832 0.866582-0.513542 0.930775-0.425277 1.02706-0.385157 1.15545-0.385157Z" fill="#FFFFFF" transform="matrix(1.00163 0 0 1 364.451 585.746)"/><path d="M1.28386-0.385157C1.4002-0.385157 1.49248-0.425277 1.55667-0.513542 1.62889-0.609832 1.66901-0.746239 1.66901-0.930795 1.66901-1.0993 1.62889-1.23572 1.55667-1.332 1.49248-1.42828 1.4002-1.47642 1.28386-1.47642 1.15547-1.47642 1.05116-1.42828 0.978935-1.332 0.914742-1.23571 0.882646-1.0993 0.882646-0.930795 0.882646-0.746239 0.914742-0.609832 0.978935-0.513542 1.05115-0.425277 1.15547-0.385157 1.28386-0.385157ZM0.882656-1.5888C0.966909-1.69311 1.05919-1.77335 1.15547-1.82953 1.25176-1.88168 1.36409-1.90977 1.49248-1.90977 1.72517-1.90977 1.91375-1.81749 2.05417-1.63695 2.20261-1.4524 2.27884-1.2197 2.27884-0.930831 2.27884-0.641964 2.20262-0.405252 2.05417-0.224711 1.91375-0.0401539 1.72518 0.0481035 1.49248 0.0481035 1.36409 0.0481035 1.25175 0.0200189 1.15547-0.0321375 1.05919-0.0842939 0.966908-0.164539 0.882656-0.272866L0.882656-5.13542e-05 0.288878-5.13542e-05 0.288878-2.58379 0.882656-2.58379Z" fill="#FFFFFF" transform="matrix(1.00163 0 0 1 368.068 585.746)"/><path d="M0.0481446-1.86159 0.641923-1.86159 1.13942-0.593758 1.55668-1.86159 2.15045-1.86159 1.38014 0.176556C1.29187 0.377156 1.19558 0.521595 1.09127 0.609862 0.994983 0.694115 0.858576 0.738248 0.690073 0.738248L0.337012 0.738248 0.337012 0.337048 0.529591 0.337048C0.62588 0.337048 0.694088 0.321 0.738212 0.288904 0.790368 0.256807 0.826478 0.200638 0.850555 0.128422L0.866603 0.0642287Z" fill="#FFFFFF" transform="matrix(1.00163 0 0 1 370.503 585.746)"/><path d="M1.81342-0.44935 0.818432-0.44935 0.65795 0 0.0160225 0 0.930765-2.4875 1.70108-2.4875 2.61582 0 1.97389 0ZM0.978914-0.914742 1.65294-0.914742 1.31593-1.89368Z" fill="#FFFFFF" transform="matrix(1.00163 0 0 1 373.903 585.746)"/><path d="M1.55665-1.5888 1.55665-2.58379 2.15043-2.58379 2.15043-5.13542e-05 1.55665-5.13542e-05 1.55665-0.272866C1.46838-0.164539 1.38011-0.0843031 1.28384-0.0321375 1.18756 0.0200282 1.06718 0.0481035 0.930775 0.0481035 0.7061 0.0481035 0.517538-0.0401621 0.369083-0.224711 0.22866-0.405252 0.160461-0.641964 0.160461-0.930831 0.160461-1.2197 0.228666-1.4524 0.369083-1.63695 0.517527-1.81749 0.70609-1.90977 0.930775-1.90977 1.05916-1.90977 1.1715-1.88168 1.26778-1.82953 1.37209-1.77336 1.46838-1.69312 1.55665-1.5888ZM1.15545-0.385157C1.28384-0.385157 1.38012-0.425277 1.44432-0.513542 1.51653-0.609832 1.55666-0.746239 1.55666-0.930795 1.55666-1.0993 1.51654-1.23572 1.44432-1.332 1.38012-1.42828 1.28384-1.47642 1.15545-1.47642 1.02706-1.47642 0.930775-1.42828 0.866582-1.332 0.802389-1.23571 0.770293-1.0993 0.770293-0.930795 0.770293-0.746239 0.802389-0.609832 0.866582-0.513542 0.930775-0.425277 1.02706-0.385157 1.15545-0.385157Z" fill="#FFFFFF" transform="matrix(1.00163 0 0 1 376.535 585.746)"/><path d="M0.288868-1.86159 0.882646-1.86159 0.882646 0 0.288868 0ZM0.288868-2.58375 0.882646-2.58375 0.882646-2.10231 0.288868-2.10231Z" fill="#FFFFFF" transform="matrix(1.00163 0 0 1 378.97 585.746)"/><path d="M2.03815-2.40728 2.03815-1.8777C1.89772-1.94189 1.76533-1.98201 1.63695-2.00608 1.50856-2.03818 1.38419-2.05423 1.26783-2.05423 1.11537-2.05423 1.00304-2.03015 0.930826-1.99003 0.854597-1.95794 0.818484-1.89374 0.818484-1.79745 0.818484-1.73326 0.842556-1.67709 0.898725-1.63697 0.950881-1.60488 1.04315-1.57679 1.17154-1.55673L1.44435-1.49254C1.70915-1.43637 1.90172-1.35212 2.02209-1.23577 2.13844-1.12744 2.19862-0.970975 2.19862-0.770375 2.19862-0.489529 2.11838-0.280908 1.9579-0.14449 1.79741-0.0161047 1.54866 0.0480881 1.21968 0.0480881 1.0592 0.0480881 0.898715 0.0320399 0.738233-5.64897e-05 0.577751-0.0321529 0.421284-0.0722729 0.27284-0.128442L0.27284-0.674081C0.421284-0.585815 0.569729-0.52162 0.722189-0.481502 0.870634-0.43737 1.01507-0.41731 1.1555-0.41731 1.2919-0.41731 1.40023-0.43737 1.47646-0.481502 1.54868-0.533659 1.5888-0.601867 1.5888-0.690124 1.5888-0.762341 1.56072-0.822525 1.50856-0.866659 1.45239-0.906779 1.3521-0.9469 1.20364-0.979002L0.962912-1.02715C0.714163-1.0793 0.533622-1.16355 0.417274-1.28392 0.29691-1.40027 0.240738-1.55673 0.240738-1.74931 0.240738-2.00608 0.320979-2.19866 0.481467-2.32705 0.641954-2.45543 0.870639-2.51962 1.17154-2.51962 1.30795-2.51962 1.44837-2.50759 1.5888-2.48753 1.73724-2.47549 1.88569-2.44741 2.03815-2.40729Z" fill="#FFFFFF" transform="matrix(1.00163 0 0 1 381.321 585.746)"/><path d="M1.50858-2.58373 1.50858-2.19858 1.18762-2.19858C1.09935-2.19858 1.04319-2.18253 1.01108-2.15043 0.978976-2.11834 0.962938-2.06217 0.962938-1.98995L0.962938-1.86157 1.46044-1.86157 1.46044-1.42826 0.962938-1.42826 0.962938 5.13542e-06 0.353107 5.13542e-06 0.353107-1.42826 0.064239-1.42826 0.064239-1.86157 0.353107-1.86157 0.353107-1.98995C0.353107-2.19055 0.409276-2.34301 0.529642-2.4393 0.64599-2.53559 0.822525-2.58373 1.05923-2.58373Z" fill="#FFFFFF" transform="matrix(1.00163 0 0 1 351.744 589.14)"/><path d="M1.66901-1.34805C1.61284-1.38015 1.56069-1.40021 1.50853-1.41224 1.45236-1.42027 1.40422-1.42829 1.3641-1.42829 1.20362-1.42829 1.07925-1.37212 0.994988-1.26781 0.918759-1.17152 0.882646-1.0311 0.882646-0.850555L0.882646-5.13542e-06 0.288868-5.13542e-06 0.288868-1.8616 0.882646-1.8616 0.882646-1.55668C0.954863-1.67302 1.04313-1.75728 1.13942-1.81345 1.24373-1.87764 1.36409-1.90974 1.49248-1.90974 1.51254-1.90974 1.5326-1.90171 1.55667-1.89369L1.66901-1.89369Z" fill="#FFFFFF" transform="matrix(1.00163 0 0 1 353.223 589.14)"/><path d="M1.17149-1.47643C1.04311-1.47643 0.938797-1.42829 0.866572-1.33201 0.802379-1.24374 0.770283-1.11135 0.770283-0.930806 0.770283-0.746249 0.802379-0.609842 0.866572-0.513553 0.938788-0.417263 1.04311-0.369124 1.17149-0.369124 1.29988-0.369124 1.39617-0.417269 1.46036-0.513553 1.53258-0.609842 1.5727-0.746249 1.5727-0.930806 1.5727-1.11135 1.53258-1.24375 1.46036-1.33201 1.39617-1.42829 1.29988-1.47643 1.17149-1.47643ZM1.17149-1.90974C1.49246-1.90974 1.74121-1.81746 1.92576-1.63693 2.1063-1.46441 2.19858-1.22769 2.19858-0.930806 2.19858-0.617863 2.1063-0.377145 1.92576-0.208642 1.74121-0.0361226 1.49246 0.0481292 1.17149 0.0481292 0.850529 0.0481292 0.597774-0.0361236 0.417222-0.208642 0.232665-0.377145 0.144408-0.617874 0.144408-0.930806 0.144408-1.22769 0.232673-1.46441 0.417222-1.63693 0.597763-1.81747 0.850529-1.90974 1.17149-1.90974Z" fill="#FFFFFF" transform="matrix(1.00163 0 0 1 354.903 589.14)"/><path d="M2.006-1.55665C2.07822-1.66096 2.1705-1.74923 2.27881-1.81342 2.38312-1.87761 2.49547-1.90971 2.61582-1.90971 2.82846-1.90971 2.98894-1.83749 3.09727-1.70109 3.21361-1.5727 3.2738-1.38414 3.2738-1.1394L3.2738 5.13542e-05 2.68002 5.13542e-05 2.68002-0.962841 2.68002-1.01099 2.68002-1.07518C2.68002-1.21159 2.65595-1.30787 2.61583-1.36405 2.58373-1.42824 2.52355-1.46033 2.4393-1.46033 2.31893-1.46033 2.23067-1.41219 2.16648-1.31591 2.11031-1.21962 2.07822-1.08321 2.07019-0.914706L2.07019 3.5948e-05 1.47641 3.5948e-05 1.47641-0.962856C1.47641-1.17549 1.46037-1.30789 1.42827-1.36406 1.39617-1.42825 1.33198-1.46034 1.23569-1.46034 1.11533-1.46034 1.02707-1.4122 0.962876-1.31592 0.906707-1.21963 0.882635-1.08322 0.882635-0.914717L0.882635 2.56771e-05 0.288857 2.56771e-05 0.288857-1.86157 0.882635-1.86157 0.882635-1.58875C0.954853-1.69306 1.0351-1.77331 1.12336-1.82948 1.21965-1.88164 1.32396-1.90972 1.44433-1.90972 1.57271-1.90972 1.68506-1.87762 1.78133-1.81343 1.87761-1.74924 1.94984-1.66097 2.00601-1.55666Z" fill="#FFFFFF" transform="matrix(1.00163 0 0 1 357.238 589.14)"/><path d="M0.930795-2.39116 0.930795-1.86157 1.54063-1.86157 1.54063-1.42826 0.930795-1.42826 0.930795-0.641907C0.930795-0.553642 0.946844-0.497479 0.97894-0.465372 1.01906-0.4413 1.09128-0.433276 1.18756-0.433276L1.49248-0.433276 1.49248 3.08125e-05 0.97894 3.08125e-05C0.754265 3.08125e-05 0.585762-0.0481138 0.481441-0.144398 0.385152-0.240687 0.337012-0.405185 0.337012-0.641897L0.337012-1.42825 0.0481446-1.42825 0.0481446-1.86156 0.337012-1.86156 0.337012-2.39115Z" fill="#FFFFFF" transform="matrix(1.00163 0 0 1 361.964 589.14)"/><path d="M2.15051-1.13945 2.15051 0 1.55673 0 1.55673-0.866603C1.55673-1.02708 1.54871-1.1314 1.54068-1.18757 1.54068-1.25176 1.52865-1.29991 1.50859-1.332 1.48451-1.37212 1.45242-1.40421 1.4123-1.42828 1.36817-1.44834 1.32403-1.46038 1.28391-1.46038 1.15553-1.46038 1.05122-1.41224 0.978991-1.31595 0.914799-1.21966 0.882702-1.08326 0.882702-0.914752L0.882702-1.02708e-05 0.288924-1.02708e-05 0.288924-2.58374 0.882702-2.58374 0.882702-1.58876C0.966955-1.69307 1.05924-1.77331 1.15552-1.82948 1.25983-1.88164 1.37217-1.90973 1.49252-1.90973 1.7172-1.90973 1.8817-1.83751 1.99002-1.7011 2.09433-1.57272 2.1505-1.38416 2.1505-1.13941Z" fill="#FFFFFF" transform="matrix(1.00163 0 0 1 363.591 589.14)"/><path d="M2.15051-0.930795 2.15051-0.770314 0.754291-0.770314C0.762316-0.629891 0.810459-0.521564 0.89872-0.44935 0.982972-0.385157 1.10734-0.35306 1.26783-0.35306 1.39622-0.35306 1.5246-0.369109 1.65299-0.401205 1.78138-0.441326 1.91378-0.501506 2.05419-0.57774L2.05419-0.112348C1.91377-0.0561785 1.77334-0.0200703 1.63694-5.13542e-06 1.49651 0.0320913 1.35209 0.0481395 1.20363 0.0481395 0.870629 0.0481395 0.609852-0.0361133 0.417274-0.208632 0.232717-0.377135 0.144459-0.617863 0.144459-0.930795 0.144459-1.22768 0.232724-1.4644 0.417274-1.63692 0.597815-1.81746 0.85058-1.90973 1.17154-1.90973 1.46843-1.90973 1.70515-1.81745 1.87766-1.63692 2.05821-1.4644 2.15048-1.22768 2.15048-0.930795ZM1.52463-1.13942C1.52463-1.24373 1.49253-1.332 1.42834-1.39619 1.36414-1.46841 1.27588-1.50853 1.17156-1.50853 1.0512-1.50853 0.954911-1.47643 0.882697-1.41224 0.818504-1.34805 0.77437-1.25578 0.754312-1.13943Z" fill="#FFFFFF" transform="matrix(1.00163 0 0 1 366.01 589.14)"/><path d="M0.304921-2.4875 1.02708-2.4875 1.92578-0.786439 1.92578-2.4875 2.53562-2.4875 2.53562 0 1.81345 0 0.914752-1.70106 0.914752 0 0.304921 0Z" fill="#FFFFFF" transform="matrix(1.00163 0 0 1 369.503 589.14)"/><path d="M1.17149-1.47643C1.04311-1.47643 0.938797-1.42829 0.866572-1.33201 0.802379-1.24374 0.770283-1.11135 0.770283-0.930806 0.770283-0.746249 0.802379-0.609842 0.866572-0.513553 0.938788-0.417263 1.04311-0.369124 1.17149-0.369124 1.29988-0.369124 1.39617-0.417269 1.46036-0.513553 1.53258-0.609842 1.5727-0.746249 1.5727-0.930806 1.5727-1.11135 1.53258-1.24375 1.46036-1.33201 1.39617-1.42829 1.29988-1.47643 1.17149-1.47643ZM1.17149-1.90974C1.49246-1.90974 1.74121-1.81746 1.92576-1.63693 2.1063-1.46441 2.19858-1.22769 2.19858-0.930806 2.19858-0.617863 2.1063-0.377145 1.92576-0.208642 1.74121-0.0361226 1.49246 0.0481292 1.17149 0.0481292 0.850529 0.0481292 0.597774-0.0361236 0.417222-0.208642 0.232665-0.377145 0.144408-0.617874 0.144408-0.930806 0.144408-1.22769 0.232673-1.46441 0.417222-1.63693 0.597763-1.81747 0.850529-1.90974 1.17149-1.90974Z" fill="#FFFFFF" transform="matrix(1.00163 0 0 1 372.348 589.14)"/><path d="M0.272814-0.722164 0.272814-1.86161 0.866592-1.86161 0.866592-1.66903 0.866592-1.28388 0.866592-0.995009 0.866592-0.658002C0.874616-0.593809 0.890665-0.549675 0.914737-0.529616 0.934797-0.485483 0.962882-0.453387 0.994978-0.433327 1.0351-0.409255 1.08324-0.401231 1.13941-0.401231 1.26779-0.401231 1.36408-0.449375 1.42827-0.545659 1.50049-0.641949 1.54062-0.77435 1.54062-0.946859L1.54062-1.8616 2.13439-1.8616 2.13439-1.02708e-05 1.54062-1.02708e-05 1.54062-0.272825C1.45235-0.164498 1.35606-0.084262 1.25175-0.0320964 1.15546 0.02006 1.04713 0.0481446 0.930785 0.0481446 0.714132 0.0481446 0.549644-0.0160482 0.433286-0.144434 0.324959-0.280841 0.272804-0.473419 0.272804-0.722169Z" fill="#FFFFFF" transform="matrix(1.00163 0 0 1 374.686 589.14)"/><path d="M2.15051-1.13945 2.15051 0 1.55673 0 1.55673-0.866603C1.55673-1.02708 1.54871-1.1314 1.54068-1.18757 1.54068-1.25176 1.52865-1.29991 1.50859-1.332 1.48451-1.37212 1.45242-1.40421 1.4123-1.42828 1.36817-1.44834 1.32403-1.46038 1.28391-1.46038 1.15553-1.46038 1.05122-1.41224 0.978991-1.31595 0.914799-1.21966 0.882702-1.08326 0.882702-0.914752L0.882702-1.02708e-05 0.288924-1.02708e-05 0.288924-1.8616 0.882702-1.8616 0.882702-1.58879C0.966955-1.6931 1.05924-1.77334 1.15552-1.82952 1.25983-1.88167 1.37217-1.90976 1.49252-1.90976 1.7172-1.90976 1.8817-1.83754 1.99002-1.70113 2.09433-1.57275 2.1505-1.38419 2.1505-1.13944Z" fill="#FFFFFF" transform="matrix(1.00163 0 0 1 377.106 589.14)"/><path d="M0.304921-2.4875 1.38018-2.4875C1.6891-2.4875 1.92983-2.41127 2.10234-2.26282 2.27084-2.1224 2.35911-1.92581 2.35911-1.66904 2.35911-1.41227 2.27085-1.21167 2.10234-1.07527 1.92982-0.934842 1.6891-0.866644 1.38018-0.866644L0.946869-0.866644 0.946869-4.10834e-05 0.304941-4.10834e-05ZM0.946849-2.0221 0.946849-1.33203 1.29991-1.33203C1.42829-1.33203 1.52458-1.3561 1.58878-1.41227 1.66099-1.47646 1.70112-1.56071 1.70112-1.66904 1.70112-1.77335 1.661-1.86162 1.58878-1.92581 1.52458-1.99 1.42829-2.0221 1.29991-2.0221Z" fill="#FFFFFF" transform="matrix(1.00163 0 0 1 380.71 589.14)"/><path d="M1.66901-1.34805C1.61284-1.38015 1.56069-1.40021 1.50853-1.41224 1.45236-1.42027 1.40422-1.42829 1.3641-1.42829 1.20362-1.42829 1.07925-1.37212 0.994988-1.26781 0.918759-1.17152 0.882646-1.0311 0.882646-0.850555L0.882646-5.13542e-06 0.288868-5.13542e-06 0.288868-1.8616 0.882646-1.8616 0.882646-1.55668C0.954863-1.67302 1.04313-1.75728 1.13942-1.81345 1.24373-1.87764 1.36409-1.90974 1.49248-1.90974 1.51254-1.90974 1.5326-1.90171 1.55667-1.89369L1.66901-1.89369Z" fill="#FFFFFF" transform="matrix(1.00163 0 0 1 383.206 589.14)"/><path d="M1.17149-1.47643C1.04311-1.47643 0.938797-1.42829 0.866572-1.33201 0.802379-1.24374 0.770283-1.11135 0.770283-0.930806 0.770283-0.746249 0.802379-0.609842 0.866572-0.513553 0.938788-0.417263 1.04311-0.369124 1.17149-0.369124 1.29988-0.369124 1.39617-0.417269 1.46036-0.513553 1.53258-0.609842 1.5727-0.746249 1.5727-0.930806 1.5727-1.11135 1.53258-1.24375 1.46036-1.33201 1.39617-1.42829 1.29988-1.47643 1.17149-1.47643ZM1.17149-1.90974C1.49246-1.90974 1.74121-1.81746 1.92576-1.63693 2.1063-1.46441 2.19858-1.22769 2.19858-0.930806 2.19858-0.617863 2.1063-0.377145 1.92576-0.208642 1.74121-0.0361226 1.49246 0.0481292 1.17149 0.0481292 0.850529 0.0481292 0.597774-0.0361236 0.417222-0.208642 0.232665-0.377145 0.144408-0.617874 0.144408-0.930806 0.144408-1.22769 0.232673-1.46441 0.417222-1.63693 0.597763-1.81747 0.850529-1.90974 1.17149-1.90974Z" fill="#FFFFFF" transform="matrix(1.00163 0 0 1 384.882 589.14)"/><path d="M0.288868-1.86159 0.882646-1.86159 0.882646-0.0321478C0.882646 0.212586 0.822465 0.401159 0.70611 0.529544 0.585746 0.665951 0.409221 0.738166 0.176525 0.738166L-0.112343 0.738166-0.112343 0.336966-0.0160533 0.336966C0.100295 0.336966 0.180541 0.308881 0.224675 0.256725 0.264795 0.212592 0.288868 0.116302 0.288868-0.0321426ZM0.288868-2.58375 0.882646-2.58375 0.882646-2.10231 0.288868-2.10231Z" fill="#FFFFFF" transform="matrix(1.00163 0 0 1 387.216 589.14)"/><path d="M2.15051-0.930795 2.15051-0.770314 0.754291-0.770314C0.762316-0.629891 0.810459-0.521564 0.89872-0.44935 0.982972-0.385157 1.10734-0.35306 1.26783-0.35306 1.39622-0.35306 1.5246-0.369109 1.65299-0.401205 1.78138-0.441326 1.91378-0.501506 2.05419-0.57774L2.05419-0.112348C1.91377-0.0561785 1.77334-0.0200703 1.63694-5.13542e-06 1.49651 0.0320913 1.35209 0.0481395 1.20363 0.0481395 0.870629 0.0481395 0.609852-0.0361133 0.417274-0.208632 0.232717-0.377135 0.144459-0.617863 0.144459-0.930795 0.144459-1.22768 0.232724-1.4644 0.417274-1.63692 0.597815-1.81746 0.85058-1.90973 1.17154-1.90973 1.46843-1.90973 1.70515-1.81745 1.87766-1.63692 2.05821-1.4644 2.15048-1.22768 2.15048-0.930795ZM1.52463-1.13942C1.52463-1.24373 1.49253-1.332 1.42834-1.39619 1.36414-1.46841 1.27588-1.50853 1.17156-1.50853 1.0512-1.50853 0.954911-1.47643 0.882697-1.41224 0.818504-1.34805 0.77437-1.25578 0.754312-1.13943Z" fill="#FFFFFF" transform="matrix(1.00163 0 0 1 388.382 589.14)"/><path d="M1.78138-1.7974 1.78138-1.31595C1.70515-1.36811 1.62491-1.40422 1.54065-1.42829 1.46442-1.46039 1.38418-1.47644 1.29992-1.47644 1.1274-1.47644 0.994999-1.42829 0.89872-1.33201 0.810454-1.23572 0.770334-1.09931 0.770334-0.930811 0.770334-0.758292 0.810454-0.617868 0.89872-0.513558 0.995009-0.417269 1.12741-0.369129 1.29992-0.369129 1.38417-0.369129 1.46842-0.385177 1.55669-0.417274 1.64094-0.44937 1.71717-0.48949 1.78137-0.545659L1.78137-0.04816C1.6931-0.0160636 1.60483 0.00399639 1.50855 0.0160328 1.41226 0.0360928 1.31597 0.0481292 1.21968 0.0481292 0.886682 0.0481292 0.625905-0.0361236 0.433327-0.208642 0.240749-0.377145 0.144459-0.617874 0.144459-0.930806 0.144459-1.23973 0.240749-1.48046 0.433327-1.65297 0.625905-1.82147 0.886692-1.90974 1.21968-1.90974 1.31597-1.90974 1.41226-1.8977 1.50855-1.87764 1.60484-1.86561 1.69311-1.83752 1.78137-1.7974Z" fill="#FFFFFF" transform="matrix(1.00163 0 0 1 390.688 589.14)"/><path d="M0.930795-2.39116 0.930795-1.86157 1.54063-1.86157 1.54063-1.42826 0.930795-1.42826 0.930795-0.641907C0.930795-0.553642 0.946844-0.497479 0.97894-0.465372 1.01906-0.4413 1.09128-0.433276 1.18756-0.433276L1.49248-0.433276 1.49248 3.08125e-05 0.97894 3.08125e-05C0.754265 3.08125e-05 0.585762-0.0481138 0.481441-0.144398 0.385152-0.240687 0.337012-0.405185 0.337012-0.641897L0.337012-1.42825 0.0481446-1.42825 0.0481446-1.86156 0.337012-1.86156 0.337012-2.39115Z" fill="#FFFFFF" transform="matrix(1.00163 0 0 1 392.706 589.14)"/></g></svg>