<svg width="192" height="151" xmlns="http://www.w3.org/2000/svg" xmlns:xlink="http://www.w3.org/1999/xlink" overflow="hidden"><defs><clipPath id="clip0"><rect x="280" y="88" width="192" height="151"/></clipPath></defs><g clip-path="url(#clip0)" transform="translate(-280 -88)"><path d="M95.9095 4.71525C135.804 4.71525 167.904 36.9959 167.904 76.7098 167.904 116.605 135.807 148.704 95.9095 148.704 56.1957 148.704 23.915 116.607 23.915 76.7098 23.915 36.9959 56.1957 4.71525 95.9095 4.71525ZM111.869 85.2318 133.811 107.175C135.081 108.263 135.081 110.076 133.811 111.346L130.547 114.61C129.277 115.88 127.464 115.88 126.376 114.61L104.433 92.6674C92.6449 101.01 76.3241 99.7399 65.989 89.4029 54.3834 77.6149 54.3834 58.5732 65.989 46.7871 77.777 35.1815 96.8187 35.1815 108.605 46.7871 118.942 57.1244 120.21 73.4452 111.869 85.231ZM71.9737 52.7701C63.4505 61.2933 63.4505 74.894 71.9737 83.416 80.4968 91.9392 94.0975 91.9392 102.62 83.416 111.143 74.8929 111.143 61.2922 102.62 52.7701 94.0965 44.2469 80.4957 44.2469 71.9737 52.7701Z" fill="#002060" fill-rule="evenodd" transform="matrix(1 0 0 1.00449 280 88)"/><path d="M0.608585-0.0342857C0.576442-0.0192856 0.544298-0.00857143 0.510012 0 0.475727 0.00857143 0.439299 0.0128571 0.402871 0.0128571 0.293584 0.0128571 0.2068-0.0171442 0.141444-0.0771415 0.078229-0.139284 0.0471579-0.223928 0.0471579-0.33 0.0471579-0.434999 0.078229-0.518571 0.141444-0.578571 0.2068-0.640714 0.293587-0.672857 0.402871-0.672857 0.439299-0.672857 0.475727-0.668571 0.510012-0.66 0.544298-0.653571 0.576442-0.642857 0.608585-0.625714L0.608585-0.488571C0.576442-0.507857 0.545371-0.522857 0.514299-0.531429 0.482156-0.542143 0.451085-0.548571 0.420014-0.548571 0.356799-0.548571 0.308585-0.528214 0.274299-0.488571 0.240014-0.451071 0.222871-0.398573 0.222871-0.330001 0.222871-0.26143 0.240014-0.206787 0.274299-0.167144 0.308585-0.129644 0.356799-0.111431 0.420014-0.111431 0.451085-0.111431 0.482156-0.115717 0.514299-0.124288 0.545371-0.135003 0.576442-0.151074 0.608585-0.171433Z" fill="#002060" transform="matrix(1 0 0 1.00449 299.2 245.023)"/><path d="M0.445714-0.36C0.430714-0.368571 0.416785-0.373928 0.402857-0.377143 0.387857-0.379286 0.375001-0.381429 0.364287-0.381429 0.32143-0.381429 0.288217-0.366429 0.265714-0.338571 0.245357-0.312857 0.235713-0.275357 0.235713-0.227143L0.235713-1.37143e-06 0.0771429-1.37143e-06 0.0771429-0.497144 0.235713-0.497144 0.235713-0.415714C0.254999-0.446785 0.27857-0.469285 0.304284-0.484286 0.332141-0.501429 0.364284-0.51 0.39857-0.51 0.403927-0.51 0.409284-0.507857 0.415713-0.505714L0.445714-0.505714Z" fill="#002060" transform="matrix(1 0 0 1.00449 299.865 245.023)"/><path d="M0.574299-0.248571 0.574299-0.205714 0.201435-0.205714C0.203578-0.168214 0.216435-0.139285 0.240005-0.12 0.262505-0.102857 0.295718-0.0942857 0.338578-0.0942857 0.372864-0.0942857 0.40715-0.0985714 0.441435-0.107143 0.475721-0.117857 0.511079-0.133929 0.548577-0.154287L0.548577-0.0300027C0.511077-0.0150026 0.473576-0.00535982 0.437148-1.37143e-06 0.399648 0.00857006 0.361078 0.0128558 0.321433 0.0128558 0.232504 0.0128558 0.162863-0.00964416 0.111434-0.0557157 0.0621477-0.100715 0.0385783-0.165002 0.0385783-0.248571 0.0385783-0.327856 0.0621496-0.391071 0.111434-0.437143 0.159648-0.485357 0.22715-0.509999 0.312864-0.509999 0.392149-0.509999 0.455364-0.485356 0.501435-0.437143 0.549649-0.391071 0.574291-0.327856 0.574291-0.248571ZM0.407155-0.304284C0.407155-0.332141 0.398584-0.355713 0.381441-0.372856 0.364298-0.392142 0.340726-0.402857 0.312869-0.402857 0.280726-0.402857 0.255012-0.394286 0.235727-0.377143 0.218584-0.36 0.206798-0.335358 0.201441-0.304287Z" fill="#002060" transform="matrix(1 0 0 1.00449 300.312 245.023)"/><path d="M0.300014-0.222857C0.265728-0.222857 0.240014-0.216428 0.222871-0.205714 0.205728-0.193928 0.197157-0.177858 0.197157-0.15857 0.197157-0.138213 0.203585-0.122142 0.218585-0.111426 0.232514-0.09964 0.250729-0.094283 0.274298-0.094283 0.305369-0.094283 0.331083-0.103926 0.351441-0.124284 0.370726-0.146784 0.381442-0.173571 0.381442-0.205714L0.381442-0.222857ZM0.540014-0.282857 0.540014-1.37143e-05 0.381444-1.37143e-05 0.381444-0.0728695C0.361086-0.0439406 0.336444-0.0225134 0.308588-0.0085824 0.282874 0.0053461 0.25073 0.0128462 0.214302 0.0128462 0.162874 0.0128462 0.120016-0.00108233 0.0857307-0.030011 0.0535872-0.0610821 0.0385865-0.100725 0.0385865-0.150011 0.0385865-0.206796 0.0578724-0.248584 0.0985865-0.274295 0.138229-0.302152 0.201444-0.317152 0.287158-0.317152L0.381444-0.317152 0.381444-0.33001C0.381444-0.355724 0.370729-0.373939 0.351442-0.385723 0.331085-0.396437 0.300014-0.402865 0.257157-0.402865 0.225013-0.402865 0.193942-0.39858 0.162871-0.390008 0.133942-0.38358 0.107158-0.375008 0.0814409-0.364294L0.0814409-0.484294C0.115727-0.492865 0.150012-0.498222 0.184298-0.501437 0.218584-0.506794 0.252869-0.510008 0.287155-0.510008 0.378226-0.510008 0.442513-0.490722 0.480011-0.454295 0.519653-0.42001 0.540011-0.362152 0.540011-0.282867Z" fill="#002060" transform="matrix(1 0 0 1.00449 300.927 245.023)"/><path d="M0.248571-0.638565 0.248571-0.497137 0.411429-0.497137 0.411429-0.381422 0.248571-0.381422 0.248571-0.171423C0.248571-0.147852 0.252857-0.132853 0.261429-0.124279 0.272143-0.11785 0.29143-0.115707 0.317141-0.115707L0.398571-0.115707 0.398571 8.22857e-06 0.261429 8.22857e-06C0.201429 8.22857e-06 0.156429-0.0128489 0.12857-0.0385618 0.102856-0.0642761 0.09-0.108206 0.09-0.17142L0.09-0.381419 0.0128571-0.381419 0.0128571-0.497135 0.09-0.497135 0.09-0.638562Z" fill="#002060" transform="matrix(1 0 0 1.00449 301.539 245.023)"/><path d="M0.574299-0.248571 0.574299-0.205714 0.201435-0.205714C0.203578-0.168214 0.216435-0.139285 0.240005-0.12 0.262505-0.102857 0.295718-0.0942857 0.338578-0.0942857 0.372864-0.0942857 0.40715-0.0985714 0.441435-0.107143 0.475721-0.117857 0.511079-0.133929 0.548577-0.154287L0.548577-0.0300027C0.511077-0.0150026 0.473576-0.00535982 0.437148-1.37143e-06 0.399648 0.00857006 0.361078 0.0128558 0.321433 0.0128558 0.232504 0.0128558 0.162863-0.00964416 0.111434-0.0557157 0.0621477-0.100715 0.0385783-0.165002 0.0385783-0.248571 0.0385783-0.327856 0.0621496-0.391071 0.111434-0.437143 0.159648-0.485357 0.22715-0.509999 0.312864-0.509999 0.392149-0.509999 0.455364-0.485356 0.501435-0.437143 0.549649-0.391071 0.574291-0.327856 0.574291-0.248571ZM0.407155-0.304284C0.407155-0.332141 0.398584-0.355713 0.381441-0.372856 0.364298-0.392142 0.340726-0.402857 0.312869-0.402857 0.280726-0.402857 0.255012-0.394286 0.235727-0.377143 0.218584-0.36 0.206798-0.335358 0.201441-0.304287Z" fill="#002060" transform="matrix(1 0 0 1.00449 301.973 245.023)"/><path d="M0.415707-0.424293 0.415707-0.690007 0.574277-0.690007 0.574277-1.37143e-05 0.415707-1.37143e-05 0.415707-0.0728695C0.392136-0.0439406 0.368563-0.0225134 0.342852-0.0085824 0.31714 0.00534857 0.284994 0.0128462 0.248566 0.0128462 0.188566 0.0128462 0.13821-0.0107254 0.0985646-0.0600096 0.0610642-0.108224 0.0428517-0.171438 0.0428517-0.248581 0.0428517-0.325724 0.0610659-0.387866 0.0985646-0.437152 0.138207-0.485366 0.188563-0.510008 0.248566-0.510008 0.282852-0.510008 0.312853-0.502508 0.338565-0.48858 0.366421-0.473579 0.392135-0.452152 0.415707-0.424293ZM0.308566-0.102857C0.342852-0.102857 0.368566-0.113571 0.385709-0.137143 0.404994-0.162857 0.41571-0.199285 0.41571-0.248571 0.41571-0.293571 0.404996-0.330001 0.385709-0.355713 0.368566-0.381427 0.342852-0.394283 0.308566-0.394283 0.27428-0.394283 0.248566-0.381426 0.231423-0.355713 0.21428-0.33 0.205709-0.293571 0.205709-0.248571 0.205709-0.199285 0.21428-0.162857 0.231423-0.137143 0.248566-0.113571 0.27428-0.102857 0.308566-0.102857Z" fill="#002060" transform="matrix(1 0 0 1.00449 302.588 245.023)"/><path d="M0.342857-0.102857C0.373928-0.102857 0.39857-0.113571 0.415713-0.137143 0.434999-0.162857 0.445714-0.199285 0.445714-0.248571 0.445714-0.293571 0.435-0.330001 0.415713-0.355713 0.39857-0.381427 0.373928-0.394283 0.342857-0.394283 0.308571-0.394283 0.280715-0.381426 0.261427-0.355713 0.244284-0.329999 0.235713-0.293571 0.235713-0.248571 0.235713-0.199285 0.244284-0.162857 0.261427-0.137143 0.280713-0.113571 0.308571-0.102857 0.342857-0.102857ZM0.235716-0.424293C0.258216-0.452149 0.28286-0.473579 0.308571-0.48858 0.334286-0.502508 0.364284-0.510008 0.39857-0.510008 0.460712-0.510008 0.511071-0.485365 0.548571-0.437152 0.588214-0.387866 0.608571-0.325724 0.608571-0.248581 0.608571-0.171438 0.588214-0.108224 0.548571-0.0600096 0.511071-0.0107232 0.460715 0.0128462 0.39857 0.0128462 0.364284 0.0128462 0.334283 0.0053461 0.308571-0.0085824 0.28286-0.0225109 0.258215-0.0439406 0.235716-0.0728695L0.235716-1.37143e-05 0.0771456-1.37143e-05 0.0771456-0.690007 0.235716-0.690007Z" fill="#002060" transform="matrix(1 0 0 1.00449 303.552 245.023)"/><path d="M0.0128571-0.497143 0.171427-0.497143 0.304286-0.158565 0.415714-0.497143 0.574284-0.497143 0.36857 0.0471497C0.344998 0.10072 0.319284 0.139293 0.291427 0.162865 0.265713 0.185365 0.229285 0.197151 0.184286 0.197151L0.09 0.197151 0.09 0.0900096 0.141429 0.0900096C0.167143 0.0900096 0.185358 0.0857239 0.197141 0.0771525 0.21107 0.068581 0.220713 0.0535809 0.227143 0.0342953L0.231429 0.0171525Z" fill="#002060" transform="matrix(1 0 0 1.00449 304.201 245.023)"/><path d="M0.484279-0.12 0.218565-0.12 0.175707 0 0.00427886 0 0.248563-0.664293 0.454277-0.664293 0.698562 0 0.527133 0ZM0.261422-0.244284 0.441422-0.244284 0.351423-0.505711Z" fill="#002060" transform="matrix(1 0 0 1.00449 305.108 245.023)"/><path d="M0.415707-0.424293 0.415707-0.690007 0.574277-0.690007 0.574277-1.37143e-05 0.415707-1.37143e-05 0.415707-0.0728695C0.392136-0.0439406 0.368563-0.0225134 0.342852-0.0085824 0.31714 0.00534857 0.284994 0.0128462 0.248566 0.0128462 0.188566 0.0128462 0.13821-0.0107254 0.0985646-0.0600096 0.0610642-0.108224 0.0428517-0.171438 0.0428517-0.248581 0.0428517-0.325724 0.0610659-0.387866 0.0985646-0.437152 0.138207-0.485366 0.188563-0.510008 0.248566-0.510008 0.282852-0.510008 0.312853-0.502508 0.338565-0.48858 0.366421-0.473579 0.392135-0.452152 0.415707-0.424293ZM0.308566-0.102857C0.342852-0.102857 0.368566-0.113571 0.385709-0.137143 0.404994-0.162857 0.41571-0.199285 0.41571-0.248571 0.41571-0.293571 0.404996-0.330001 0.385709-0.355713 0.368566-0.381427 0.342852-0.394283 0.308566-0.394283 0.27428-0.394283 0.248566-0.381426 0.231423-0.355713 0.21428-0.33 0.205709-0.293571 0.205709-0.248571 0.205709-0.199285 0.21428-0.162857 0.231423-0.137143 0.248566-0.113571 0.27428-0.102857 0.308566-0.102857Z" fill="#002060" transform="matrix(1 0 0 1.00449 305.81 245.023)"/><path d="M0.0771429-0.497143 0.235713-0.497143 0.235713 0 0.0771429 0ZM0.0771429-0.689999 0.235713-0.689999 0.235713-0.561427 0.0771429-0.561427Z" fill="#002060" transform="matrix(1 0 0 1.00449 306.459 245.023)"/><path d="M0.544293-0.642871 0.544293-0.501444C0.506792-0.518586 0.471437-0.5293 0.437151-0.535729 0.402865-0.544301 0.369652-0.548586 0.338578-0.548586 0.297863-0.548586 0.267865-0.542158 0.24858-0.531444 0.228222-0.522872 0.218578-0.505729 0.218578-0.480015 0.218578-0.462872 0.225007-0.447872 0.240007-0.437158 0.253935-0.428586 0.278577-0.421086 0.312863-0.415729L0.385718-0.398586C0.456432-0.383587 0.507861-0.361086 0.540004-0.330015 0.571075-0.301086 0.587148-0.259301 0.587148-0.205731 0.587148-0.13073 0.56572-0.0750171 0.522861-0.0385865 0.480004-0.0043008 0.413575 0.0128421 0.325718 0.0128421 0.282861 0.0128421 0.240004 0.00855634 0.197147-1.50857e-05 0.15429-0.00858651 0.112505-0.0193007 0.0728626-0.0343008L0.0728626-0.180015C0.112505-0.156444 0.152148-0.1393 0.192863-0.128587 0.232505-0.116801 0.271078-0.111444 0.308578-0.111444 0.345006-0.111444 0.373935-0.116801 0.394293-0.128587 0.413578-0.142515 0.424294-0.16073 0.424294-0.184299 0.424294-0.203585 0.416794-0.219658 0.402865-0.231444 0.387865-0.242158 0.361081-0.252872 0.321435-0.261445L0.257148-0.274302C0.190719-0.288231 0.142505-0.31073 0.111434-0.342874 0.0792905-0.373945 0.0642898-0.415729 0.0642898-0.467158 0.0642898-0.535729 0.0857184-0.587158 0.128577-0.621444 0.171435-0.655729 0.232506-0.672872 0.312864-0.672872 0.349292-0.672872 0.386792-0.669658 0.424293-0.664301 0.463935-0.661086 0.503578-0.653586 0.544293-0.642872Z" fill="#002060" transform="matrix(1 0 0 1.00449 307.086 245.023)"/><path d="M0.402871-0.689993 0.402871-0.587136 0.317157-0.587136C0.293585-0.587136 0.278586-0.58285 0.270012-0.574279 0.261438-0.565707 0.257155-0.550707 0.257155-0.531422L0.257155-0.497136 0.390014-0.497136 0.390014-0.38142 0.257155-0.38142 0.257155 1.37143e-06 0.0942981 1.37143e-06 0.0942981-0.38142 0.0171552-0.38142 0.0171552-0.497136 0.0942981-0.497136 0.0942981-0.531422C0.0942981-0.584992 0.109298-0.625707 0.141442-0.651422 0.172513-0.677136 0.219658-0.689992 0.282869-0.689992Z" fill="#002060" transform="matrix(1 0 0 1.00449 299.2 245.933)"/><path d="M0.445714-0.36C0.430714-0.368571 0.416785-0.373928 0.402857-0.377143 0.387857-0.379286 0.375001-0.381429 0.364287-0.381429 0.32143-0.381429 0.288217-0.366429 0.265714-0.338571 0.245357-0.312857 0.235713-0.275357 0.235713-0.227143L0.235713-1.37143e-06 0.0771429-1.37143e-06 0.0771429-0.497144 0.235713-0.497144 0.235713-0.415714C0.254999-0.446785 0.27857-0.469285 0.304284-0.484286 0.332141-0.501429 0.364284-0.51 0.39857-0.51 0.403927-0.51 0.409284-0.507857 0.415713-0.505714L0.445714-0.505714Z" fill="#002060" transform="matrix(1 0 0 1.00449 299.594 245.933)"/><path d="M0.31285-0.394286C0.278565-0.394286 0.250708-0.381429 0.23142-0.355716 0.214277-0.332144 0.205706-0.296788 0.205706-0.248574 0.205706-0.199288 0.214277-0.16286 0.23142-0.137146 0.250706-0.111431 0.278565-0.0985755 0.31285-0.0985755 0.347136-0.0985755 0.37285-0.111433 0.389993-0.137146 0.409279-0.16286 0.419995-0.199288 0.419995-0.248574 0.419995-0.296788 0.40928-0.332146 0.389993-0.355716 0.37285-0.38143 0.347136-0.394286 0.31285-0.394286ZM0.31285-0.510001C0.398565-0.510001 0.464994-0.485358 0.51428-0.437146 0.562494-0.391074 0.587136-0.327859 0.587136-0.248574 0.587136-0.165002 0.562493-0.100718 0.51428-0.0557184 0.464994-0.00964663 0.398565 0.012853 0.31285 0.012853 0.227136 0.012853 0.159637-0.0096469 0.11142-0.0557184 0.0621339-0.100718 0.0385646-0.165005 0.0385646-0.248574 0.0385646-0.327859 0.0621359-0.391074 0.11142-0.437146 0.159634-0.48536 0.227136-0.510001 0.31285-0.510001Z" fill="#002060" transform="matrix(1 0 0 1.00449 300.042 245.933)"/><path d="M0.535707-0.415707C0.554993-0.443564 0.579637-0.467136 0.608563-0.484279 0.63642-0.501422 0.666421-0.509993 0.698562-0.509993 0.755347-0.509993 0.798204-0.490707 0.827133-0.45428 0.858204-0.419995 0.874277-0.369638 0.874277-0.304279L0.874277 1.37143e-05 0.715707 1.37143e-05 0.715707-0.257129 0.715707-0.269986 0.715707-0.287129C0.715707-0.323557 0.709279-0.349271 0.698565-0.364272 0.689993-0.381415 0.673922-0.389986 0.65142-0.389986 0.619277-0.389986 0.595707-0.377129 0.578565-0.351416 0.563565-0.325702 0.554993-0.289274 0.55285-0.244275L0.55285 9.6e-06 0.39428 9.6e-06 0.39428-0.257133C0.39428-0.313919 0.389995-0.349277 0.381423-0.364275 0.372852-0.381418 0.355709-0.389989 0.329994-0.389989 0.297851-0.389989 0.274282-0.377132 0.257139-0.351419 0.242139-0.325705 0.23571-0.289277 0.23571-0.244277L0.23571 6.85714e-06 0.0771401 6.85714e-06 0.0771401-0.497136 0.23571-0.497136 0.23571-0.42428C0.254996-0.452137 0.276425-0.473567 0.299997-0.488567 0.325712-0.502496 0.353568-0.509996 0.385712-0.509996 0.419997-0.509996 0.449999-0.501424 0.47571-0.484282 0.501422-0.467139 0.520709-0.443567 0.53571-0.41571Z" fill="#002060" transform="matrix(1 0 0 1.00449 300.665 245.933)"/><path d="M0.248571-0.638565 0.248571-0.497137 0.411429-0.497137 0.411429-0.381422 0.248571-0.381422 0.248571-0.171423C0.248571-0.147852 0.252857-0.132853 0.261429-0.124279 0.272143-0.11785 0.29143-0.115707 0.317141-0.115707L0.398571-0.115707 0.398571 8.22857e-06 0.261429 8.22857e-06C0.201429 8.22857e-06 0.156429-0.0128489 0.12857-0.0385618 0.102856-0.0642761 0.09-0.108206 0.09-0.17142L0.09-0.381419 0.0128571-0.381419 0.0128571-0.497135 0.09-0.497135 0.09-0.638562Z" fill="#002060" transform="matrix(1 0 0 1.00449 301.925 245.933)"/><path d="M0.574299-0.304293 0.574299 0 0.415729 0 0.415729-0.231429C0.415729-0.274286 0.413586-0.302142 0.411444-0.317143 0.411444-0.334286 0.408229-0.347144 0.402872-0.355713 0.396443-0.366427 0.387872-0.374999 0.377158-0.381427 0.365372-0.386784 0.353586-0.389999 0.342872-0.389999 0.308586-0.389999 0.28073-0.377141 0.261442-0.351429 0.244299-0.325714 0.235728-0.289286 0.235728-0.244287L0.235728-2.74286e-06 0.0771579-2.74286e-06 0.0771579-0.689996 0.235728-0.689996 0.235728-0.424282C0.258228-0.452138 0.282872-0.473568 0.308584-0.488569 0.33644-0.502497 0.366442-0.509997 0.398582-0.509997 0.458582-0.509997 0.502512-0.490711 0.531441-0.454284 0.559297-0.419999 0.574298-0.369643 0.574298-0.304283Z" fill="#002060" transform="matrix(1 0 0 1.00449 302.359 245.933)"/><path d="M0.574299-0.248571 0.574299-0.205714 0.201435-0.205714C0.203578-0.168214 0.216435-0.139285 0.240005-0.12 0.262505-0.102857 0.295718-0.0942857 0.338578-0.0942857 0.372864-0.0942857 0.40715-0.0985714 0.441435-0.107143 0.475721-0.117857 0.511079-0.133929 0.548577-0.154287L0.548577-0.0300027C0.511077-0.0150026 0.473576-0.00535982 0.437148-1.37143e-06 0.399648 0.00857006 0.361078 0.0128558 0.321433 0.0128558 0.232504 0.0128558 0.162863-0.00964416 0.111434-0.0557157 0.0621477-0.100715 0.0385783-0.165002 0.0385783-0.248571 0.0385783-0.327856 0.0621496-0.391071 0.111434-0.437143 0.159648-0.485357 0.22715-0.509999 0.312864-0.509999 0.392149-0.509999 0.455364-0.485356 0.501435-0.437143 0.549649-0.391071 0.574291-0.327856 0.574291-0.248571ZM0.407155-0.304284C0.407155-0.332141 0.398584-0.355713 0.381441-0.372856 0.364298-0.392142 0.340726-0.402857 0.312869-0.402857 0.280726-0.402857 0.255012-0.394286 0.235727-0.377143 0.218584-0.36 0.206798-0.335358 0.201441-0.304287Z" fill="#002060" transform="matrix(1 0 0 1.00449 303.004 245.933)"/><path d="M0.0814299-0.664293 0.274286-0.664293 0.514286-0.210021 0.514286-0.664293 0.677143-0.664293 0.677143 0 0.484287 0 0.244287-0.454272 0.244287 0 0.0814299 0Z" fill="#002060" transform="matrix(1 0 0 1.00449 303.935 245.933)"/><path d="M0.31285-0.394286C0.278565-0.394286 0.250708-0.381429 0.23142-0.355716 0.214277-0.332144 0.205706-0.296788 0.205706-0.248574 0.205706-0.199288 0.214277-0.16286 0.23142-0.137146 0.250706-0.111431 0.278565-0.0985755 0.31285-0.0985755 0.347136-0.0985755 0.37285-0.111433 0.389993-0.137146 0.409279-0.16286 0.419995-0.199288 0.419995-0.248574 0.419995-0.296788 0.40928-0.332146 0.389993-0.355716 0.37285-0.38143 0.347136-0.394286 0.31285-0.394286ZM0.31285-0.510001C0.398565-0.510001 0.464994-0.485358 0.51428-0.437146 0.562494-0.391074 0.587136-0.327859 0.587136-0.248574 0.587136-0.165002 0.562493-0.100718 0.51428-0.0557184 0.464994-0.00964663 0.398565 0.012853 0.31285 0.012853 0.227136 0.012853 0.159637-0.0096469 0.11142-0.0557184 0.0621339-0.100718 0.0385646-0.165005 0.0385646-0.248574 0.0385646-0.327859 0.0621359-0.391074 0.11142-0.437146 0.159634-0.48536 0.227136-0.510001 0.31285-0.510001Z" fill="#002060" transform="matrix(1 0 0 1.00449 304.693 245.933)"/><path d="M0.0728558-0.192856 0.0728558-0.497148 0.231426-0.497148 0.231426-0.44572 0.231426-0.342863 0.231426-0.26572 0.231426-0.175721C0.233569-0.158578 0.237855-0.146792 0.244283-0.141435 0.24964-0.12965 0.25714-0.121078 0.265712-0.115721 0.276426-0.109293 0.289283-0.10715 0.304282-0.10715 0.338567-0.10715 0.364282-0.120007 0.381424-0.14572 0.40071-0.171434 0.411426-0.206792 0.411426-0.252861L0.411426-0.497146 0.569996-0.497146 0.569996-2.74286e-06 0.411426-2.74286e-06 0.411426-0.0728585C0.387854-0.0439296 0.362139-0.0225024 0.334283-0.00857143 0.308569 0.00535707 0.27964 0.0128571 0.248569 0.0128571 0.190711 0.0128571 0.146784-0.00428571 0.11571-0.0385714 0.0867813-0.0749993 0.072853-0.126428 0.072853-0.192857Z" fill="#002060" transform="matrix(1 0 0 1.00449 305.317 245.933)"/><path d="M0.574299-0.304293 0.574299 0 0.415729 0 0.415729-0.231429C0.415729-0.274286 0.413586-0.302142 0.411444-0.317143 0.411444-0.334286 0.408229-0.347144 0.402872-0.355713 0.396443-0.366427 0.387872-0.374999 0.377158-0.381427 0.365372-0.386784 0.353586-0.389999 0.342872-0.389999 0.308586-0.389999 0.28073-0.377141 0.261442-0.351429 0.244299-0.325714 0.235728-0.289286 0.235728-0.244287L0.235728-2.74286e-06 0.0771579-2.74286e-06 0.0771579-0.497146 0.235728-0.497146 0.235728-0.42429C0.258228-0.452146 0.282872-0.473576 0.308584-0.488577 0.33644-0.502505 0.366442-0.510005 0.398582-0.510005 0.458582-0.510005 0.502512-0.49072 0.531441-0.454293 0.559297-0.420007 0.574298-0.369651 0.574298-0.304291Z" fill="#002060" transform="matrix(1 0 0 1.00449 305.962 245.933)"/><path d="M0.0814299-0.664293 0.36858-0.664293C0.451079-0.664293 0.515366-0.643935 0.561435-0.604293 0.606435-0.566792 0.630007-0.514294 0.630007-0.445723 0.630007-0.377151 0.606436-0.32358 0.561435-0.287152 0.515364-0.249652 0.451079-0.23144 0.36858-0.23144L0.252864-0.23144 0.252864-1.09714e-05 0.0814354-1.09714e-05ZM0.252859-0.540008 0.252859-0.355721 0.347144-0.355721C0.38143-0.355721 0.407144-0.36215 0.424287-0.37715 0.443573-0.394293 0.454288-0.416792 0.454288-0.445721 0.454288-0.473578 0.443574-0.49715 0.424287-0.514293 0.407144-0.531435 0.38143-0.540007 0.347144-0.540007Z" fill="#002060" transform="matrix(1 0 0 1.00449 306.923 245.933)"/><path d="M0.445714-0.36C0.430714-0.368571 0.416785-0.373928 0.402857-0.377143 0.387857-0.379286 0.375001-0.381429 0.364287-0.381429 0.32143-0.381429 0.288217-0.366429 0.265714-0.338571 0.245357-0.312857 0.235713-0.275357 0.235713-0.227143L0.235713-1.37143e-06 0.0771429-1.37143e-06 0.0771429-0.497144 0.235713-0.497144 0.235713-0.415714C0.254999-0.446785 0.27857-0.469285 0.304284-0.484286 0.332141-0.501429 0.364284-0.51 0.39857-0.51 0.403927-0.51 0.409284-0.507857 0.415713-0.505714L0.445714-0.505714Z" fill="#002060" transform="matrix(1 0 0 1.00449 307.588 245.933)"/><path d="M0.31285-0.394286C0.278565-0.394286 0.250708-0.381429 0.23142-0.355716 0.214277-0.332144 0.205706-0.296788 0.205706-0.248574 0.205706-0.199288 0.214277-0.16286 0.23142-0.137146 0.250706-0.111431 0.278565-0.0985755 0.31285-0.0985755 0.347136-0.0985755 0.37285-0.111433 0.389993-0.137146 0.409279-0.16286 0.419995-0.199288 0.419995-0.248574 0.419995-0.296788 0.40928-0.332146 0.389993-0.355716 0.37285-0.38143 0.347136-0.394286 0.31285-0.394286ZM0.31285-0.510001C0.398565-0.510001 0.464994-0.485358 0.51428-0.437146 0.562494-0.391074 0.587136-0.327859 0.587136-0.248574 0.587136-0.165002 0.562493-0.100718 0.51428-0.0557184 0.464994-0.00964663 0.398565 0.012853 0.31285 0.012853 0.227136 0.012853 0.159637-0.0096469 0.11142-0.0557184 0.0621339-0.100718 0.0385646-0.165005 0.0385646-0.248574 0.0385646-0.327859 0.0621359-0.391074 0.11142-0.437146 0.159634-0.48536 0.227136-0.510001 0.31285-0.510001Z" fill="#002060" transform="matrix(1 0 0 1.00449 308.035 245.933)"/><path d="M0.0771429-0.497143 0.235713-0.497143 0.235713-0.00858514C0.235713 0.0567717 0.219641 0.107131 0.188569 0.141416 0.156425 0.177844 0.109284 0.197129 0.0471415 0.197129L-0.0300014 0.197129-0.0300014 0.0899877-0.00428709 0.0899877C0.026784 0.0899877 0.0482139 0.0824876 0.06 0.0685591 0.0707141 0.0567733 0.0771429 0.0310587 0.0771429-0.00858377ZM0.0771429-0.689999 0.235713-0.689999 0.235713-0.561427 0.0771429-0.561427Z" fill="#002060" transform="matrix(1 0 0 1.00449 308.658 245.933)"/><path d="M0.574299-0.248571 0.574299-0.205714 0.201435-0.205714C0.203578-0.168214 0.216435-0.139285 0.240005-0.12 0.262505-0.102857 0.295718-0.0942857 0.338578-0.0942857 0.372864-0.0942857 0.40715-0.0985714 0.441435-0.107143 0.475721-0.117857 0.511079-0.133929 0.548577-0.154287L0.548577-0.0300027C0.511077-0.0150026 0.473576-0.00535982 0.437148-1.37143e-06 0.399648 0.00857006 0.361078 0.0128558 0.321433 0.0128558 0.232504 0.0128558 0.162863-0.00964416 0.111434-0.0557157 0.0621477-0.100715 0.0385783-0.165002 0.0385783-0.248571 0.0385783-0.327856 0.0621496-0.391071 0.111434-0.437143 0.159648-0.485357 0.22715-0.509999 0.312864-0.509999 0.392149-0.509999 0.455364-0.485356 0.501435-0.437143 0.549649-0.391071 0.574291-0.327856 0.574291-0.248571ZM0.407155-0.304284C0.407155-0.332141 0.398584-0.355713 0.381441-0.372856 0.364298-0.392142 0.340726-0.402857 0.312869-0.402857 0.280726-0.402857 0.255012-0.394286 0.235727-0.377143 0.218584-0.36 0.206798-0.335358 0.201441-0.304287Z" fill="#002060" transform="matrix(1 0 0 1.00449 308.968 245.933)"/><path d="M0.475721-0.48 0.475721-0.351429C0.455364-0.365357 0.433936-0.375 0.411434-0.38143 0.391077-0.390001 0.369649-0.394287 0.347147-0.394287 0.301075-0.394287 0.265717-0.38143 0.240005-0.355717 0.216434-0.330003 0.20572-0.293575 0.20572-0.248576 0.20572-0.202504 0.216434-0.165003 0.240005-0.137147 0.26572-0.111433 0.301078-0.0985769 0.347147-0.0985769 0.369647-0.0985769 0.392146-0.102863 0.415718-0.111434 0.438218-0.120005 0.458576-0.13072 0.475718-0.14572L0.475718-0.0128613C0.452147-0.00428983 0.428574 0.00106725 0.402863 0.0042816 0.377148 0.00963867 0.351434 0.012853 0.32572 0.012853 0.236791 0.012853 0.16715-0.0096469 0.115721-0.0557184 0.0642926-0.100718 0.0385783-0.165005 0.0385783-0.248574 0.0385783-0.331074 0.0642926-0.395361 0.115721-0.44143 0.16715-0.486429 0.236794-0.510001 0.32572-0.510001 0.351434-0.510001 0.377148-0.506787 0.402863-0.50143 0.428577-0.498216 0.452149-0.490716 0.475718-0.480001Z" fill="#002060" transform="matrix(1 0 0 1.00449 309.583 245.933)"/><path d="M0.248571-0.638565 0.248571-0.497137 0.411429-0.497137 0.411429-0.381422 0.248571-0.381422 0.248571-0.171423C0.248571-0.147852 0.252857-0.132853 0.261429-0.124279 0.272143-0.11785 0.29143-0.115707 0.317141-0.115707L0.398571-0.115707 0.398571 8.22857e-06 0.261429 8.22857e-06C0.201429 8.22857e-06 0.156429-0.0128489 0.12857-0.0385618 0.102856-0.0642761 0.09-0.108206 0.09-0.17142L0.09-0.381419 0.0128571-0.381419 0.0128571-0.497135 0.09-0.497135 0.09-0.638562Z" fill="#002060" transform="matrix(1 0 0 1.00449 310.121 245.933)"/></g></svg>