<svg width="549" height="536" xmlns="http://www.w3.org/2000/svg" xmlns:xlink="http://www.w3.org/1999/xlink" overflow="hidden"><defs><clipPath id="clip0"><rect x="359" y="31" width="549" height="536"/></clipPath></defs><g clip-path="url(#clip0)" transform="translate(-359 -31)"><path d="M116.956 34.5694C112.561 34.9993 108.8 37.8958 107.266 42.0377 105.735 46.1756 106.699 50.8238 109.753 54.0099L296.622 244.994 296.622 529.937C296.655 534.665 299.575 538.892 303.982 540.599 308.389 542.306 313.395 541.149 316.604 537.678L422.278 422.471C424.226 420.362 425.319 417.602 425.339 414.73L425.339 243.009 610.224 54.0098 610.22 54.0098C613.374 50.6794 614.25 45.7942 612.454 41.5758 610.658 37.3575 606.528 34.6057 601.94 34.5695L118.032 34.5695 118.036 34.5695C117.675 34.5534 117.313 34.5534 116.956 34.5695ZM145.58 57.6088 574.393 57.6088 405.531 230.235C403.434 232.408 402.269 235.317 402.293 238.338L402.293 410.244 319.663 500.246 319.663 240.314C319.688 237.297 318.522 234.385 316.421 232.215L145.575 57.6149Z" fill="#FFFFFF" transform="matrix(1.00131 0 0 1 279.482 0.28113)"/><path d="M19.3-1.15701C18.3036-0.642783 17.2631-0.257113 16.1825 0 15.1098 0.265146 13.985 0.401734 12.8079 0.401734 9.31285 0.401734 6.54487-0.570473 4.5-2.52298 2.45111-4.48342 1.43068-7.13498 1.43068-10.4774 1.43068-13.8279 2.4511-16.4794 4.5-18.4319 6.54487-20.3924 9.31285-21.3727 12.8079-21.3727 13.985-21.3727 15.1099-21.2361 16.1825-20.9709 17.2632-20.7138 18.3037-20.3282 19.3-19.8139L19.3-15.4751C18.2916-16.15 17.2993-16.6481 16.3271-16.9695 15.3509-17.2909 14.3224-17.4516 13.2417-17.4516 11.3134-17.4516 9.79478-16.8289 8.69403-15.5876 7.58926-14.3542 7.03884-12.6508 7.03884-10.4774 7.03884-8.31197 7.58922-6.60864 8.69403-5.3672 9.79478-4.13388 11.3134-3.51917 13.2417-3.51917 14.3224-3.51917 15.3509-3.67184 16.3271-3.98518 17.2993-4.30658 18.2917-4.80875 19.3-5.49578Z" fill="#FFFFFF" transform="matrix(1.00131 0 0 1 351.568 662.605)"/><path d="M14.1248-11.458C13.6748-11.6589 13.2289-11.8115 12.791-11.9079 12.3611-12.0124 11.9272-12.0686 11.4894-12.0686 10.1918-12.0686 9.1954-11.6508 8.50047-10.8152 7.80145-9.98758 7.45598-8.80649 7.45598-7.26381L7.45598-0.000359959 2.42622-0.000359959 2.42622-15.748 7.45598-15.748 7.45598-13.1609C8.09876-14.1893 8.83801-14.9366 9.67353-15.4106 10.5172-15.8927 11.5256-16.1337 12.6946-16.1337 12.8633-16.1337 13.0481-16.1217 13.241-16.1016 13.4418-16.0895 13.7311-16.0614 14.1087-16.0212Z" fill="#FFFFFF" transform="matrix(1.00131 0 0 1 372.731 662.605)"/><path d="M18.1429-7.92228 18.1429-6.47607 6.36407-6.47607C6.49263-5.29499 6.91847-4.41114 7.64964-3.82461 8.37678-3.23405 9.40119-2.94078 10.719-2.94078 11.7795-2.94078 12.8602-3.09344 13.965-3.40679 15.0777-3.72818 16.2187-4.20224 17.3878-4.83696L17.3878-0.964216C16.1987-0.514268 15.0095-0.176812 13.8203 0.0481727 12.6312 0.281179 11.442 0.401704 10.2528 0.401704 7.40044 0.401704 5.18279-0.321422 3.59989-1.76772 2.02513-3.21393 1.23764-5.24276 1.23764-7.85811 1.23764-10.4292 2.013-12.4459 3.5677-13.9163 5.11841-15.3947 7.25162-16.1339 9.96345-16.1339 12.4381-16.1339 14.4187-15.3826 15.9091-13.8841 17.3956-12.3937 18.1428-10.4051 18.1428-7.92229ZM12.9686-9.59351C12.9686-10.5456 12.6874-11.313 12.133-11.8915 11.5746-12.478 10.8474-12.7753 9.94751-12.7753 8.97128-12.7753 8.1798-12.5021 7.56921-11.9558 6.95862-11.4094 6.57692-10.622 6.42824-9.59351Z" fill="#FFFFFF" transform="matrix(1.00131 0 0 1 386.951 662.605)"/><path d="M9.4811-7.08666C8.42859-7.08666 7.63709-6.90989 7.10281-6.55637 6.57653-6.20284 6.3154-5.67656 6.3154-4.9816 6.3154-4.33882 6.52832-3.83261 6.95819-3.47101 7.38403-3.11748 7.97459-2.94072 8.72589-2.94072 9.67801-2.94072 10.4774-3.27817 11.1202-3.95311 11.771-4.63606 12.1005-5.48776 12.1005-6.5082L12.1005-7.0867ZM17.1624-8.98292 17.1624 0 12.1005 0 12.1005-2.33006C11.4256-1.37392 10.6623-0.678882 9.81854-0.241069 8.97087 0.184772 7.94244 0.401714 6.73318 0.401714 5.10216 0.401714 3.78039-0.0683201 2.76397-1.01241 1.74355-1.96453 1.23733-3.20188 1.23733-4.72451 1.23733-6.56451 1.86806-7.91436 3.13359-8.77404 4.40713-9.6418 6.40377-10.0757 9.12752-10.0757L12.1004-10.0757 12.1004-10.4774C12.1004-11.2688 11.783-11.8473 11.1523-12.2129 10.5175-12.5865 9.53728-12.7753 8.2115-12.7753 7.12679-12.7753 6.12251-12.6669 5.19042-12.454 4.26641-12.237 3.41068-11.9156 2.61929-11.4898L2.61929-15.3304C3.68795-15.5875 4.76454-15.7844 5.84925-15.925 6.94198-16.0616 8.03471-16.1339 9.12744-16.1339 11.9637-16.1339 14.0126-15.5715 15.2661-14.4466 16.5276-13.3298 17.1623-11.5099 17.1623-8.98296Z" fill="#FFFFFF" transform="matrix(1.00131 0 0 1 406.505 662.605)"/><path d="M7.92228-20.2153 7.92228-15.7479 13.1128-15.7479 13.1128-12.1483 7.92228-12.1483 7.92228-5.46335C7.92228-4.73218 8.0669-4.24206 8.35616-3.98495 8.64542-3.72783 9.21589-3.59928 10.0756-3.59928L12.6628-3.59928 12.6628 0.000308536 8.35616 0.000308536C6.36353 0.000308536 4.94941-0.409468 4.11379-1.23702 3.28621-2.07264 2.87646-3.47874 2.87646-5.46335L2.87646-12.1483 0.385649-12.1483 0.385649-15.7479 2.87646-15.7479 2.87646-20.2153Z" fill="#FFFFFF" transform="matrix(1.00131 0 0 1 425.963 662.605)"/><path d="M18.1429-7.92228 18.1429-6.47607 6.36407-6.47607C6.49263-5.29499 6.91847-4.41114 7.64964-3.82461 8.37678-3.23405 9.40119-2.94078 10.719-2.94078 11.7795-2.94078 12.8602-3.09344 13.965-3.40679 15.0777-3.72818 16.2187-4.20224 17.3878-4.83696L17.3878-0.964216C16.1987-0.514268 15.0095-0.176812 13.8203 0.0481727 12.6312 0.281179 11.442 0.401704 10.2528 0.401704 7.40044 0.401704 5.18279-0.321422 3.59989-1.76772 2.02513-3.21393 1.23764-5.24276 1.23764-7.85811 1.23764-10.4292 2.013-12.4459 3.5677-13.9163 5.11841-15.3947 7.25162-16.1339 9.96345-16.1339 12.4381-16.1339 14.4187-15.3826 15.9091-13.8841 17.3956-12.3937 18.1428-10.4051 18.1428-7.92229ZM12.9686-9.59351C12.9686-10.5456 12.6874-11.313 12.133-11.8915 11.5746-12.478 10.8474-12.7753 9.94751-12.7753 8.97128-12.7753 8.1798-12.5021 7.56921-11.9558 6.95862-11.4094 6.57692-10.622 6.42824-9.59351Z" fill="#FFFFFF" transform="matrix(1.00131 0 0 1 439.749 662.605)"/><path d="M13.1292-13.4501 13.1292-21.8866 18.1912-21.8866 18.1912-0.000102845 13.1292-0.000102845 13.1292-2.28203C12.4423-1.35 11.683-0.667055 10.8473-0.241172 10.0116 0.18471 9.03949 0.401611 7.93873 0.401611 5.99835 0.401611 4.40744-0.369729 3.16609-1.91241 1.92074-3.45509 1.30202-5.43568 1.30202-7.8581 1.30202-10.2886 1.9207-12.2773 3.16609-13.8199 4.40744-15.3626 5.99835-16.134 7.93873-16.134 9.03146-16.134 9.99564-15.913 10.8313-15.4751 11.6749-15.0332 12.4422-14.3583 13.1292-13.4503ZM9.81885-3.2459C10.8875-3.2459 11.707-3.63559 12.2775-4.41895 12.8439-5.21038 13.1292-6.35533 13.1292-7.8579 13.1292-9.35635 12.8439-10.4973 12.2775-11.2807 11.707-12.0721 10.8874-12.4698 9.81885-12.4698 8.74617-12.4698 7.9267-12.0721 7.36023-11.2807 6.78976-10.4973 6.50855-9.35635 6.50855-7.8579 6.50855-6.35543 6.78977-5.21045 7.36023-4.41895 7.92668-3.63556 8.74627-3.2459 9.81885-3.2459Z" fill="#FFFFFF" transform="matrix(1.00131 0 0 1 459.303 662.605)"/><path d="M10.7988-3.246C11.8795-3.246 12.703-3.6357 13.2734-4.41906 13.8399-5.21048 14.1251-6.35543 14.1251-7.858 14.1251-9.35646 13.8399-10.4974 13.2734-11.2808 12.703-12.0722 11.8794-12.4699 10.7988-12.4699 9.71405-12.4699 8.88645-12.0722 8.30795-11.2808 7.73748-10.4853 7.45627-9.34442 7.45627-7.858 7.45627-6.36757 7.73749-5.2266 8.30795-4.4352 8.88645-3.63976 9.71405-3.24611 10.7988-3.24611ZM7.45629-13.4502C8.15129-14.3581 8.91864-15.0331 9.75426-15.475 10.5979-15.9129 11.5701-16.1339 12.6628-16.1339 14.6112-16.1339 16.2062-15.3625 17.4515-13.8199 18.6929-12.2772 19.3156-10.2886 19.3156-7.85802 19.3156-5.4355 18.6929-3.45501 17.4515-1.91233 16.2062-0.369647 14.6112 0.401693 12.6628 0.401693 11.5701 0.401693 10.5979 0.184751 9.75426-0.24109 8.91864-0.678985 8.15131-1.35789 7.45629-2.28195L7.45629-2.05691e-05 2.42653-2.05691e-05 2.42653-21.8865 7.45629-21.8865Z" fill="#FFFFFF" transform="matrix(1.00131 0 0 1 489.984 662.605)"/><path d="M0.353531-15.7477 5.38328-15.7477 9.62565-5.06102 13.2252-15.7477 18.255-15.7477 11.6343 1.49537C10.9674 3.23891 10.1921 4.4602 9.30426 5.15924 8.4124 5.8663 7.24736 6.21978 5.80114 6.21978L2.87643 6.21978 2.87643 2.90939 4.4512 2.90939C5.3069 2.90939 5.9296 2.76878 6.31527 2.49158 6.70897 2.22242 7.0143 1.74033 7.23123 1.04537L7.37585 0.611487Z" fill="#FFFFFF" transform="matrix(1.00131 0 0 1 510.624 662.605)"/><path d="M15.3785-3.82461 6.92581-3.82461 5.57596 0 0.144498 0 7.92218-20.9866 14.3661-20.9866 22.1437 0 16.7123 0ZM8.27576-7.7134 14.0126-7.7134 11.1522-16.0696Z" fill="#FFFFFF" transform="matrix(1.00131 0 0 1 539.458 662.605)"/><path d="M14.1248-11.458C13.6748-11.6589 13.2289-11.8115 12.791-11.9079 12.3611-12.0124 11.9272-12.0686 11.4894-12.0686 10.1918-12.0686 9.1954-11.6508 8.50047-10.8152 7.80145-9.98758 7.45598-8.80649 7.45598-7.26381L7.45598-0.000359959 2.42622-0.000359959 2.42622-15.748 7.45598-15.748 7.45598-13.1609C8.09876-14.1893 8.83801-14.9366 9.67353-15.4106 10.5172-15.8927 11.5256-16.1337 12.6946-16.1337 12.8633-16.1337 13.0481-16.1217 13.241-16.1016 13.4418-16.0895 13.7311-16.0614 14.1087-16.0212Z" fill="#FFFFFF" transform="matrix(1.00131 0 0 1 561.772 662.605)"/><path d="M7.92228-20.2153 7.92228-15.7479 13.1128-15.7479 13.1128-12.1483 7.92228-12.1483 7.92228-5.46335C7.92228-4.73218 8.0669-4.24206 8.35616-3.98495 8.64542-3.72783 9.21589-3.59928 10.0756-3.59928L12.6628-3.59928 12.6628 0.000308536 8.35616 0.000308536C6.36353 0.000308536 4.94941-0.409468 4.11379-1.23702 3.28621-2.07264 2.87646-3.47874 2.87646-5.46335L2.87646-12.1483 0.385649-12.1483 0.385649-15.7479 2.87646-15.7479 2.87646-20.2153Z" fill="#FFFFFF" transform="matrix(1.00131 0 0 1 575.992 662.605)"/><path d="M0.851683-20.9866 6.04218-20.9866 9.67386-5.73671 13.2734-20.9866 18.496-20.9866 22.0956-5.73671 25.7112-20.9866 30.8696-20.9866 25.9201 0 19.6691 0 15.8606-15.9575 12.1004 0 5.84935 0Z" fill="#FFFFFF" transform="matrix(1.00131 0 0 1 589.774 662.605)"/><path d="M9.91491-12.5348C8.79811-12.5348 7.94634-12.1331 7.35982-11.3295 6.76926-10.5261 6.47599-9.36911 6.47599-7.85851 6.47599-6.34792 6.76926-5.19091 7.35982-4.38748 7.94635-3.59204 8.79801-3.19839 9.91491-3.19839 11.0076-3.19839 11.8433-3.59209 12.4218-4.38748 13.0083-5.19096 13.3056-6.34792 13.3056-7.85851 13.3056-9.36911 13.0083-10.5261 12.4218-11.3295 11.8433-12.133 11.0076-12.5348 9.91491-12.5348ZM9.91491-16.1344C12.6226-16.1344 14.7398-15.3992 16.2624-13.9329 17.781-12.4745 18.5443-10.4498 18.5443-7.85862 18.5443-5.27545 17.781-3.25063 16.2624-1.78437 14.7398-0.32602 12.6226 0.401097 9.91491 0.401097 7.19115 0.401097 5.06595-0.326051 3.53531-1.78437 2.00065-3.25074 1.23733-5.27545 1.23733-7.85862 1.23733-10.4498 2.00064-12.4746 3.53531-13.9329 5.06595-15.3992 7.19115-16.1344 9.91491-16.1344Z" fill="#FFFFFF" transform="matrix(1.00131 0 0 1 621.581 662.605)"/><path d="M14.1248-11.458C13.6748-11.6589 13.2289-11.8115 12.791-11.9079 12.3611-12.0124 11.9272-12.0686 11.4894-12.0686 10.1918-12.0686 9.1954-11.6508 8.50047-10.8152 7.80145-9.98758 7.45598-8.80649 7.45598-7.26381L7.45598-0.000359959 2.42622-0.000359959 2.42622-15.748 7.45598-15.748 7.45598-13.1609C8.09876-14.1893 8.83801-14.9366 9.67353-15.4106 10.5172-15.8927 11.5256-16.1337 12.6946-16.1337 12.8633-16.1337 13.0481-16.1217 13.241-16.1016 13.4418-16.0895 13.7311-16.0614 14.1087-16.0212Z" fill="#FFFFFF" transform="matrix(1.00131 0 0 1 641.392 662.605)"/><path d="M2.42653-21.8865 7.45629-21.8865 7.45629-9.96263 13.2413-15.7477 19.0907-15.7477 11.4094-8.51642 19.7013 0.000411381 13.5948 0.000411381 7.45618-6.57202 7.45618 0.000411381 2.42643 0.000411381Z" fill="#FFFFFF" transform="matrix(1.00131 0 0 1 655.608 662.605)"/><path d="M2.65146-20.9866 8.05083-20.9866 8.05083-4.09736 17.564-4.09736 17.564 0.000411381 2.65146 0.000411381Z" fill="#FFFFFF" transform="matrix(1.00131 0 0 1 674.789 662.605)"/><path d="M18.1429-7.92228 18.1429-6.47607 6.36407-6.47607C6.49263-5.29499 6.91847-4.41114 7.64964-3.82461 8.37678-3.23405 9.40119-2.94078 10.719-2.94078 11.7795-2.94078 12.8602-3.09344 13.965-3.40679 15.0777-3.72818 16.2187-4.20224 17.3878-4.83696L17.3878-0.964216C16.1987-0.514268 15.0095-0.176812 13.8203 0.0481727 12.6312 0.281179 11.442 0.401704 10.2528 0.401704 7.40044 0.401704 5.18279-0.321422 3.59989-1.76772 2.02513-3.21393 1.23764-5.24276 1.23764-7.85811 1.23764-10.4292 2.013-12.4459 3.5677-13.9163 5.11841-15.3947 7.25162-16.1339 9.96345-16.1339 12.4381-16.1339 14.4187-15.3826 15.9091-13.8841 17.3956-12.3937 18.1428-10.4051 18.1428-7.92229ZM12.9686-9.59351C12.9686-10.5456 12.6874-11.313 12.133-11.8915 11.5746-12.478 10.8474-12.7753 9.94751-12.7753 8.97128-12.7753 8.1798-12.5021 7.56921-11.9558 6.95862-11.4094 6.57692-10.622 6.42824-9.59351Z" fill="#FFFFFF" transform="matrix(1.00131 0 0 1 693.16 662.605)"/><path d="M9.4811-7.08666C8.42859-7.08666 7.63709-6.90989 7.10281-6.55637 6.57653-6.20284 6.3154-5.67656 6.3154-4.9816 6.3154-4.33882 6.52832-3.83261 6.95819-3.47101 7.38403-3.11748 7.97459-2.94072 8.72589-2.94072 9.67801-2.94072 10.4774-3.27817 11.1202-3.95311 11.771-4.63606 12.1005-5.48776 12.1005-6.5082L12.1005-7.0867ZM17.1624-8.98292 17.1624 0 12.1005 0 12.1005-2.33006C11.4256-1.37392 10.6623-0.678882 9.81854-0.241069 8.97087 0.184772 7.94244 0.401714 6.73318 0.401714 5.10216 0.401714 3.78039-0.0683201 2.76397-1.01241 1.74355-1.96453 1.23733-3.20188 1.23733-4.72451 1.23733-6.56451 1.86806-7.91436 3.13359-8.77404 4.40713-9.6418 6.40377-10.0757 9.12752-10.0757L12.1004-10.0757 12.1004-10.4774C12.1004-11.2688 11.783-11.8473 11.1523-12.2129 10.5175-12.5865 9.53728-12.7753 8.2115-12.7753 7.12679-12.7753 6.12251-12.6669 5.19042-12.454 4.26641-12.237 3.41068-11.9156 2.61929-11.4898L2.61929-15.3304C3.68795-15.5875 4.76454-15.7844 5.84925-15.925 6.94198-16.0616 8.03471-16.1339 9.12744-16.1339 11.9637-16.1339 14.0126-15.5715 15.2661-14.4466 16.5276-13.3298 17.1623-11.5099 17.1623-8.98296Z" fill="#FFFFFF" transform="matrix(1.00131 0 0 1 712.714 662.605)"/><path d="M12.7754-21.8865 12.7754-18.5761 9.99543-18.5761C9.28837-18.5761 8.79019-18.4476 8.50099-18.1905 8.21977-17.9333 8.08318-17.4834 8.08318-16.8406L8.08318-15.7479 12.3898-15.7479 12.3898-12.1483 8.08318-12.1483 8.08318-0.000205691 3.05343-0.000205691 3.05343-12.1483 0.546571-12.1483 0.546571-15.7479 3.05343-15.7479 3.05343-16.8406C3.05343-18.5521 3.52748-19.8215 4.48359-20.6491 5.43571-21.4726 6.91815-21.8864 8.93484-21.8864Z" fill="#FFFFFF" transform="matrix(1.00131 0 0 1 732.176 662.605)"/><path d="M12.7754-21.8865 12.7754-18.5761 9.99543-18.5761C9.28837-18.5761 8.79019-18.4476 8.50099-18.1905 8.21977-17.9333 8.08318-17.4834 8.08318-16.8406L8.08318-15.7479 12.3898-15.7479 12.3898-12.1483 8.08318-12.1483 8.08318-0.000205691 3.05343-0.000205691 3.05343-12.1483 0.546571-12.1483 0.546571-15.7479 3.05343-15.7479 3.05343-16.8406C3.05343-18.5521 3.52748-19.8215 4.48359-20.6491 5.43571-21.4726 6.91815-21.8864 8.93484-21.8864Z" fill="#FFFFFF" transform="matrix(1.00131 0 0 1 351.568 691.402)"/><path d="M14.1248-11.458C13.6748-11.6589 13.2289-11.8115 12.791-11.9079 12.3611-12.0124 11.9272-12.0686 11.4894-12.0686 10.1918-12.0686 9.1954-11.6508 8.50047-10.8152 7.80145-9.98758 7.45598-8.80649 7.45598-7.26381L7.45598-0.000359959 2.42622-0.000359959 2.42622-15.748 7.45598-15.748 7.45598-13.1609C8.09876-14.1893 8.83801-14.9366 9.67353-15.4106 10.5172-15.8927 11.5256-16.1337 12.6946-16.1337 12.8633-16.1337 13.0481-16.1217 13.241-16.1016 13.4418-16.0895 13.7311-16.0614 14.1087-16.0212Z" fill="#FFFFFF" transform="matrix(1.00131 0 0 1 364.115 691.402)"/><path d="M9.91491-12.5348C8.79811-12.5348 7.94634-12.1331 7.35982-11.3295 6.76926-10.5261 6.47599-9.36911 6.47599-7.85851 6.47599-6.34792 6.76926-5.19091 7.35982-4.38748 7.94635-3.59204 8.79801-3.19839 9.91491-3.19839 11.0076-3.19839 11.8433-3.59209 12.4218-4.38748 13.0083-5.19096 13.3056-6.34792 13.3056-7.85851 13.3056-9.36911 13.0083-10.5261 12.4218-11.3295 11.8433-12.133 11.0076-12.5348 9.91491-12.5348ZM9.91491-16.1344C12.6226-16.1344 14.7398-15.3992 16.2624-13.9329 17.781-12.4745 18.5443-10.4498 18.5443-7.85862 18.5443-5.27545 17.781-3.25063 16.2624-1.78437 14.7398-0.32602 12.6226 0.401097 9.91491 0.401097 7.19115 0.401097 5.06595-0.326051 3.53531-1.78437 2.00065-3.25074 1.23733-5.27545 1.23733-7.85862 1.23733-10.4498 2.00064-12.4746 3.53531-13.9329 5.06595-15.3992 7.19115-16.1344 9.91491-16.1344Z" fill="#FFFFFF" transform="matrix(1.00131 0 0 1 378.335 691.402)"/><path d="M17.0178-13.1292C17.6485-14.1014 18.4039-14.8487 19.2836-15.3629 20.1594-15.8772 21.1236-16.1343 22.1761-16.1343 23.9839-16.1343 25.362-15.5718 26.306-14.447 27.2581-13.3302 27.7361-11.7152 27.7361-9.59393L27.7361-0.000411381 22.6742-0.000411381 22.6742-8.21199 22.6742-8.5816C22.6822-8.71819 22.6903-8.91102 22.6903-9.1601 22.6903-10.2729 22.5215-11.0764 22.1921-11.5706 21.8707-12.0728 21.3444-12.3259 20.6173-12.3259 19.6612-12.3259 18.922-11.9281 18.3998-11.1368 17.8735-10.3534 17.6043-9.21644 17.5963-7.73002L17.5963-0.000575934 12.5344-0.000575934 12.5344-8.21216C12.5344-9.95569 12.3817-11.0766 12.0844-11.5707 11.7831-12.0728 11.2488-12.3259 10.4775-12.3259 9.51329-12.3259 8.76602-11.9282 8.24377-11.1369 7.71749-10.3535 7.45636-9.22455 7.45636-7.74615L7.45636-0.00065821 2.39442-0.00065821 2.39442-15.7483 7.45636-15.7483 7.45636-13.4504C8.07504-14.3382 8.78214-15.0091 9.57755-15.459 10.381-15.909 11.2648-16.134 12.229-16.134 13.3217-16.134 14.2859-15.8688 15.1215-15.3465 15.9571-14.8203 16.5879-14.081 17.0178-13.129Z" fill="#FFFFFF" transform="matrix(1.00131 0 0 1 398.142 691.402)"/><path d="M7.92228-20.2153 7.92228-15.7479 13.1128-15.7479 13.1128-12.1483 7.92228-12.1483 7.92228-5.46335C7.92228-4.73218 8.0669-4.24206 8.35616-3.98495 8.64542-3.72783 9.21589-3.59928 10.0756-3.59928L12.6628-3.59928 12.6628 0.000308536 8.35616 0.000308536C6.36353 0.000308536 4.94941-0.409468 4.11379-1.23702 3.28621-2.07264 2.87646-3.47874 2.87646-5.46335L2.87646-12.1483 0.385649-12.1483 0.385649-15.7479 2.87646-15.7479 2.87646-20.2153Z" fill="#FFFFFF" transform="matrix(1.00131 0 0 1 438.228 691.402)"/><path d="M18.255-9.59351 18.255 0 13.1931 0 13.1931-7.31169C13.1931-8.69372 13.161-9.64175 13.0967-10.156 13.0324-10.6702 12.9239-11.0478 12.7753-11.2969 12.5825-11.6183 12.3133-11.8674 11.9718-12.0522 11.6384-12.233 11.2567-12.3254 10.8308-12.3254 9.77833-12.3254 8.95474-11.9156 8.35618-11.1041 7.75357-10.3006 7.45629-9.17977 7.45629-7.74559L7.45629-0.000102845 2.42653-0.000102845 2.42653-21.8866 7.45629-21.8866 7.45629-13.4501C8.21557-14.358 9.01902-15.033 9.86677-15.4749 10.7225-15.9128 11.6666-16.1338 12.695-16.1338 14.5149-16.1338 15.8969-15.5713 16.8409-14.4465 17.781-13.3297 18.255-11.7147 18.255-9.59343Z" fill="#FFFFFF" transform="matrix(1.00131 0 0 1 452.01 691.402)"/><path d="M18.1429-7.92228 18.1429-6.47607 6.36407-6.47607C6.49263-5.29499 6.91847-4.41114 7.64964-3.82461 8.37678-3.23405 9.40119-2.94078 10.719-2.94078 11.7795-2.94078 12.8602-3.09344 13.965-3.40679 15.0777-3.72818 16.2187-4.20224 17.3878-4.83696L17.3878-0.964216C16.1987-0.514268 15.0095-0.176812 13.8203 0.0481727 12.6312 0.281179 11.442 0.401704 10.2528 0.401704 7.40044 0.401704 5.18279-0.321422 3.59989-1.76772 2.02513-3.21393 1.23764-5.24276 1.23764-7.85811 1.23764-10.4292 2.013-12.4459 3.5677-13.9163 5.11841-15.3947 7.25162-16.1339 9.96345-16.1339 12.4381-16.1339 14.4187-15.3826 15.9091-13.8841 17.3956-12.3937 18.1428-10.4051 18.1428-7.92229ZM12.9686-9.59351C12.9686-10.5456 12.6874-11.313 12.133-11.8915 11.5746-12.478 10.8474-12.7753 9.94751-12.7753 8.97128-12.7753 8.1798-12.5021 7.56921-11.9558 6.95862-11.4094 6.57692-10.622 6.42824-9.59351Z" fill="#FFFFFF" transform="matrix(1.00131 0 0 1 472.537 691.402)"/><path d="M2.65146-20.9866 8.69362-20.9866 16.3267-6.58827 16.3267-20.9866 21.4529-20.9866 21.4529 0 15.4108 0 7.77768-14.3983 7.77768 0 2.65146 0Z" fill="#FFFFFF" transform="matrix(1.00131 0 0 1 502.132 691.402)"/><path d="M9.91491-12.5348C8.79811-12.5348 7.94634-12.1331 7.35982-11.3295 6.76926-10.5261 6.47599-9.36911 6.47599-7.85851 6.47599-6.34792 6.76926-5.19091 7.35982-4.38748 7.94635-3.59204 8.79801-3.19839 9.91491-3.19839 11.0076-3.19839 11.8433-3.59209 12.4218-4.38748 13.0083-5.19096 13.3056-6.34792 13.3056-7.85851 13.3056-9.36911 13.0083-10.5261 12.4218-11.3295 11.8433-12.133 11.0076-12.5348 9.91491-12.5348ZM9.91491-16.1344C12.6226-16.1344 14.7398-15.3992 16.2624-13.9329 17.781-12.4745 18.5443-10.4498 18.5443-7.85862 18.5443-5.27545 17.781-3.25063 16.2624-1.78437 14.7398-0.32602 12.6226 0.401097 9.91491 0.401097 7.19115 0.401097 5.06595-0.326051 3.53531-1.78437 2.00065-3.25074 1.23733-5.27545 1.23733-7.85862 1.23733-10.4498 2.00064-12.4746 3.53531-13.9329 5.06595-15.3992 7.19115-16.1344 9.91491-16.1344Z" fill="#FFFFFF" transform="matrix(1.00131 0 0 1 526.264 691.402)"/><path d="M2.24974-6.13863 2.24974-15.7483 7.31169-15.7483 7.31169-14.1735C7.31169-13.3138 7.30365-12.2452 7.29562-10.9596 7.28356-9.67404 7.27955-8.81436 7.27955-8.38848 7.27955-7.11093 7.31169-6.19499 7.37596-5.64055 7.44828-5.08213 7.56077-4.6804 7.71342-4.43531 7.92634-4.10186 8.19953-3.84475 8.53297-3.66397 8.8624-3.49122 9.24406-3.40685 9.67394-3.40685 10.7224-3.40685 11.546-3.80859 12.1486-4.6121 12.7472-5.41558 13.0485-6.53243 13.0485-7.97062L13.0485-15.7483 18.0783-15.7483 18.0783-0.000617072 13.0485-0.000617072 13.0485-2.28255C12.2852-1.35855 11.4818-0.679602 10.638-0.241687 9.79034 0.184155 8.85426 0.401097 7.82581 0.401097 6.01398 0.401097 4.63195-0.153301 3.67991-1.27014 2.72377-2.38293 2.24974-4.00603 2.24974-6.13925Z" fill="#FFFFFF" transform="matrix(1.00131 0 0 1 546.076 691.402)"/><path d="M18.255-9.59351 18.255 0 13.1931 0 13.1931-7.34377C13.1931-8.70164 13.161-9.64175 13.0967-10.156 13.0324-10.6702 12.9239-11.0478 12.7753-11.2969 12.5825-11.6183 12.3133-11.8674 11.9718-12.0522 11.6384-12.233 11.2567-12.3254 10.8308-12.3254 9.77833-12.3254 8.95474-11.9156 8.35618-11.1041 7.75357-10.3006 7.45629-9.17977 7.45629-7.74559L7.45629-0.000102845 2.42653-0.000102845 2.42653-15.7478 7.45629-15.7478 7.45629-13.4498C8.21557-14.3577 9.01902-15.0327 9.86677-15.4746 10.7225-15.9125 11.6666-16.1335 12.695-16.1335 14.5149-16.1335 15.8969-15.571 16.8409-14.4462 17.781-13.3294 18.255-11.7144 18.255-9.59312Z" fill="#FFFFFF" transform="matrix(1.00131 0 0 1 566.603 691.402)"/><path d="M2.65146-20.9866 11.6344-20.9866C14.302-20.9866 16.3468-20.392 17.773-19.2029 19.2072-18.0218 19.9264-16.3344 19.9264-14.1409 19.9264-11.9434 19.2073-10.2521 17.773-9.06293 16.3469-7.87384 14.302-7.27919 11.6344-7.27919L8.05083-7.27919 8.05083 0.000308536 2.65146 0.000308536ZM8.05083-17.0656 8.05083-11.2003 11.0559-11.2003C12.1044-11.2003 12.9119-11.4574 13.4824-11.9716 14.0609-12.4858 14.3502-13.2089 14.3502-14.141 14.3502-15.0811 14.0609-15.8042 13.4824-16.3104 12.9119-16.8126 12.1045-17.0657 11.0559-17.0657Z" fill="#FFFFFF" transform="matrix(1.00131 0 0 1 597.167 691.402)"/><path d="M14.1248-11.458C13.6748-11.6589 13.2289-11.8115 12.791-11.9079 12.3611-12.0124 11.9272-12.0686 11.4894-12.0686 10.1918-12.0686 9.1954-11.6508 8.50047-10.8152 7.80145-9.98758 7.45598-8.80649 7.45598-7.26381L7.45598-0.000359959 2.42622-0.000359959 2.42622-15.748 7.45598-15.748 7.45598-13.1609C8.09876-14.1893 8.83801-14.9366 9.67353-15.4106 10.5172-15.8927 11.5256-16.1337 12.6946-16.1337 12.8633-16.1337 13.0481-16.1217 13.241-16.1016 13.4418-16.0895 13.7311-16.0614 14.1087-16.0212Z" fill="#FFFFFF" transform="matrix(1.00131 0 0 1 618.302 691.402)"/><path d="M9.91491-12.5348C8.79811-12.5348 7.94634-12.1331 7.35982-11.3295 6.76926-10.5261 6.47599-9.36911 6.47599-7.85851 6.47599-6.34792 6.76926-5.19091 7.35982-4.38748 7.94635-3.59204 8.79801-3.19839 9.91491-3.19839 11.0076-3.19839 11.8433-3.59209 12.4218-4.38748 13.0083-5.19096 13.3056-6.34792 13.3056-7.85851 13.3056-9.36911 13.0083-10.5261 12.4218-11.3295 11.8433-12.133 11.0076-12.5348 9.91491-12.5348ZM9.91491-16.1344C12.6226-16.1344 14.7398-15.3992 16.2624-13.9329 17.781-12.4745 18.5443-10.4498 18.5443-7.85862 18.5443-5.27545 17.781-3.25063 16.2624-1.78437 14.7398-0.32602 12.6226 0.401097 9.91491 0.401097 7.19115 0.401097 5.06595-0.326051 3.53531-1.78437 2.00065-3.25074 1.23733-5.27545 1.23733-7.85862 1.23733-10.4498 2.00064-12.4746 3.53531-13.9329 5.06595-15.3992 7.19115-16.1344 9.91491-16.1344Z" fill="#FFFFFF" transform="matrix(1.00131 0 0 1 632.518 691.402)"/><path d="M2.42653-15.7477 7.45629-15.7477 7.45629-0.288995C7.45629 1.82016 6.94608 3.43113 5.92965 4.54792 4.92128 5.66071 3.45499 6.21916 1.52664 6.21916L-0.964175 6.21916-0.964175 2.90877-0.0803428 2.90877C0.871779 2.90877 1.52662 2.69183 1.88009 2.26599 2.24166 1.83613 2.42646 0.984435 2.42646-0.289098ZM2.42653-21.8863 7.45629-21.8863 7.45629-17.7725 2.42653-17.7725Z" fill="#FFFFFF" transform="matrix(1.00131 0 0 1 652.33 691.402)"/><path d="M18.1429-7.92228 18.1429-6.47607 6.36407-6.47607C6.49263-5.29499 6.91847-4.41114 7.64964-3.82461 8.37678-3.23405 9.40119-2.94078 10.719-2.94078 11.7795-2.94078 12.8602-3.09344 13.965-3.40679 15.0777-3.72818 16.2187-4.20224 17.3878-4.83696L17.3878-0.964216C16.1987-0.514268 15.0095-0.176812 13.8203 0.0481727 12.6312 0.281179 11.442 0.401704 10.2528 0.401704 7.40044 0.401704 5.18279-0.321422 3.59989-1.76772 2.02513-3.21393 1.23764-5.24276 1.23764-7.85811 1.23764-10.4292 2.013-12.4459 3.5677-13.9163 5.11841-15.3947 7.25162-16.1339 9.96345-16.1339 12.4381-16.1339 14.4187-15.3826 15.9091-13.8841 17.3956-12.3937 18.1428-10.4051 18.1428-7.92229ZM12.9686-9.59351C12.9686-10.5456 12.6874-11.313 12.133-11.8915 11.5746-12.478 10.8474-12.7753 9.94751-12.7753 8.97128-12.7753 8.1798-12.5021 7.56921-11.9558 6.95862-11.4094 6.57692-10.622 6.42824-9.59351Z" fill="#FFFFFF" transform="matrix(1.00131 0 0 1 662.214 691.402)"/><path d="M15.1378-15.2499 15.1378-11.1521C14.4629-11.6222 13.7759-11.9717 13.0809-12.1966 12.3939-12.4216 11.6828-12.5341 10.9437-12.5341 9.53757-12.5341 8.44082-12.1203 7.64943-11.2968 6.86604-10.4812 6.47638-9.33632 6.47638-7.85781 6.47638-6.38743 6.86607-5.24246 7.64943-4.41887 8.44086-3.60334 9.53757-3.19758 10.9437-3.19758 11.723-3.19758 12.4703-3.31008 13.1774-3.53504 13.8844-3.76805 14.5352-4.11757 15.1378-4.57954L15.1378-0.465725C14.3544-0.176472 13.5549 0.0364484 12.7435 0.177059 11.94 0.325701 11.1245 0.402033 10.3009 0.402033 7.46061 0.402033 5.23894-0.325115 3.63198-1.78343 2.03305-3.23777 1.23764-5.26248 1.23764-7.85768 1.23764-10.4609 2.03309-12.4897 3.63198-13.9481 5.23894-15.4024 7.46061-16.1335 10.3009-16.1335 11.1244-16.1335 11.94-16.0572 12.7435-15.9086 13.5469-15.768 14.3424-15.547 15.1378-15.2497Z" fill="#FFFFFF" transform="matrix(1.00131 0 0 1 681.772 691.402)"/><path d="M7.92228-20.2153 7.92228-15.7479 13.1128-15.7479 13.1128-12.1483 7.92228-12.1483 7.92228-5.46335C7.92228-4.73218 8.0669-4.24206 8.35616-3.98495 8.64542-3.72783 9.21589-3.59928 10.0756-3.59928L12.6628-3.59928 12.6628 0.000308536 8.35616 0.000308536C6.36353 0.000308536 4.94941-0.409468 4.11379-1.23702 3.28621-2.07264 2.87646-3.47874 2.87646-5.46335L2.87646-12.1483 0.385649-12.1483 0.385649-15.7479 2.87646-15.7479 2.87646-20.2153Z" fill="#FFFFFF" transform="matrix(1.00131 0 0 1 698.86 691.402)"/></g></svg>