<svg width="553" height="551" xmlns="http://www.w3.org/2000/svg" xmlns:xlink="http://www.w3.org/1999/xlink" overflow="hidden"><defs><clipPath id="clip0"><rect x="360" y="12" width="553" height="551"/></clipPath></defs><g clip-path="url(#clip0)" transform="translate(-360 -12)"><path d="M285.174 276.458C262.398 276.458 240.553 285.504 224.445 301.612 208.338 317.72 199.288 339.565 199.288 362.345 199.288 385.121 208.337 406.966 224.445 423.073 240.553 439.181 262.398 448.231 285.174 448.231 307.954 448.231 329.799 439.182 345.907 423.073 362.015 406.965 371.061 385.121 371.061 362.345 371.061 339.565 362.015 317.72 345.907 301.612 329.799 285.504 307.954 276.458 285.174 276.458ZM285.174 421.163 285.174 421.159C269.548 421.159 254.561 414.948 243.512 403.895 232.463 392.842 226.261 377.85 226.269 362.225 226.277 346.595 232.496 331.611 243.556 320.571 254.614 309.526 269.609 303.331 285.235 303.347 300.865 303.363 315.844 309.59 326.881 320.655 337.918 331.72 344.105 346.715 344.081 362.345 344.081 377.958 337.874 392.93 326.825 403.963 315.776 414.995 300.793 421.182 285.175 421.158Z" fill="#FFFFFF" transform="matrix(1.00083 0 0 1 279.8 0.481413)"/><path d="M462.522 317.828 435.542 317.828C430.937 317.703 426.552 315.812 423.297 312.552 420.04 309.288 418.162 304.9 418.049 300.29 417.933 295.685 419.591 291.209 422.682 287.788L441.837 268.633C444.387 266.116 445.82 262.683 445.82 259.098 445.82 255.516 444.387 252.084 441.837 249.566L398.04 205.769C395.522 203.219 392.09 201.786 388.508 201.786 384.927 201.786 381.494 203.219 378.977 205.769L359.729 224.835C357.192 227.236 353.992 228.818 350.544 229.38 347.099 229.942 343.562 229.453 340.394 227.983 337.222 226.755 334.484 224.611 332.529 221.824 330.578 219.038 329.494 215.738 329.421 212.333L329.421 185.353C329.421 177.906 323.383 171.863 315.932 171.863L254.24 171.863C246.788 171.863 240.75 177.906 240.75 185.353L240.75 212.333C240.597 216.97 238.658 221.371 235.338 224.61 232.017 227.85 227.573 229.685 222.936 229.725 218.295 229.769 213.819 228.015 210.442 224.835L191.287 205.68C185.923 200.653 177.58 200.653 172.22 205.68L128.423 249.298C125.873 251.815 124.44 255.248 124.44 258.829 124.44 262.41 125.873 265.847 128.423 268.364L147.578 287.788C149.918 290.265 151.48 293.376 152.07 296.733 152.661 300.089 152.259 303.546 150.906 306.674 149.674 309.93 147.486 312.736 144.627 314.727 141.772 316.719 138.38 317.799 134.899 317.827L107.919 317.827C100.468 317.827 94.4292 323.865 94.4292 331.317L94.4292 393.282 94.4292 393.278C94.4292 400.73 100.468 406.768 107.919 406.768L134.899 406.768C139.548 406.9 143.96 408.824 147.22 412.14 150.48 415.456 152.327 419.905 152.379 424.554 152.427 429.203 150.677 433.691 147.489 437.076L128.422 456.232C125.873 458.749 124.44 462.182 124.44 465.767 124.44 469.348 125.873 472.781 128.422 475.298L172.22 519.096C174.737 521.645 178.17 523.078 181.751 523.078 185.337 523.078 188.769 521.645 191.287 519.096L210.442 499.941C213.015 497.6 216.211 496.062 219.644 495.5 223.077 494.942 226.594 495.392 229.777 496.793 232.973 498.042 235.719 500.214 237.675 503.032 239.63 505.854 240.698 509.191 240.75 512.62L240.75 539.599C240.75 547.051 246.788 553.089 254.24 553.089L316.205 553.089 316.201 553.089C323.653 553.089 329.691 547.051 329.691 539.599L329.691 512.62C329.86 508.035 331.779 503.682 335.047 500.463 338.319 497.243 342.695 495.396 347.284 495.3 351.873 495.199 356.325 496.861 359.729 499.941L378.885 519.096C381.402 521.645 384.835 523.079 388.42 523.079 392.001 523.079 395.434 521.645 397.951 519.096L441.749 475.298C447.008 470.031 447.008 461.499 441.749 456.231L422.682 437.076C420.281 434.539 418.699 431.339 418.137 427.89 417.575 424.445 418.065 420.908 419.534 417.741 420.763 414.569 422.907 411.831 425.693 409.876 428.48 407.924 431.78 406.84 435.184 406.768L462.164 406.768C469.612 406.768 475.654 400.73 475.654 393.278L475.654 331.317C475.654 324.002 469.833 318.019 462.522 317.827ZM449.032 379.793 435.361 379.789C423.577 379.953 412.328 384.739 404.033 393.118 395.743 401.497 391.07 412.796 391.026 424.582 390.981 436.369 395.566 447.704 403.797 456.143L413.69 465.767 388.959 490.498 379.335 480.874C370.896 472.507 359.493 467.822 347.61 467.842 335.729 467.858 324.339 472.579 315.925 480.97 307.514 489.361 302.764 500.738 302.712 512.619L302.712 526.109 267.731 526.109 267.731 512.619C267.587 500.823 262.817 489.554 254.442 481.243 246.071 472.932 234.764 468.247 222.969 468.195 211.17 468.143 199.823 472.728 191.377 480.963L181.753 490.586 157.022 465.767 166.646 456.143C174.888 447.688 179.473 436.33 179.413 424.522 179.353 412.714 174.651 401.404 166.321 393.037 157.994 384.666 146.708 379.909 134.901 379.788L121.411 379.788 121.411 344.806 134.901 344.806C143.661 344.75 152.209 342.088 159.452 337.154 166.691 332.22 172.295 325.242 175.552 317.104 178.992 309.066 179.972 300.189 178.37 291.598 176.772 283.002 172.661 275.073 166.558 268.813L157.023 258.829 181.754 233.828 191.378 243.452C199.817 251.678 211.151 256.268 222.939 256.219 234.726 256.175 246.024 251.506 254.403 243.215 262.782 234.921 267.568 223.671 267.732 211.884L267.732 198.487 302.718 198.487 302.718 212.157 302.714 212.157C302.882 223.941 307.668 235.19 316.043 243.485 324.422 251.775 335.721 256.448 347.507 256.493 359.294 256.537 370.629 251.952 379.068 243.721L388.692 233.829 413.692 258.829 403.799 268.452C395.569 276.892 390.984 288.225 391.028 300.013 391.072 311.801 395.745 323.099 404.036 331.477 412.331 339.852 423.581 344.638 435.363 344.807L449.034 344.807Z" fill="#FFFFFF" transform="matrix(1.00083 0 0 1 279.8 0.481413)"/><path d="M434.288 127.437C413.447 127.493 393.336 135.134 377.719 148.929 375.049 151.313 373.435 154.666 373.23 158.239 373.029 161.816 374.254 165.325 376.639 167.995 381.605 173.56 390.141 174.042 395.705 169.075 410.941 157.039 431.124 153.285 449.669 159.034 468.214 164.787 482.731 179.305 488.485 197.85 494.234 216.395 490.48 236.578 478.444 251.814 473.522 257.391 474 265.894 479.524 270.881 485.101 275.803 493.604 275.321 498.591 269.801 513.249 253.195 520.925 231.563 520.014 209.43 519.103 187.3 509.676 166.374 493.701 151.026 477.725 135.681 456.439 127.102 434.288 127.077Z" fill="#FFFFFF" transform="matrix(1.00083 0 0 1 279.8 0.481413)"/><path d="M611.543 168.806 584.563 168.806C581.17 168.75 577.866 167.686 575.08 165.751 572.294 163.812 570.146 161.086 568.913 157.922L568.913 157.111 568.913 157.115C567.608 154.016 567.239 150.603 567.845 147.295 568.451 143.991 570.013 140.931 572.334 138.498L591.489 119.343C596.748 114.075 596.748 105.544 591.489 100.276L547.241 56.4784C541.881 51.4519 533.538 51.4519 528.174 56.4784L509.019 75.6336C506.586 77.9542 503.527 79.5159 500.222 80.1222 496.914 80.7285 493.501 80.3591 490.402 79.0542L489.591 79.0542 489.595 79.0542C486.359 77.7935 483.585 75.5774 481.642 72.7027 479.698 69.8241 478.675 66.4275 478.711 62.9546L478.711 35.9748C478.711 28.5232 472.672 22.4849 465.221 22.4849L403.26 22.4849C395.808 22.4849 389.77 28.5232 389.77 35.9748L389.77 62.9546C389.714 66.3472 388.65 69.6514 386.71 72.4378 384.775 75.224 382.049 77.372 378.885 78.6046L377.986 78.6046C374.979 79.9013 371.659 80.3109 368.427 79.7849 365.191 79.2589 362.172 77.8216 359.731 75.6335L340.307 56.4783C334.943 51.4518 326.6 51.4518 321.24 56.4783L277.443 100.276C274.893 102.793 273.46 106.226 273.46 109.807 273.46 113.393 274.893 116.825 277.443 119.343L296.778 138.498C302.093 143.452 310.375 143.304 315.511 138.169 320.65 133.029 320.795 124.746 315.845 119.432L305.771 109.808 330.502 85.077 340.126 94.7007C346.385 100.803 354.315 104.914 362.91 106.516 371.506 108.118 380.383 107.135 388.42 103.694L389.139 103.694C397.133 100.37 403.962 94.7528 408.764 87.5501 413.566 80.3475 416.123 71.8803 416.119 63.2241L416.119 49.4649 451.104 49.4649 451.1 62.9548C451.125 71.5947 453.698 80.0338 458.496 87.2161 463.298 94.3987 470.111 100.007 478.081 103.336L479.068 103.786 479.072 103.786C487.11 107.223 495.987 108.206 504.582 106.604 513.174 105.006 521.103 100.895 527.367 94.7928L536.99 85.1691 561.721 109.9 552.098 119.524C545.983 125.775 541.864 133.704 540.261 142.304 538.664 150.9 539.651 159.781 543.104 167.814L543.104 168.806C546.432 176.775 552.037 183.589 559.22 188.391 566.402 193.188 574.841 195.762 583.481 195.786L598.051 195.786 598.051 230.771 584.561 230.767C575.905 230.763 567.438 233.321 560.235 238.126 553.033 242.928 547.416 249.753 544.092 257.747L544.092 258.47C540.651 266.508 539.671 275.384 541.269 283.976 542.871 292.572 546.982 300.501 553.085 306.76L562.708 316.384 537.708 341.746 528.085 331.853C525.688 328.878 522.147 327.056 518.332 326.839 514.518 326.626 510.793 328.035 508.078 330.725 505.364 333.411 503.919 337.125 504.096 340.939 504.276 344.757 506.063 348.318 509.018 350.739L528.173 369.894C533.441 375.154 541.972 375.154 547.24 369.894L591.038 326.097C596.297 320.833 596.297 312.297 591.038 307.034L571.883 287.786C569.674 285.417 568.181 282.471 567.575 279.287 566.972 276.103 567.278 272.815 568.462 269.8 568.478 269.499 568.478 269.202 568.462 268.9 569.678 265.616 571.878 262.786 574.757 260.79 577.636 258.795 581.06 257.735 584.561 257.747L611.541 257.747C618.993 257.747 625.031 251.709 625.031 244.257L625.031 182.296C625.031 174.845 618.993 168.806 611.541 168.806Z" fill="#FFFFFF" transform="matrix(1.00083 0 0 1 279.8 0.481413)"/><path d="M30.127-1.79866C28.5732-0.995684 26.9513-0.389435 25.2609 0.0160337 23.5787 0.433579 21.8283 0.642356 20.0095 0.642356 14.5493 0.642356 10.2173-0.883314 7.01702-3.93455 3.82517-6.98589 2.23136-11.1292 2.23136-16.3648 2.23136-21.6004 3.82528-25.7435 7.01702-28.7951 10.2169-31.8464 14.5489-33.372 20.0095-33.372 21.8282-33.372 23.5787-33.1672 25.2609-32.7617 26.9512-32.3522 28.5732-31.7419 30.127-30.931L30.127-24.1539C28.5532-25.2218 27.0034-26.0047 25.4858-26.4985 23.9642-27.0003 22.3622-27.2533 20.684-27.2533 17.6649-27.2533 15.2921-26.2817 13.5697-24.3465 11.8433-22.4194 10.9841-19.7576 10.9841-16.365 10.9841-12.9805 11.8433-10.3187 13.5697-8.38353 15.2921-6.4564 17.6649-5.49284 20.684-5.49284 22.3622-5.49284 23.9642-5.73774 25.4858-6.23157 27.0035-6.73342 28.5532-7.52033 30.127-8.59233Z" fill="#FFFFFF" transform="matrix(1.00083 0 0 1 351.806 710.95)"/><path d="M22.0495-17.8899C21.3509-18.2111 20.6603-18.444 19.9778-18.5966 19.3033-18.7571 18.6208-18.8375 17.9382-18.8375 15.9147-18.8375 14.357-18.187 13.2649-16.8943 12.1809-15.5975 11.643-13.7386 11.643-11.3216L11.643 0.000637238 3.77389 0.000637238 3.77389-24.5865 11.643-24.5865 11.643-20.5555C12.6467-22.1615 13.803-23.3338 15.1118-24.0726 16.4286-24.8113 18.0025-25.1806 19.8333-25.1806 20.0903-25.1806 20.3713-25.1686 20.6845-25.1485 20.9936-25.1244 21.4393-25.0763 22.0174-25.004Z" fill="#FFFFFF" transform="matrix(1.00083 0 0 1 384.835 710.95)"/><path d="M28.3283-12.3655 28.3283-10.1172 9.93988-10.1172C10.1326-8.27433 10.795-6.89327 11.9312-5.9739 13.0755-5.05048 14.6774-4.59274 16.733-4.59274 18.3792-4.59274 20.0734-4.83363 21.8078-5.31541 23.5422-5.80522 25.3249-6.55196 27.1556-7.54769L27.1556-1.49332C25.3007-0.786701 23.4458-0.256766 21.5829 0.0965929 19.72 0.457927 17.8612 0.642613 16.0103 0.642613 11.5538 0.642613 8.09302-0.485606 5.62023-2.74595 3.15515-5.01431 1.92651-8.19012 1.92651-12.2692 1.92651-16.284 3.135-19.4357 5.55589-21.7281 7.9849-24.0287 11.3212-25.1809 15.5609-25.1809 19.4232-25.1809 22.5186-24.0126 24.8432-21.68 27.1638-19.3554 28.3281-16.252 28.3281-12.3656ZM20.2504-14.9671C20.2504-16.4646 19.8088-17.6691 18.9336-18.5804 18.0664-19.4998 16.9302-19.9616 15.529-19.9616 13.9953-19.9616 12.7547-19.532 11.8032-18.6768 10.8597-17.8176 10.2695-16.581 10.0366-14.9671Z" fill="#FFFFFF" transform="matrix(1.00083 0 0 1 407.028 710.95)"/><path d="M14.7911-11.0653C13.153-11.0653 11.9205-10.7843 11.0974-10.2302 10.2703-9.67217 9.86084-8.85319 9.86084-7.77317 9.86084-6.77749 10.1901-5.99456 10.8565-5.42855 11.519-4.87048 12.4464-4.59346 13.6348-4.59346 15.1122-4.59346 16.3528-5.12341 17.3606-6.18337 18.3763-7.24324 18.8862-8.56818 18.8862-10.1661L18.8862-11.0654ZM26.8041-14.0363 26.8041-0.000616682 18.8868-0.000616682 18.8868-3.64613C17.8269-2.15664 16.6385-1.06861 15.3216-0.386043 14.0046 0.296521 12.4028 0.64176 10.5198 0.64176 7.9703 0.64176 5.89866-0.100992 4.30475-1.59053 2.71885-3.07601 1.92795-5.00314 1.92795-7.37192 1.92795-10.2626 2.91561-12.3744 4.89892-13.7154 6.89029-15.0644 10.0059-15.739 14.2456-15.739L18.8867-15.739 18.8867-16.3653C18.8867-17.6058 18.3929-18.5173 17.4092-19.0953 16.4336-19.6735 14.904-19.9625 12.8162-19.9625 11.134-19.9625 9.57224-19.7899 8.12684-19.4486 6.68154-19.1154 5.33245-18.6135 4.07986-17.939L4.07986-23.9291C5.77009-24.3467 7.46041-24.6558 9.15464-24.8606 10.8569-25.0734 12.5512-25.1818 14.2455-25.1818 18.6859-25.1818 21.8897-24.3025 23.849-22.548 25.8164-20.8016 26.804-17.9631 26.804-14.0366Z" fill="#FFFFFF" transform="matrix(1.00083 0 0 1 437.55 710.95)"/><path d="M12.3655-31.5731 12.3655-24.5872 20.4594-24.5872 20.4594-18.9664 12.3655-18.9664 12.3655-8.54341C12.3655-7.39514 12.5903-6.62028 13.04-6.21482 13.4897-5.81734 14.389-5.62062 15.738-5.62062L19.785-5.62062 19.785 0.000226117 13.04 0.000226117C9.93253 0.000226117 7.73232-0.646169 6.43955-1.94294 5.14277-3.23571 4.49638-5.43582 4.49638-8.54339L4.49638-18.9663 0.593916-18.9663 0.593916-24.5872 4.49638-24.5872 4.49638-31.5731Z" fill="#FFFFFF" transform="matrix(1.00083 0 0 1 467.92 710.95)"/><path d="M28.3283-12.3655 28.3283-10.1172 9.93988-10.1172C10.1326-8.27433 10.795-6.89327 11.9312-5.9739 13.0755-5.05048 14.6774-4.59274 16.733-4.59274 18.3792-4.59274 20.0734-4.83363 21.8078-5.31541 23.5422-5.80522 25.3249-6.55196 27.1556-7.54769L27.1556-1.49332C25.3007-0.786701 23.4458-0.256766 21.5829 0.0965929 19.72 0.457927 17.8612 0.642613 16.0103 0.642613 11.5538 0.642613 8.09302-0.485606 5.62023-2.74595 3.15515-5.01431 1.92651-8.19012 1.92651-12.2692 1.92651-16.284 3.135-19.4357 5.55589-21.7281 7.9849-24.0287 11.3212-25.1809 15.5609-25.1809 19.4232-25.1809 22.5186-24.0126 24.8432-21.68 27.1638-19.3554 28.3281-16.252 28.3281-12.3656ZM20.2504-14.9671C20.2504-16.4646 19.8088-17.6691 18.9336-18.5804 18.0664-19.4998 16.9302-19.9616 15.529-19.9616 13.9953-19.9616 12.7547-19.532 11.8032-18.6768 10.8597-17.8176 10.2695-16.581 10.0366-14.9671Z" fill="#FFFFFF" transform="matrix(1.00083 0 0 1 489.433 710.95)"/><path d="M20.5078-20.9898 20.5078-34.158 28.409-34.158 28.409 0 20.5078 0 20.5078-3.54911C19.4237-2.10381 18.2314-1.04384 16.9265-0.36929 15.6177 0.305206 14.108 0.642459 12.3978 0.642459 9.36657 0.642459 6.87734-0.562023 4.93017-2.97089 2.99101-5.37985 2.02344-8.47929 2.02344-12.2693 2.02344-16.0593 2.99102-19.1588 4.93017-21.5677 6.87734-23.9767 9.36657-25.1811 12.3978-25.1811 14.1-25.1811 15.6016-24.8358 16.9104-24.1533 18.2273-23.4788 19.4237-22.4229 20.5078-20.9896ZM15.3205-5.07529C17.0108-5.07529 18.2955-5.68957 19.1748-6.92215 20.0621-8.15068 20.5078-9.9333 20.5078-12.2699 20.5078-14.6145 20.0621-16.4012 19.1748-17.6338 18.2955-18.8623 17.0108-19.4807 15.3205-19.4807 13.6504-19.4807 12.3696-18.8624 11.4823-17.6338 10.6031-16.4013 10.1655-14.6146 10.1655-12.2699 10.1655-9.9333 10.6031-8.15068 11.4823-6.92215 12.3696-5.68961 13.6504-5.07529 15.3205-5.07529Z" fill="#FFFFFF" transform="matrix(1.00083 0 0 1 519.955 710.95)"/><path d="M16.8621-5.07478C18.5403-5.07478 19.8251-5.68905 20.7164-6.92164 21.6037-8.15017 22.0494-9.93279 22.0494-12.2694 22.0494-14.614 21.6037-16.4007 20.7164-17.6333 19.8251-18.8618 18.5403-19.4802 16.8621-19.4802 15.1799-19.4802 13.8912-18.8579 12.9918-17.6173 12.0925-16.3847 11.6428-14.6021 11.6428-12.2695 11.6428-9.94492 12.0925-8.1623 12.9918-6.92174 13.8912-5.6892 15.1799-5.07488 16.8621-5.07488ZM11.6428-20.9893C12.7229-22.4225 13.9233-23.4785 15.2402-24.153 16.557-24.8355 18.0706-25.1808 19.785-25.1808 22.8122-25.1808 25.3014-23.9763 27.2526-21.5674 29.1998-19.1585 30.1755-16.059 30.1755-12.269 30.1755-8.47896 29.1999-5.37952 27.2526-2.97056 25.3014-0.561592 22.8122 0.642788 19.785 0.642788 18.0706 0.642788 16.5571 0.297508 15.2402-0.385015 13.9232-1.06754 12.7229-2.12344 11.6428-3.5487L11.6428 0.000411121 3.77378 0.000411121 3.77378-34.1576 11.6428-34.1576Z" fill="#FFFFFF" transform="matrix(1.00083 0 0 1 567.836 710.95)"/><path d="M0.54602-24.5871 8.41509-24.5871 15.0155-7.90175 20.6364-24.5871 28.5054-24.5871 18.1637 2.329C17.1239 5.06717 15.9074 6.97817 14.5182 8.06219 13.137 9.15423 11.3103 9.7003 9.04194 9.7003L4.4971 9.7003 4.4971 4.54525 6.95417 4.54525C8.29113 4.54525 9.25871 4.32845 9.8609 3.90288 10.4712 3.48533 10.9449 2.72255 11.2902 1.62239L11.4989 0.947891Z" fill="#FFFFFF" transform="matrix(1.00083 0 0 1 600.05 710.95)"/><path d="M30.127-1.79866C28.5732-0.995684 26.9513-0.389435 25.2609 0.0160337 23.5787 0.433579 21.8283 0.642356 20.0095 0.642356 14.5493 0.642356 10.2173-0.883314 7.01702-3.93455 3.82517-6.98589 2.23136-11.1292 2.23136-16.3648 2.23136-21.6004 3.82528-25.7435 7.01702-28.7951 10.2169-31.8464 14.5489-33.372 20.0095-33.372 21.8282-33.372 23.5787-33.1672 25.2609-32.7617 26.9512-32.3522 28.5732-31.7419 30.127-30.931L30.127-24.1539C28.5532-25.2218 27.0034-26.0047 25.4858-26.4985 23.9642-27.0003 22.3622-27.2533 20.684-27.2533 17.6649-27.2533 15.2921-26.2817 13.5697-24.3465 11.8433-22.4194 10.9841-19.7576 10.9841-16.365 10.9841-12.9805 11.8433-10.3187 13.5697-8.38353 15.2921-6.4564 17.6649-5.49284 20.684-5.49284 22.3622-5.49284 23.9642-5.73774 25.4858-6.23157 27.0035-6.73342 28.5532-7.52033 30.127-8.59233Z" fill="#FFFFFF" transform="matrix(1.00083 0 0 1 645.054 710.95)"/><path d="M15.4808-19.5601C13.7343-19.5601 12.4014-18.9338 11.482-17.6812 10.5706-16.4285 10.117-14.6218 10.117-12.2692 10.117-9.91244 10.5707-8.10978 11.482-6.85719 12.4014-5.60451 13.7343-4.97827 15.4808-4.97827 17.1911-4.97827 18.4999-5.60459 19.3993-6.85719 20.3066-8.10988 20.7643-9.91254 20.7643-12.2692 20.7643-14.6219 20.3066-16.4286 19.3993-17.6812 18.4999-18.9339 17.1911-19.5601 15.4808-19.5601ZM15.4808-25.181C19.7084-25.181 23.0126-24.0407 25.3894-21.7603 27.7662-19.4799 28.9546-16.3162 28.9546-12.2692 28.9546-8.23024 27.7663-5.06655 25.3894-2.77805 23.0126-0.497559 19.7084 0.642582 15.4808 0.642582 11.2291 0.642582 7.90473-0.497662 5.50789-2.77805 3.11907-5.06655 1.92662-8.23024 1.92662-12.2692 1.92662-16.3162 3.11907-19.4798 5.50789-21.7603 7.90473-24.0408 11.2291-25.181 15.4808-25.181Z" fill="#FFFFFF" transform="matrix(1.00083 0 0 1 678.084 710.95)"/><path d="M3.77399-34.158 11.6431-34.158 11.6431 0 3.77399 0Z" fill="#FFFFFF" transform="matrix(1.00083 0 0 1 709.004 710.95)"/><path d="M15.4808-19.5601C13.7343-19.5601 12.4014-18.9338 11.482-17.6812 10.5706-16.4285 10.117-14.6218 10.117-12.2692 10.117-9.91244 10.5707-8.10978 11.482-6.85719 12.4014-5.60451 13.7343-4.97827 15.4808-4.97827 17.1911-4.97827 18.4999-5.60459 19.3993-6.85719 20.3066-8.10988 20.7643-9.91254 20.7643-12.2692 20.7643-14.6219 20.3066-16.4286 19.3993-17.6812 18.4999-18.9339 17.1911-19.5601 15.4808-19.5601ZM15.4808-25.181C19.7084-25.181 23.0126-24.0407 25.3894-21.7603 27.7662-19.4799 28.9546-16.3162 28.9546-12.2692 28.9546-8.23024 27.7663-5.06655 25.3894-2.77805 23.0126-0.497559 19.7084 0.642582 15.4808 0.642582 11.2291 0.642582 7.90473-0.497662 5.50789-2.77805 3.11907-5.06655 1.92662-8.23024 1.92662-12.2692 1.92662-16.3162 3.11907-19.4798 5.50789-21.7603 7.90473-24.0408 11.2291-25.181 15.4808-25.181Z" fill="#FFFFFF" transform="matrix(1.00083 0 0 1 724.429 710.95)"/><path d="M3.51704-9.57141 3.51704-24.5866 11.4183-24.5866 11.4183-22.1295C11.4183-20.8006 11.4062-19.1304 11.3862-17.119 11.3741-15.1036 11.3701-13.7626 11.3701-13.088 11.3701-11.1047 11.4183-9.68345 11.5146-8.81629 11.619-7.94908 11.8037-7.31477 12.0606-6.92123 12.3818-6.40732 12.7994-6.00985 13.3133-5.73288 13.8353-5.45184 14.4375-5.31533 15.112-5.31533 16.7501-5.31533 18.0349-5.94166 18.9662-7.19426 19.9057-8.45496 20.3795-10.2054 20.3795-12.4457L20.3795-24.5861 28.2325-24.5861 28.2325 0.000976413 20.3795 0.000976413 20.3795-3.54813C19.1911-2.12288 17.9304-1.06691 16.6055-0.38445 15.2887 0.298073 13.8312 0.643353 12.2373 0.643353 9.38682 0.643353 7.21877-0.227874 5.73329-1.97436 4.25582-3.71679 3.51714-6.25022 3.51714-9.57044Z" fill="#FFFFFF" transform="matrix(1.00083 0 0 1 755.346 710.95)"/><path d="M22.0495-17.8899C21.3509-18.2111 20.6603-18.444 19.9778-18.5966 19.3033-18.7571 18.6208-18.8375 17.9382-18.8375 15.9147-18.8375 14.357-18.187 13.2649-16.8943 12.1809-15.5975 11.643-13.7386 11.643-11.3216L11.643 0.000637238 3.77389 0.000637238 3.77389-24.5865 11.643-24.5865 11.643-20.5555C12.6467-22.1615 13.803-23.3338 15.1118-24.0726 16.4286-24.8113 18.0025-25.1806 19.8333-25.1806 20.0903-25.1806 20.3713-25.1686 20.6845-25.1485 20.9936-25.1244 21.4393-25.0763 22.0174-25.004Z" fill="#FFFFFF" transform="matrix(1.00083 0 0 1 787.387 710.95)"/><path d="M23.6395-23.8162 23.6395-17.4085C22.5796-18.1472 21.5076-18.6853 20.4276-19.0305 19.3556-19.3838 18.2435-19.5604 17.0872-19.5604 14.8911-19.5604 13.1767-18.9181 11.9482-17.6333 10.7277-16.3566 10.1175-14.57 10.1175-12.2694 10.1175-9.9769 10.7277-8.19027 11.9482-6.90552 13.1767-5.62077 14.8911-4.97839 17.0872-4.97839 18.3158-4.97839 19.4841-5.15906 20.5881-5.52441 21.6882-5.89779 22.708-6.44381 23.6395-7.16252L23.6395-0.72272C22.419-0.273056 21.1704 0.0641863 19.8976 0.289028 18.6329 0.521887 17.3643 0.642336 16.0916 0.642336 11.6592 0.642336 8.19036-0.497909 5.68509-2.7783 3.17982-5.05868 1.92723-8.22246 1.92723-12.2694 1.92723-16.3244 3.17992-19.4881 5.68509-21.7606 8.19036-24.0411 11.6592-25.1812 16.0916-25.1812 17.3763-25.1812 18.6451-25.0688 19.8976-24.844 21.1502-24.6192 22.3949-24.2739 23.6395-23.8162Z" fill="#FFFFFF" transform="matrix(1.00083 0 0 1 809.579 710.95)"/><path d="M22.0495-17.8899C21.3509-18.2111 20.6603-18.444 19.9778-18.5966 19.3033-18.7571 18.6208-18.8375 17.9382-18.8375 15.9147-18.8375 14.357-18.187 13.2649-16.8943 12.1809-15.5975 11.643-13.7386 11.643-11.3216L11.643 0.000637238 3.77389 0.000637238 3.77389-24.5865 11.643-24.5865 11.643-20.5555C12.6467-22.1615 13.803-23.3338 15.1118-24.0726 16.4286-24.8113 18.0025-25.1806 19.8333-25.1806 20.0903-25.1806 20.3713-25.1686 20.6845-25.1485 20.9936-25.1244 21.4393-25.0763 22.0174-25.004Z" fill="#FFFFFF" transform="matrix(1.00083 0 0 1 836.256 710.95)"/><path d="M28.3283-12.3655 28.3283-10.1172 9.93988-10.1172C10.1326-8.27433 10.795-6.89327 11.9312-5.9739 13.0755-5.05048 14.6774-4.59274 16.733-4.59274 18.3792-4.59274 20.0734-4.83363 21.8078-5.31541 23.5422-5.80522 25.3249-6.55196 27.1556-7.54769L27.1556-1.49332C25.3007-0.786701 23.4458-0.256766 21.5829 0.0965929 19.72 0.457927 17.8612 0.642613 16.0103 0.642613 11.5538 0.642613 8.09302-0.485606 5.62023-2.74595 3.15515-5.01431 1.92651-8.19012 1.92651-12.2692 1.92651-16.284 3.135-19.4357 5.55589-21.7281 7.9849-24.0287 11.3212-25.1809 15.5609-25.1809 19.4232-25.1809 22.5186-24.0126 24.8432-21.68 27.1638-19.3554 28.3281-16.252 28.3281-12.3656ZM20.2504-14.9671C20.2504-16.4646 19.8088-17.6691 18.9336-18.5804 18.0664-19.4998 16.9302-19.9616 15.529-19.9616 13.9953-19.9616 12.7547-19.532 11.8032-18.6768 10.8597-17.8176 10.2695-16.581 10.0366-14.9671Z" fill="#FFFFFF" transform="matrix(1.00083 0 0 1 858.453 710.95)"/><path d="M14.7911-11.0653C13.153-11.0653 11.9205-10.7843 11.0974-10.2302 10.2703-9.67217 9.86084-8.85319 9.86084-7.77317 9.86084-6.77749 10.1901-5.99456 10.8565-5.42855 11.519-4.87048 12.4464-4.59346 13.6348-4.59346 15.1122-4.59346 16.3528-5.12341 17.3606-6.18337 18.3763-7.24324 18.8862-8.56818 18.8862-10.1661L18.8862-11.0654ZM26.8041-14.0363 26.8041-0.000616682 18.8868-0.000616682 18.8868-3.64613C17.8269-2.15664 16.6385-1.06861 15.3216-0.386043 14.0046 0.296521 12.4028 0.64176 10.5198 0.64176 7.9703 0.64176 5.89866-0.100992 4.30475-1.59053 2.71885-3.07601 1.92795-5.00314 1.92795-7.37192 1.92795-10.2626 2.91561-12.3744 4.89892-13.7154 6.89029-15.0644 10.0059-15.739 14.2456-15.739L18.8867-15.739 18.8867-16.3653C18.8867-17.6058 18.3929-18.5173 17.4092-19.0953 16.4336-19.6735 14.904-19.9625 12.8162-19.9625 11.134-19.9625 9.57224-19.7899 8.12684-19.4486 6.68154-19.1154 5.33245-18.6135 4.07986-17.939L4.07986-23.9291C5.77009-24.3467 7.46041-24.6558 9.15464-24.8606 10.8569-25.0734 12.5512-25.1818 14.2455-25.1818 18.6859-25.1818 21.8897-24.3025 23.849-22.548 25.8164-20.8016 26.804-17.9631 26.804-14.0366Z" fill="#FFFFFF" transform="matrix(1.00083 0 0 1 888.975 710.95)"/><path d="M12.3655-31.5731 12.3655-24.5872 20.4594-24.5872 20.4594-18.9664 12.3655-18.9664 12.3655-8.54341C12.3655-7.39514 12.5903-6.62028 13.04-6.21482 13.4897-5.81734 14.389-5.62062 15.738-5.62062L19.785-5.62062 19.785 0.000226117 13.04 0.000226117C9.93253 0.000226117 7.73232-0.646169 6.43955-1.94294 5.14277-3.23571 4.49638-5.43582 4.49638-8.54339L4.49638-18.9663 0.593916-18.9663 0.593916-24.5872 4.49638-24.5872 4.49638-31.5731Z" fill="#FFFFFF" transform="matrix(1.00083 0 0 1 919.34 710.95)"/><path d="M0.54602-24.5871 8.41509-24.5871 15.0155-7.90175 20.6364-24.5871 28.5054-24.5871 18.1637 2.329C17.1239 5.06717 15.9074 6.97817 14.5182 8.06219 13.137 9.15423 11.3103 9.7003 9.04194 9.7003L4.4971 9.7003 4.4971 4.54525 6.95417 4.54525C8.29113 4.54525 9.25871 4.32845 9.8609 3.90288 10.4712 3.48533 10.9449 2.72255 11.2902 1.62239L11.4989 0.947891Z" fill="#FFFFFF" transform="matrix(1.00083 0 0 1 940.854 710.95)"/><path d="M11.643-3.54911 11.643 9.34674 3.77389 9.34674 3.77389-24.5872 11.643-24.5872 11.643-20.9899C12.723-22.4232 13.9234-23.4791 15.2403-24.1536 16.5571-24.8361 18.0707-25.1814 19.7851-25.1814 22.8123-25.1814 25.3015-23.9769 27.2527-21.568 29.1999-19.1591 30.1756-16.0596 30.1756-12.2696 30.1756-8.47958 29.2-5.38014 27.2527-2.97117 25.3015-0.562208 22.8123 0.642171 19.7851 0.642171 18.0707 0.642171 16.5572 0.296891 15.2403-0.385632 13.9233-1.06815 12.723-2.12406 11.643-3.54931ZM16.8622-19.4801C15.18-19.4801 13.8913-18.8577 12.9919-17.6172 12.0926-16.3846 11.643-14.602 11.643-12.2694 11.643-9.94482 12.0926-8.16219 12.9919-6.92164 13.8913-5.6891 15.18-5.07478 16.8622-5.07478 18.5404-5.07478 19.8252-5.68905 20.7165-6.92164 21.6038-8.15017 22.0495-9.93279 22.0495-12.2694 22.0495-14.614 21.6038-16.4007 20.7165-17.6333 19.8252-18.8618 18.5404-19.4802 16.8622-19.4802Z" fill="#FFFFFF" transform="matrix(1.00083 0 0 1 970.191 710.95)"/></g></svg>